<?xml version="1.0" standalone="no"?>
<!DOCTYPE svg PUBLIC "-//W3C//DTD SVG 1.1//EN" "http://www.w3.org/Graphics/SVG/1.1/DTD/svg11.dtd" >
<svg xmlns="http://www.w3.org/2000/svg">
<metadata>
This is a custom SVG webfont generated by Font Squirrel.
Copyright   : Copyright c 2009 Barry Schwartz
</metadata>
<defs>
<font id="webfontr1YC71w0" horiz-adv-x="690" >
<font-face units-per-em="2048" ascent="1591" descent="-457" />
<missing-glyph horiz-adv-x="436" />
<glyph unicode="ff" horiz-adv-x="1243" d="M59 807q0 18 1 25.5t7.5 15.5t20.5 11t39 3q6 0 29.5 -1t31.5 -1q25 0 30 6t5 31q0 117 55.5 242t151.5 209q137 119 299 118q57 0 108.5 -19.5t79 -38.5t29.5 -19q4 0 40 35.5t97.5 71.5t128.5 36q113 0 113 -53q0 -29 -8 -62q-10 -33 -20.5 -45t-32.5 -12 q-10 0 -40 24.5t-89 24.5q-68 0 -114 -40t-70.5 -114.5t-35 -166t-10.5 -211.5q0 -23 19 -23h84q47 0 76.5 6t37.5 14.5t16.5 14.5t18.5 6q16 0 17 -33q0 -27 -27 -71q-12 -18 -51 -19q-45 0 -68.5 -1t-91.5 -1q-22 0 -28 -21q-7 -30 -7 -200q0 -33 -1 -149.5t-1 -202.5 q0 -53 17.5 -85t37 -41.5t47.5 -15.5q6 0 15.5 -2t13.5 -3t11.5 -2t11.5 -3t7 -5t5 -7t2 -10q0 -25 -25 -25q-2 0 -39.5 3t-84 6t-66.5 3q-25 0 -57.5 -5t-96.5 -5q-53 0 -53 23q0 16 17.5 25t37 14.5t37 30t17.5 67.5q0 14 2 80.5t3 195.5t1 299q0 23 -10.5 30t-42.5 7 q-82 0 -107 -1t-205 -1q-29 0 -28 -20v-240q0 -29 -1 -78t-1 -67v-115q0 -82 6 -109.5t26 -52.5q10 -12 47 -22.5t68 -21.5t31 -24q0 -20 -29 -20q-2 0 -43 2t-91 5t-71 3q-18 0 -63 -5t-109 -5q-27 0 -26 23q0 6 2 11t7 8t8 4l14 5q12 4 14 4q68 23 67 103q0 14 -1 82.5 t-1 199.5v301q0 16 -7 21.5t-30 5.5h-84q-41 0 -41 39zM365 887q0 -18 4 -23.5t18 -5.5q47 0 186.5 -2t151.5 -2q25 0 32 9t7 34q0 98 19.5 179t40 126t20.5 55q0 29 -73 77t-124 48q-98 0 -190 -120.5t-92 -374.5z" />
<glyph unicode="fi" horiz-adv-x="1112" d="M59 799q0 55 45 55q8 0 42 -2t42 -2q41 0 41 47q0 152 48.5 272.5t126 191.5t164.5 107.5t175 36.5q72 0 100.5 -24.5t28.5 -53.5q0 -18 -17 -77.5t-36 -59.5q-6 0 -12 7.5t-16.5 19.5t-24.5 22q-88 57 -166 58q-70 0 -117 -51q-18 -20 -40.5 -61.5t-50 -153 t-27.5 -244.5q0 -39 22 -39h268q55 0 132 27.5t94 27.5q10 0 20 -11t10 -32q0 -14 -2 -36.5t-5 -60.5t-5 -171t-2 -342q0 -96 16.5 -142.5t71.5 -60.5q12 -4 31.5 -6t30 -4t18.5 -9.5t8 -19.5q0 -23 -37 -22q-18 0 -71.5 7t-100.5 7q-61 0 -116.5 -6t-65.5 -6q-47 0 -47 16 q0 23 35 35t47 19.5t23.5 51.5t12.5 104t1 208v203v51q0 41 -21.5 69.5t-56.5 28.5l-273 6q-33 0 -32 -26l-6 -123q-6 -190 -7 -287q0 -33 1 -80t1 -63q0 -82 27 -114t105 -44q47 -6 47 -35q0 -18 -41 -18q-2 0 -39 2t-82 4t-66 2q-37 0 -102.5 -3t-69.5 -3q-33 0 -33 24 q0 14 17.5 22t39 11.5t39 29t17.5 75.5q0 14 1 81.5t1 198.5v301q0 23 -4 28t-24 5q-10 0 -40 2t-49 2q-31 0 -38 5.5t-7 21.5z" />
<glyph unicode="fl" horiz-adv-x="1110" d="M57 799q0 37 17.5 49t66.5 12q14 0 35 -1t25 -1q16 0 22 6t6 23q0 150 49.5 273.5t123 194t149.5 109.5t137 39q16 0 51 -2t43 -2q39 0 67 18.5t48 18.5q23 0 23 -49q0 -8 -3.5 -45t-6.5 -104.5t-3 -149.5v-115q0 -96 -3 -162.5t-3 -109.5v-611q0 -66 26.5 -100.5 t57.5 -38.5t57.5 -11t26.5 -26q0 -16 -9 -21t-38 -5q-18 0 -90 5t-107 5q-53 0 -93 -5t-56 -5q-14 0 -24.5 7t-10.5 13q0 16 18.5 26t41 18.5t41 41.5t18.5 88q0 440 2 665.5t2 409.5q0 145 -150 146q-57 0 -102 -35q-68 -51 -103.5 -187.5t-35.5 -256.5q0 -70 10 -70 q139 0 182 6q10 0 45 18.5t47 18.5q14 0 15 -16q0 -23 -28 -63t-58 -40h-185q-33 0 -32 -28q0 -2 -1 -77t-2 -178.5t-1 -172.5v-58q0 -59 7 -99t12 -60.5t29.5 -34t35 -16.5t53.5 -11q33 -6 33 -35q0 -14 -23 -14q-2 0 -30.5 3t-66.5 6t-59 3q-35 0 -114.5 -8t-85.5 -8 q-41 0 -41 33q0 18 35.5 26t44.5 19q29 33 28 112q0 14 -1 75.5t-1 185.5v294q0 43 -39 43q-10 0 -34.5 -2t-43.5 -2q-47 0 -47 25z" />
<glyph unicode="ffi" horiz-adv-x="1646" d="M57 807q0 31 11.5 40t58.5 9h59q25 0 32 9t7 32q0 233 155 401t347 168q61 0 115.5 -22.5t84 -46t32 -23.5t41 34t107.5 68.5t142 34.5q158 0 158 -69q0 -33 -15.5 -87.5t-37.5 -54.5q-12 0 -17.5 6.5t-13.5 18.5t-20 23q-76 57 -152 57q-246 0 -246 -528q0 -23 17 -23 h84q78 0 156.5 3t103.5 3q55 0 97 26.5t58 26.5q25 0 25 -39q0 -6 -4 -60t-4 -157v-456q0 -72 26.5 -109t57 -40t57.5 -9t27 -25q0 -25 -43 -24q-18 0 -63.5 3t-92.5 3q-59 0 -114.5 -6t-67.5 -6q-49 0 -49 16q0 23 36 35q59 20 70.5 69.5t11.5 313.5v203q0 10 1 27.5 t1 23.5q0 41 -21.5 71.5t-55.5 30.5q-18 0 -65.5 -1t-57.5 -1q-45 0 -70 -1t-92 -1q-14 0 -19.5 -3t-9.5 -27.5t-5 -65.5t-1 -129q0 -33 2 -129t2 -184q0 -92 19.5 -130t54.5 -49q14 -4 42 -9t42 -10t14 -15q0 -14 -4 -19.5t-20 -5.5q-2 0 -64.5 4t-128.5 4q-27 0 -68.5 -6 t-93.5 -6q-47 0 -47 24q0 18 31 25l13 2q13 2 16.5 4t14.5 7t15 14.5t11.5 24t9.5 38t2 51.5v551q0 18 -1 25.5t-9.5 12.5t-26.5 5q-82 0 -116 -2t-214 -2q-31 0 -30 -24v-240v-145v-115q0 -74 9 -103.5t34 -60.5q10 -14 71.5 -31.5t61.5 -34.5q0 -8 -8.5 -16t-20.5 -8 q-2 0 -43 3t-90 6t-70 3q-29 0 -71.5 -8t-69.5 -8q-49 0 -49 24q0 14 16.5 23.5t34.5 14.5t34.5 32t16.5 72v583q0 23 -8 29t-31 6h-84q-41 0 -41 31zM365 883q0 -20 26.5 -24.5t181.5 -4.5h172q23 0 23 43q0 106 21.5 187t43 122t21.5 49q0 29 -71.5 78t-116.5 49 q-133 0 -217 -145t-84 -354z" />
<glyph unicode="ffl" horiz-adv-x="1654" d="M57 807q0 33 11.5 42t58.5 9h59q25 0 30 7t5 32q0 211 148.5 390t357.5 179q78 0 156 -41t80 -41q6 0 10 3.5t11 10.5t13 11q129 100 238 100q18 0 51 -1t37 -1q27 0 52.5 18.5t47.5 18.5q25 0 25 -59q0 -8 -1 -45t-2 -103.5t-1 -148.5v-115q0 -45 -2 -98t-2 -131 q0 -47 3 -234.5t3 -234.5q0 -227 16 -260q16 -37 56.5 -49.5t69 -17.5t28.5 -28q0 -16 -9.5 -21t-39.5 -5q-18 0 -94 3t-111 3q-53 0 -94 -3t-58 -3q-33 0 -32 18q0 16 18 25.5t39.5 16.5t40 40t18.5 88q0 440 -3 691t-3 436q0 98 -139 98q-70 0 -119 -39 q-68 -51 -95.5 -181t-27.5 -263q0 -66 11 -66q4 0 58 1t68 1q66 0 102 21.5t52 21.5q8 0 8 -16q0 -29 -22.5 -69t-44.5 -40q-45 0 -89 1t-112 1q-29 0 -34 -66.5t-5 -449.5q0 -195 94 -207q23 -4 31 -5t23.5 -6t21.5 -14t6 -23.5t-22 -14.5q-2 0 -41 2t-87 4t-69 2 q-35 0 -100.5 -6t-71.5 -6q-39 0 -39 33q0 18 17.5 24t39 7t39 26.5t17.5 79.5v174v82q0 31 -1 149.5t-1 194.5q0 16 -6.5 20t-24.5 4q-55 0 -117.5 -2t-83.5 -2q-18 0 -63 -1t-68 -1q-29 0 -28 -28v-240q0 -29 1 -78t1 -67v-115q0 -115 30 -162q10 -16 77 -33.5t67 -34.5 q0 -23 -29 -22q-2 0 -45 1t-94 1h-72q-31 0 -72 -6t-67 -6q-49 0 -49 35q0 23 30 28q4 0 17.5 1t18.5 3t15.5 8.5t14.5 16.5t8 29.5t4 48.5v583q0 31 -39 31h-86q-39 0 -39 35zM367 887q0 -16 5 -22.5t19 -6.5h86h250q14 0 21.5 2t11.5 10.5t4 26.5q0 100 22.5 183t45 129 t22.5 55q0 29 -78 73.5t-131 44.5q-70 0 -133 -63q-145 -141 -145 -432z" />
<glyph unicode="fj" horiz-adv-x="1069" d="M59 799q0 53 45 53q8 0 42 -1t42 -1q41 0 41 47q0 152 48.5 272.5t126 191.5t164.5 107.5t175 36.5q72 0 100.5 -24.5t28.5 -53.5q0 -18 -17 -77.5t-36 -59.5q-6 0 -12 7.5t-16.5 19.5t-24.5 22q-88 57 -166 58q-70 0 -117 -51.5t-81.5 -174t-34.5 -280.5q0 -29 9 -36 t52 -7h123q150 0 236.5 26.5t93.5 26.5q18 0 23 -13.5t5 -47.5q0 -18 -6 -105.5t-6 -154.5v-508q0 -113 -20.5 -213.5t-85 -184.5t-164.5 -84q-80 0 -80 56q0 10 -2 36.5t-2 36.5q0 59 45 60q23 0 62.5 -44t54.5 -44q18 0 28 27.5t15.5 100t5.5 201.5v637q0 35 -4.5 56.5 t-30 41t-72.5 19.5q-66 0 -139.5 3t-83.5 3q-53 0 -53 -26q-12 -338 -13 -369q0 -18 1 -75.5t1 -108.5q0 -74 28 -111t61.5 -39t61.5 -10t28 -33q0 -18 -41 -18q-2 0 -39 2t-82 4t-66 2q-37 0 -88 -2t-65 -2q-20 0 -28.5 1t-14.5 6t-6 17q0 14 27.5 20.5t55 30t27.5 85.5 q0 14 1 81.5t1 198.5v301q0 23 -4 28t-24 5q-10 0 -40 1t-49 1q-29 0 -37 6.5t-8 22.5z" />
<glyph unicode="ffj" horiz-adv-x="1611" d="M57 807q0 31 11.5 40t58.5 9h59q25 0 32 9t7 32q0 233 155 401t347 168q61 0 115.5 -22.5t84 -46t32 -23.5t41 34t107.5 68.5t142 34.5q158 0 158 -69q0 -37 -15.5 -87t-33.5 -50q-10 0 -34 25.5t-68 50t-105 24.5q-246 0 -246 -528q0 -23 17 -23h84q78 0 156.5 3 t103.5 3q55 0 97 26.5t58 26.5q25 0 25 -39q0 -6 -4 -64t-4 -75v-663q0 -113 -20.5 -213.5t-85 -184.5t-165.5 -84q-80 0 -80 56q0 10 -2 36.5t-2 36.5q0 59 45 60q23 0 63 -44t54 -44q31 0 39 76.5t8 334.5q0 29 1 134.5t1 185.5v242q0 80 -32.5 96t-165.5 16q-45 0 -70 -1 t-92 -1q-14 0 -19.5 -3t-9.5 -27.5t-5 -65.5t-1 -129q0 -33 2 -129t2 -184q0 -92 19.5 -130t54.5 -49q14 -4 42 -9t42 -10t14 -15q0 -14 -4 -19.5t-20 -5.5q-29 0 -118 3t-91 3q-16 0 -55 -5t-91 -5q-47 0 -47 24q0 18 31 24.5t38 10.5t21.5 16.5t16.5 47.5t4 85t2 148v385 q0 18 -1 25.5t-9.5 12.5t-26.5 5q-82 0 -116 -2t-214 -2q-31 0 -30 -24v-500q0 -74 9 -103.5t34 -60.5q10 -14 71.5 -31.5t61.5 -34.5q0 -8 -8.5 -16t-20.5 -8q-2 0 -43 2t-90 5t-70 3q-18 0 -69.5 -7t-73.5 -7q-47 0 -47 24q0 14 16.5 23.5t34.5 14.5t34.5 32t16.5 72v583 q0 23 -8 29t-31 6h-84q-41 0 -41 31zM365 883q0 -18 16 -23.5t70 -5.5q16 0 113.5 1t180.5 1q23 0 23 41q0 106 21.5 187t43 122t21.5 49q0 29 -71.5 78t-116.5 49q-133 0 -217 -145t-84 -354z" />
<glyph unicode="fb" horiz-adv-x="1712" d="M57 799q0 37 15.5 48t64.5 11q14 0 43 -1t33 -1q16 0 16 31q0 150 49.5 273.5t123 194t149.5 109.5t137 39q16 0 51 -2t43 -2q39 0 67 18.5t48 18.5q23 0 23 -49q0 -9 -1 -23l-3 -48q-2 -34 -3.5 -94t-2.5 -195.5t-1 -323.5q0 -35 15 -35q8 0 26.5 21.5t44 47t90 47 t152.5 21.5q197 0 296 -129t99 -295q0 -96 -50 -222t-136 -191q-119 -90 -285 -91q-84 0 -155.5 30t-107.5 59.5t-38 29.5q-8 0 -40 -65.5t-60 -65.5q-25 0 -25 27q0 29 4 97.5t4 70.5q0 68 9.5 241.5t9.5 298.5q0 88 1 298t1 259q0 145 -150 146q-57 0 -102 -35 q-68 -51 -103.5 -187.5t-35.5 -256.5q0 -70 10 -70q43 0 72.5 1t54.5 1q61 0 99 20.5t48 20.5q14 0 15 -16q0 -23 -28 -63t-58 -40h-185q-33 0 -32 -28q0 -2 -1 -77t-2 -178.5t-1 -172.5v-58q0 -59 7 -99t12 -60.5t29.5 -34t35 -16.5t53.5 -11q33 -6 33 -35q0 -14 -23 -14 q-2 0 -30.5 3t-66.5 6t-59 3q-35 0 -114.5 -8t-85.5 -8q-41 0 -41 33q0 18 35.5 26t44.5 19q29 33 28 112q0 14 -1 75.5t-1 185.5v294q0 29 -6 36t-27 7q-10 0 -37.5 -1t-46.5 -1q-47 0 -47 23zM909 270q0 -55 81 -137t218 -82q141 0 216 95.5t75 232.5q0 162 -97 289 t-263 127q-96 0 -164 -58q-66 -53 -66 -96v-371z" />
<glyph unicode="ffb" horiz-adv-x="2242" d="M57 807q0 33 11.5 42t58.5 9h59q25 0 30 7t5 32q0 211 148.5 390t357.5 179q78 0 156 -41t80 -41q6 0 10 3.5t11 10.5t13 11q129 100 238 100q18 0 51 -1t37 -1q27 0 52.5 18.5t47.5 18.5q25 0 25 -59v-4q-8 -70 -8 -639q0 -74 14 -74q8 0 24.5 21.5t40 47t91 47 t168.5 21.5q182 0 283.5 -127t101.5 -297q0 -96 -50.5 -222t-136.5 -191q-119 -90 -284 -91q-84 0 -156 30t-107.5 59.5t-37.5 29.5q-8 0 -40 -65.5t-61 -65.5q-25 0 -24 27q0 29 4 97.5t4 70.5q0 68 9 241.5t9 298.5v338q0 51 -2 125t-2 146q0 98 -139 98q-70 0 -119 -39 q-68 -51 -95.5 -181t-27.5 -263q0 -66 11 -66q4 0 58 1t68 1q66 0 102 21.5t52 21.5q8 0 8 -16q0 -29 -22.5 -69t-44.5 -40q-45 0 -89 1t-112 1q-29 0 -34 -66.5t-5 -449.5q0 -195 94 -207q23 -4 31 -5t23.5 -6t21.5 -14t6 -23.5t-22 -14.5q-2 0 -41 2t-87 4t-69 2 q-35 0 -100.5 -6t-71.5 -6q-39 0 -39 33q0 18 17.5 24t39 7t39 26.5t17.5 79.5v174v82q0 31 -1 148.5t-1 193.5q0 16 -6.5 19t-24.5 3h-201q-18 0 -63 -1t-68 -1q-29 0 -28 -28v-240q0 -29 1 -78t1 -67v-115q0 -115 30 -162q10 -16 77 -33.5t67 -34.5q0 -23 -29 -22 q-2 0 -45 1t-94 1h-72q-31 0 -71 -6t-68 -6q-49 0 -49 35q0 23 30 28q4 0 17.5 1t18.5 3t15.5 8.5t14.5 16.5t8 29.5t4 48.5v583q0 31 -39 31h-59q-41 0 -53.5 5t-12.5 30zM367 887q0 -16 5 -22.5t19 -6.5h340q18 0 25.5 5t7.5 30q0 100 22.5 184t45 131t22.5 56 q0 29 -78 73.5t-131 44.5q-70 0 -133 -63q-145 -141 -145 -432zM1440 270q0 -55 81 -137t218 -82q141 0 216 95.5t75 232.5q0 162 -98.5 289t-264.5 127q-96 0 -164 -58q-63 -53 -63 -96v-371z" />
<glyph unicode="fh" horiz-adv-x="1769" d="M57 799q0 37 15.5 48t64.5 11q14 0 43 -1t33 -1q16 0 16 31q0 150 49.5 273.5t123 194t149.5 109.5t137 39q16 0 51 -2t43 -2q39 0 67 18.5t48 18.5q23 0 23 -49q0 -2 -12.5 -353.5t-12.5 -355.5q0 -41 18 -41q4 0 42 38t103.5 76t141.5 38q166 0 258 -98.5t92 -305.5 v-297q0 -37 16.5 -75.5t53.5 -42.5q109 -10 109 -43t-64 -33q-10 0 -78.5 5t-93.5 5q-18 0 -85 -3t-73 -3q-47 0 -47 20q0 23 17.5 30t38 7t38 22.5t17.5 69.5q0 8 1 20.5t1 34t1 95.5t1 190q0 125 -76 216.5t-178 91.5q-96 0 -199 -80q-37 -29 -46 -92.5t-9 -286.5v-47 q0 -94 14.5 -149.5t65.5 -78.5q16 -6 45 -8t44 -7t15 -21q0 -25 -22 -25l-106 5q-105 5 -111 5q-14 0 -72.5 -5t-75.5 -5q-27 0 -39 3t-13 6t-1 11q0 20 25 27q57 16 74.5 52t17.5 106l8 698q0 23 1 54.5t1 46.5q0 20 -1 110t-1 143q0 145 -150 146q-57 0 -102 -35 q-68 -51 -103.5 -187.5t-35.5 -256.5q0 -70 10 -70q43 0 72.5 1t54.5 1q61 0 99 20.5t48 20.5q14 0 15 -16q0 -23 -28 -63t-58 -40h-185q-33 0 -32 -28q0 -2 -1 -77t-2 -178.5t-1 -172.5v-58q0 -59 7 -99t12 -60.5t29.5 -34t35 -16.5t53.5 -11q33 -6 33 -35q0 -14 -23 -14 q-2 0 -30.5 3t-66.5 6t-59 3q-35 0 -114.5 -7t-85.5 -7q-41 0 -41 26q0 20 35.5 29.5t44.5 20.5q29 33 28 112q0 14 -1 75.5t-1 185.5v294q0 29 -6 36t-27 7q-10 0 -37.5 -1t-46.5 -1q-47 0 -47 23z" />
<glyph unicode="ffh" horiz-adv-x="2306" d="M57 807q0 33 11.5 42t58.5 9h59q25 0 30 7t5 32q0 211 148.5 390t357.5 179q78 0 156 -41t80 -41q6 0 10 3.5t11 10.5t13 11q129 100 238 100q18 0 51 -1t37 -1q27 0 52.5 18.5t47.5 18.5q25 0 25 -59v-53q0 -96 -5 -372t-11 -278q0 -45 18 -45q4 0 42 38t104.5 76 t142.5 38q166 0 258 -98.5t92 -305.5v-297q0 -20 4 -43.5t20.5 -48t43.5 -26.5q109 -10 108.5 -43t-63.5 -33q-10 0 -78 5t-92 5q-18 0 -85 -3t-73 -3q-47 0 -47 20q0 23 17.5 30t37 7t36.5 22.5t17 69.5q0 8 1 20.5t1 34t1 95.5t1 190q0 125 -75.5 216.5t-177.5 91.5 q-74 0 -156 -50.5t-90 -109.5q-8 -72 -8 -299v-47q0 -94 14 -149.5t65 -78.5q16 -6 45 -8t44.5 -7t15.5 -21q0 -25 -23 -25l-105 5q-105 5 -112 5q-14 0 -71.5 -5t-73.5 -5q-27 0 -40 3t-14 6t-1 11q0 20 24 27q57 16 74.5 52t17.5 106q4 598 4 641q0 305 -8 463 q-4 98 -139 98q-70 0 -119 -39q-68 -51 -95.5 -181t-27.5 -263q0 -66 11 -66q4 0 58 1t68 1q61 0 102.5 22.5t47.5 22.5q12 0 12 -16q0 -29 -21.5 -70t-45.5 -41q-45 0 -89 1t-112 1q-29 0 -34 -66.5t-5 -449.5q0 -195 94 -207q23 -4 31 -5t23.5 -6t21.5 -14t6 -23.5 t-22 -14.5q-2 0 -41 2t-87 4t-69 2q-35 0 -100.5 -6t-71.5 -6q-39 0 -39 33q0 18 17.5 24t39 7t39 26.5t17.5 79.5v174v82q0 31 -1 149.5t-1 194.5q0 16 -6.5 20t-24.5 4q-55 0 -117.5 -2t-83.5 -2q-18 0 -63 -1t-68 -1q-29 0 -28 -28v-240q0 -29 1 -78t1 -67v-115 q0 -115 30 -162q8 -14 76 -27.5t68 -40.5q0 -23 -29 -22q-2 0 -45 1t-94 1h-72q-25 0 -60.5 -4t-70.5 -4q-25 0 -34 1t-16 7t-7 18q0 23 30 29q4 0 17.5 2t18.5 3t15.5 8.5t14.5 18.5t8 30.5t4 48.5v583q0 31 -39 31h-86q-39 0 -39 35zM367 887q0 -16 5 -22.5t19 -6.5h86 h250q14 0 21.5 2t11.5 10.5t4 26.5q0 100 22.5 183t45 129t22.5 55q0 29 -78 73.5t-131 44.5q-70 0 -133 -63q-145 -141 -145 -432z" />
<glyph unicode="fk" horiz-adv-x="1699" d="M57 799q0 41 14.5 50t63.5 9h66q16 0 22 6t6 25q0 150 49.5 272.5t123 194t148.5 109.5t138 38q16 0 51 -2t43 -2q39 0 67 18.5t48 18.5q23 0 23 -49q0 -37 -8.5 -427t-8.5 -478v-43q0 -86 8 -86q12 0 22.5 6t24 20.5t21.5 20.5q287 229 287 260q0 27 -46 45t-46 35 q0 20 24 20q82 0 212 4t134 4q45 0 45 -18q0 -14 -13 -21.5t-34.5 -10.5t-61.5 -18.5t-83 -43.5q-27 -18 -70 -51q-172 -131 -197.5 -153t-25.5 -40t20 -45q180 -221 322 -344q55 -49 111.5 -63.5t81 -14.5t24.5 -18q0 -25 -17.5 -31t-66.5 -6q-14 0 -108.5 2t-104.5 2 q-12 0 -35.5 17.5t-55.5 48.5q-33 32 -63 67l-68 79l-64 76l-55 68l-38 47q-8 12 -22 13q-25 0 -44.5 -31t-19.5 -64q0 -4 1 -15t1 -19q1 -22 3 -58q4 -98 13 -111q2 -2 6 -7q9 -10 15 -19q16 -23 75.5 -35t59.5 -31q0 -27 -63 -26q-4 0 -72 3t-106 3q-27 0 -62 -4t-82 -4 q-49 0 -49 24q0 16 48 33t56 49q12 55 13 142q0 23 1 53.5t1 36.5l2 866q0 23 1 46.5t1 27.5q0 133 -146 133q-59 0 -106 -35q-68 -51 -103.5 -187.5t-35.5 -256.5q0 -70 10 -70q139 0 182 6q10 0 45 18.5t47 18.5q14 0 15 -16q0 -23 -28 -63t-58 -40h-185q-33 0 -32 -28 q0 -2 -1 -77t-2 -178.5t-1 -172.5v-58q0 -92 14 -136t33.5 -55.5t70.5 -21.5q12 -2 19 -4q33 -6 33 -39q0 -14 -23 -14q-2 0 -30.5 2t-66.5 4t-59 2q-35 0 -114.5 -6t-85.5 -6q-41 0 -41 33q0 18 35.5 26t44.5 19q29 33 28 112q0 14 -1 75.5t-1 185.5v294q0 43 -39 43 q-10 0 -34.5 -1t-43.5 -1q-47 0 -47 23z" />
<glyph unicode="ffk" horiz-adv-x="2232" d="M57 807q0 33 11.5 42t58.5 9h59q25 0 30 7t5 32q0 211 148.5 390t357.5 179q78 0 156 -41t80 -41q6 0 10 3.5t11 10.5t13 11q129 100 238 100q18 0 51 -1t37 -1q27 0 52.5 18.5t47.5 18.5q25 0 25 -59q0 -2 -1 -46t-2 -156t-1 -284q0 -70 -3 -210t-3 -209v-43 q0 -86 8 -86q12 0 21.5 6t22.5 20.5t21 20.5q287 229 287 260q0 27 -46 45t-46 35q0 20 25 20q84 0 188 4t141 4q61 0 62 -18q0 -14 -12.5 -20.5t-33 -9.5t-59.5 -17.5t-80 -40.5l-12 -8q-6 -4 -13 -10q-6 -7 -26 -21l-45 -33q-29 -23 -76 -57q-96 -74 -112.5 -88.5 t-16.5 -30.5t23 -47q186 -227 319 -344q55 -49 111.5 -63.5t81 -14.5t24.5 -18q0 -25 -17 -30t-67 -5q-14 0 -108 1t-105 1q-16 0 -53 32t-89 90l-89 102l-90 110q-53 66 -55 69q-10 12 -25 13q-20 0 -40.5 -29t-20.5 -66q0 -4 1 -15t1 -19q2 -33 3 -67t1 -47t1 -26.5 t5 -20.5t9 -14.5t16 -19.5q16 -18 54 -28l65 -16q26 -7 26 -22q0 -33 -53 -32q-4 0 -82 6t-117 6q-27 0 -61.5 -4t-81.5 -4q-49 0 -49 24q0 10 9 17.5t17 10.5t10 3q12 0 38 17.5t32 39.5q12 49 12 226q2 739 2 925q0 90 -29.5 122t-115.5 32q-70 0 -119 -39 q-68 -51 -95.5 -181t-27.5 -263q0 -66 11 -66q4 0 58 1t68 1q66 0 102 21.5t52 21.5q8 0 8 -16q0 -29 -22.5 -69t-44.5 -40q-45 0 -89 1t-112 1q-29 0 -34 -66.5t-5 -449.5q0 -195 94 -207q23 -4 31 -5t23.5 -6t21.5 -14t6 -23.5t-22 -14.5q-2 0 -41 2t-87 4t-69 2 q-35 0 -100.5 -6t-71.5 -6q-39 0 -39 33q0 18 17.5 24t39 7t39 26.5t17.5 79.5v174v82q0 31 -1 149.5t-1 194.5q0 16 -6.5 20t-24.5 4q-55 0 -117.5 -2t-83.5 -2q-18 0 -63 -1t-68 -1q-29 0 -28 -28v-240q0 -29 1 -78t1 -67v-115q0 -115 30 -162q10 -16 77 -34t67 -34 q0 -23 -29 -22q-2 0 -45 1t-94 1h-72q-31 0 -67.5 -6t-71.5 -6q-49 0 -49 35q0 23 30 28q4 0 17.5 1t18.5 3t15.5 8.5t14.5 16.5t8 29.5t4 48.5v583q0 31 -39 31h-86q-39 0 -39 35zM367 887q0 -16 5 -22.5t19 -6.5h86h250q14 0 21.5 2t11.5 10.5t4 26.5q0 100 22.5 183 t45 129t22.5 55q0 29 -78 73.5t-131 44.5q-70 0 -133 -63q-145 -141 -145 -432z" />
<glyph unicode=" "  horiz-adv-x="436" />
<glyph unicode="&#x09;" horiz-adv-x="436" />
<glyph unicode="&#xa0;" horiz-adv-x="436" />
<glyph unicode="!" horiz-adv-x="565" d="M139 129q0 14 60 66q8 6 25.5 28.5t33.5 35.5t33 13q8 0 14 -4q7 -4 19 -17l14 -15q23 -25 46.5 -43.5t34.5 -26.5t19 -17.5t8 -21.5q0 -16 -13 -30.5t-35.5 -30t-28.5 -21.5q-8 -8 -22.5 -28.5t-28 -32t-25.5 -11.5t-41 23.5t-45 46.5q-6 8 -24.5 23.5t-31 31 t-12.5 31.5zM201 1333q0 78 100 78q49 0 71.5 -14.5t22.5 -50.5q0 -6 -1 -14.5t-4 -28t-5 -37.5q-8 -70 -24.5 -331t-47.5 -505q-4 -23 -28.5 -22.5t-24.5 18.5q-18 211 -26 335q-9 125 -10 155l-2 60q-1 30 -3 62q-18 258 -18 295z" />
<glyph unicode="&#x22;" horiz-adv-x="940" d="M115 1329q0 12 55 68q4 4 21.5 25.5t31 29.5t29.5 8q6 0 20.5 -7t35 -25.5t39 -43t30.5 -65.5t12 -88q0 -86 -28.5 -160t-67.5 -113.5t-73 -61.5t-52 -22q-10 0 -18.5 9.5t-8.5 15.5q0 12 17.5 27.5t40 33t40 56.5t17.5 92q0 55 -22.5 93t-48 52.5t-48 32.5t-22.5 43z M514 1329q0 12 55 68q4 4 21.5 25.5t31 29.5t29.5 8q14 0 44 -20.5t63 -76.5t33 -132q0 -86 -29 -160t-69 -113.5t-73.5 -61.5t-52.5 -22q-10 0 -18 9.5t-8 15.5q1 11 19 27l38 34q20 18 38.5 56.5t18.5 91.5q0 55 -22.5 93t-48 52.5t-48 32.5t-22.5 43z" />
<glyph unicode="#" horiz-adv-x="1091" d="M121 285v6q0 25 4 34t25 9h167q6 0 7 4q4 36 14 106l17 118q7 48 7 52q0 10 -14 11h-194q-18 0 -25.5 7t-7.5 34q0 45 33 45h208q18 0 19 14q29 205 45 342q6 41 8 45q10 14 45 14q41 0 41 -24q0 -6 -26.5 -190.5t-26.5 -190.5q0 -10 12 -10h201q16 0 18 14 q53 385 58 389q8 12 47 12q33 0 33 -20q0 -8 -26 -192.5t-26 -192.5q0 -10 11 -10h141q37 0 37 -52q0 -35 -31 -34h-166q-6 0 -10 -13q-37 -264 -37 -266q0 -12 14 -12h195q12 0 18.5 -2t11.5 -11.5t5 -27.5q0 -45 -35 -45h-201q-18 0 -22 -21l-24 -177q-19 -138 -27 -161.5 t-43 -23.5q-39 0 -39 26q0 6 23.5 173t23.5 172q0 12 -15 12h-135q-39 0 -57.5 -2t-21.5 -5t-5 -10q-45 -340 -49 -350q-10 -16 -47 -16t-37 26q0 6 23.5 172t23.5 170q0 14 -16 15h-143q-29 0 -29 37zM412 344q0 -10 16 -10h195q18 0 20 14q5 52 13 100l12 74l7 47t4 31 t1 14q0 10 -12 11h-201q-14 0 -18 -15q-37 -264 -37 -266z" />
<glyph unicode="$" horiz-adv-x="1091" d="M131 197q0 12 3 39.5t14.5 65.5t29.5 38q20 0 32 -14q10 -13 32 -59l32 -66q33 -59 100.5 -102.5t125.5 -43.5q20 0 20 31q0 131 3 296t3 282q0 29 -73 51q-121 39 -198 114.5t-77 221t100.5 248t237.5 120.5q14 2 20.5 10.5t6.5 36.5q0 12 -1 28.5t-1 27.5q0 47 45 47 q31 0 38 -8.5t7 -28.5v-46q0 -20 -1 -32t-1 -14q0 -18 10 -19q66 -8 121 -28.5t86 -43t52.5 -46t29.5 -39t8 -21.5q0 -31 -21.5 -81t-40 -50t-26.5 23q-35 76 -94.5 138t-114.5 62q-18 0 -18 -39q0 -172 -5.5 -266t-5.5 -135q0 -33 4 -43t23 -14q184 -51 273 -149.5 t89 -262.5q0 -102 -33.5 -184t-91 -131.5t-113.5 -79t-120 -45.5q-38 -10 -40 -17q-3 -6 -3 -22v-39v-129q0 -55 -9 -70.5t-36 -15.5q-43 0 -43 43q0 37 3 107.5t3 93.5q0 39 -12 38q-96 0 -200.5 46.5t-149.5 101.5q-23 27 -23 74zM299 1104q0 -172 215 -227h4q18 0 19 34 q0 90 1 203t1 199q0 25 -23 24q-55 0 -136 -62t-81 -171zM600 82q0 -27 14 -27q10 0 33 4t65 24.5t76.5 52.5t61.5 95.5t27 147.5q0 63 -26 114.5t-61.5 80t-74.5 48t-62.5 26.5t-29.5 7q-14 0 -15 -28q0 -109 -4 -272.5t-4 -272.5z" />
<glyph unicode="%" horiz-adv-x="1579" d="M121 705q0 166 117.5 321.5t289.5 155.5q66 0 116 -36l95 -71q45 -35 97 -35q39 0 86 17.5t84.5 38t85.5 58.5l72 58l64 58l40 37q16 16 37 16q18 0 18 -18q0 -16 -16 -43l-892 -1358q-52 -83 -63 -86q-12 -4 -20 -4q-25 0 -46.5 16t-21.5 33q0 25 61 112l21 31l338 486 l218 307l153 209q43 60 43 65q0 8 -8 8q-2 0 -40 -22.5t-96.5 -45t-113.5 -22.5q-23 0 -45.5 5t-38 10.5t-17.5 5.5t-2 -2l2 -14q2 -13 2 -25q0 -117 -20.5 -190.5t-83.5 -166.5q-111 -164 -291 -163q-72 0 -148.5 66.5t-76.5 187.5zM268 745q0 -113 33 -176t90 -63 q98 0 157.5 135t59.5 293q0 82 -26.5 135t-69.5 53q-115 0 -179.5 -116t-64.5 -261zM791 131q0 174 112.5 321.5t292.5 147.5q111 0 166 -69.5t55 -182.5q0 -178 -112.5 -343t-266.5 -165q-121 0 -184 83t-63 208zM936 150q0 -113 32.5 -178.5t90.5 -65.5q92 0 157.5 139 t65.5 293q0 82 -29.5 140.5t-72.5 58.5q-115 0 -179.5 -120t-64.5 -267z" />
<glyph unicode="&#x26;" horiz-adv-x="1939" d="M121 496q0 70 23.5 144.5t58.5 119.5q49 59 111.5 92t100.5 41t38 12q0 6 -25 36t-49.5 90.5t-24.5 137.5q0 135 119 204t266 69q72 0 135.5 -23.5t71.5 -23.5t21.5 3t23.5 3q33 0 33 -47q0 -2 2 -28t4 -58.5t2 -53.5q0 -59 -3 -71.5t-19 -12.5q-12 0 -43 37l-66 81 q-35 44 -93 81t-120 37q-96 0 -143 -50t-47 -108q0 -51 56 -132q56 -80 114 -142l166 -168q154 -154 297 -276.5t161 -122.5q12 0 24.5 17t21 58t8.5 97q0 76 -21.5 122t-38 57t-57.5 32q-14 6 -36 8t-32 7t-10 21q0 14 9 18t42 5q43 0 95.5 -2t209.5 -2q39 0 39 -27 q0 -14 -11 -21t-26.5 -11.5t-29 -25t-15.5 -56.5q-2 -25 -5 -55.5t-7 -62.5t-6 -44q-6 -39 -24.5 -84t-34 -76t-15.5 -37q0 -18 122 -95t247 -138q41 -20 88 -21q14 0 38.5 3t35.5 3q27 0 26 -18q0 -33 -58.5 -55.5t-139.5 -22.5q-125 0 -233.5 52.5t-166 103.5t-59.5 51 q-8 0 -31.5 -21.5t-62.5 -53.5t-94.5 -63.5t-147.5 -53t-203 -21.5q-66 0 -131 9t-156.5 42t-160 88.5t-116.5 160t-48 241.5zM256 565q0 -72 35 -149.5t101.5 -152.5t185 -123t266.5 -48q88 0 173 30t128 59.5t43 41.5q0 8 -53.5 48t-176 144.5t-249.5 231.5l-57 57l-46 46 l-36 36l-28 27q-10 10 -19 20.5t-15 14.5t-11 8t-9.5 5t-8.5 1q-68 0 -145.5 -86t-77.5 -211z" />
<glyph unicode="'" horiz-adv-x="540" d="M115 1329q0 12 55 68q4 4 21.5 25.5t31 29.5t29.5 8q6 0 20.5 -7t35 -25.5t39 -43t30.5 -65.5t12 -88q0 -86 -28.5 -160t-67.5 -113.5t-73 -61.5t-52 -22q-10 0 -18.5 9.5t-8.5 15.5q0 12 17.5 27.5t40 33t40 56.5t17.5 92q0 55 -22.5 93t-48 52.5t-48 32.5t-22.5 43z " />
<glyph unicode="(" horiz-adv-x="667" d="M150 569q0 182 43 352.5t104 285t128 202.5t115 130t64 42q43 0 43 -43q0 -12 -42 -53t-101.5 -113t-118.5 -172t-101 -267t-42 -366q0 -182 41 -343t99 -264t117.5 -180t100.5 -122t41 -57q0 -18 -14.5 -28.5t-26.5 -10.5q-23 0 -73 49t-114.5 143t-124 213t-99 279.5 t-39.5 322.5z" />
<glyph unicode=")" horiz-adv-x="667" d="M20 -393q0 12 42 53t101.5 111.5t119 171t101.5 267.5t42 365q0 182 -41 343t-99.5 264.5t-117.5 180.5t-100 122t-41 57q0 18 14 28.5t27 10.5q23 0 72.5 -49t114 -143.5t124 -213t99.5 -279.5t40 -323q0 -182 -43 -352t-104.5 -284.5t-128 -202.5t-114.5 -130t-65 -42 q-43 0 -43 45z" />
<glyph unicode="*" horiz-adv-x="882" d="M121 784q0 27 110.5 76t110.5 55q0 8 -110.5 59.5t-110.5 76.5q0 18 19.5 44.5t45.5 26.5q18 0 98.5 -54t88.5 -54q10 0 10 39q0 20 -3 76.5t-3 84.5q0 27 10 35t43 8q49 0 62.5 -12t13.5 -61q0 -18 -4 -65.5t-4 -67.5q0 -37 10 -37t93 55t95 55q25 0 46.5 -25.5 t21.5 -45.5q0 -25 -111.5 -76t-111.5 -59q0 -10 111.5 -59.5t111.5 -74.5q0 -20 -20.5 -45.5t-49.5 -25.5q-18 0 -98 54t-86 54q-10 0 -10 -39q0 -20 3 -62t3 -56q0 -59 -11.5 -72.5t-62.5 -13.5q-55 0 -55 49q0 16 3 69.5t3 77.5q0 47 -10 47q-8 0 -91 -54t-96 -54 q-27 0 -46 26.5t-19 44.5z" />
<glyph unicode="+" horiz-adv-x="1079" d="M63 434q0 16 1.5 23.5t9.5 12.5t26 5h349q45 0 45 39v360q0 14 5 21.5t12 8.5t25.5 1t26.5 -1t15.5 -11t7.5 -29v-334q0 -55 35 -55h362q16 0 23.5 -5t8.5 -12t1 -26q0 -29 -6 -38t-37 -9h-352q-25 0 -30 -8t-5 -29v-358q0 -23 -10.5 -29t-30.5 -6q-33 0 -42 5t-9 32v356 q0 25 -9.5 31t-40.5 6h-346q-18 0 -25 6t-8.5 13t-1.5 30z" />
<glyph unicode="," horiz-adv-x="512" d="M111 111q0 10 6 20t13 17.5t21.5 20.5t22.5 21q6 6 16.5 20.5t18.5 23t21.5 15.5t29.5 7q10 0 41 -24.5t65.5 -88t34.5 -143.5q0 -129 -91 -234.5t-146 -105.5q-31 0 -31 27q0 14 19.5 32.5t44 38t44 57.5t19.5 87q0 41 -18.5 72.5t-33.5 45t-63 48.5q-27 18 -30.5 23.5 t-3.5 19.5z" />
<glyph unicode="-" horiz-adv-x="696" d="M90 297v22q0 59 19.5 76t97.5 39q109 33 192.5 62.5t113.5 41t48 11.5q45 0 45 -70v-12q0 -18 -1 -28.5t-8 -20.5t-12 -14.5t-24.5 -12.5t-35 -12t-51.5 -14.5t-66 -20.5q-58 -18 -114 -38l-82 -30q-26 -10 -48.5 -16t-40.5 -6q-33 0 -33 43z" />
<glyph unicode="." horiz-adv-x="516" d="M111 112.5q0 24.5 63 80.5q8 8 23.5 28.5t31 31.5t31.5 11t84 -80q6 -6 23.5 -21.5t28 -28.5t10.5 -21q0 -10 -10 -21q-12 -12 -32 -28l-30 -25q-8 -8 -23.5 -28.5t-29 -32t-25.5 -11.5q-18 0 -47 36t-35 40q-63 45 -63 69.5z" />
<glyph unicode="/" horiz-adv-x="851" d="M41 -348q0 4 39 117q625 1686 629 1699q8 23 19 30t40 7q43 0 43 -24q0 -16 -29 -90l-622 -1702q-16 -45 -27.5 -54.5t-38.5 -9.5q-53 0 -53 27z" />
<glyph unicode="0" horiz-adv-x="1083" d="M80 434q0 207 137 323.5t324 116.5q190 0 326.5 -115.5t136.5 -336.5q0 -184 -119 -318.5t-330 -134.5q-231 0 -353 137.5t-122 327.5zM195 424q0 -166 108.5 -255t251.5 -89q139 0 239.5 98t100.5 260q0 152 -109.5 242t-253.5 90q-141 0 -239 -89t-98 -257z" />
<glyph unicode="1" horiz-adv-x="696" d="M41 25q0 18 28.5 27t63.5 11.5t66.5 19.5t38.5 52q18 111 18 211v164q0 23 1 57.5t1 46.5q0 127 -27.5 156t-136.5 35q-37 0 -37 31q0 23 43 22q4 0 59.5 -6t178.5 -6q82 0 140.5 5t74.5 5q23 0 35 -10t12 -21q0 -12 -7 -19t-15.5 -9t-23.5 -3t-22 -3q-10 -2 -34.5 -5.5 t-31.5 -5.5t-22.5 -13t-19.5 -30.5t-9 -54.5t-5 -86q0 -12 -1 -45t-1 -59q0 -20 -2.5 -103.5t-2.5 -130.5v-47q0 -53 9 -86q12 -37 72.5 -52.5t115.5 -23.5t55 -31q0 -18 -12 -22t-45 -4q-29 0 -122 5t-140 5t-130 -5t-108 -5q-57 0 -57 33z" />
<glyph unicode="2" horiz-adv-x="958" d="M59 16q0 12 11.5 20.5t46.5 23t65 32.5q229 137 336 272.5t107 243.5q0 88 -69 141.5t-136 53.5q-121 0 -121 -94q0 -23 16.5 -66t16.5 -55q0 -20 -27 -21q-51 0 -97 23.5t-46 50.5q0 25 16.5 59.5t51 74.5t108.5 66.5t172 26.5q121 0 197.5 -57t76.5 -164 q0 -88 -80.5 -192.5t-183.5 -188.5q-125 -102 -125 -118.5t94 -16.5q205 0 291 27q33 10 69 56t44 46q25 0 25 -22q0 -6 -51.5 -103.5t-57.5 -105.5q-32 -35 -43 -37q-8 0 -32.5 2t-108.5 3t-230 1q-133 0 -203.5 -1t-76.5 -1q-56 0 -56 20z" />
<glyph unicode="3" horiz-adv-x="827" d="M80 -279q0 66 37 66q8 0 30.5 -26.5t69.5 -52t115 -25.5q121 0 202.5 99t81.5 210q0 98 -83.5 163.5t-219.5 65.5q-18 0 -40.5 -2t-37 -5t-16.5 -3q-27 0 -26 22q0 10 2 14.5t13 10.5t26.5 13t48 27.5t71.5 47.5q59 43 108.5 110.5t49.5 149.5q0 63 -56.5 113.5 t-131.5 50.5q-66 0 -108 -32.5t-54 -32.5q-23 0 -23 20q0 35 82 89t172 54q104 0 185 -44t81 -146q0 -59 -35.5 -119.5t-77.5 -99.5l-78 -70q-36 -31 -36 -39q0 -2 21.5 -5t60.5 -12t72 -26q147 -74 147 -221q0 -170 -145.5 -337t-331.5 -167q-174 0 -174 74q0 16 -1 41z " />
<glyph unicode="4" horiz-adv-x="1032" d="M20 29q0 20 17.5 42.5t113.5 126.5l504 558q3 6 17 22l24 26q10 11 22.5 23.5t23 19.5t18.5 7q23 0 22 -49q0 -3 -6 -143l-13 -296q-7 -156 -7 -200q0 -29 37 -29q49 0 79.5 7.5t39 16.5t16.5 16t18 7q27 0 27 -26q0 -12 -5 -28.5t-15.5 -40t-14.5 -34.5q-2 -4 -6 -15 t-7 -18.5t-8.5 -15.5t-11.5 -12t-14 -4q-16 0 -57 1t-56 1q-18 0 -23 -8.5t-5 -30.5q0 -31 3 -107.5t3 -109.5q0 -4 1 -22.5t1 -30.5q0 -39 -33 -50q-53 -14 -90 -14q-39 0 -39 29q0 8 3 19t5 30.5t5 89.5t3 180q0 33 -18 33q-25 0 -129.5 -2t-175.5 -2q-45 0 -114 1t-97 1 q-25 0 -34 1t-16.5 8.5t-7.5 21.5zM211 156q0 -25 78 -25h76q23 0 79 -1t82 -1q55 0 73.5 3t18.5 18q6 291 7 407q0 49 -10.5 49t-68 -60.5t-77.5 -84.5q-39 -49 -107 -124l-110 -123q-41 -48 -41 -58z" />
<glyph unicode="5" horiz-adv-x="700" d="M-96 -260q0 57 24 57q16 0 44 -31.5t78 -64.5t122 -33q111 0 194 131t83 289q0 96 -26 154.5t-106 115.5q-45 31 -93 47.5t-76.5 19.5t-48 12t-19.5 32q0 20 8 37.5t38 92.5t67 198q14 49 63 49q4 0 60.5 -2t91.5 -2h10h51q20 0 36.5 1t26 2t16.5 2t11 4t6 4t6 7t7 8 q8 8 17 20.5t14 18.5t11.5 11.5t12.5 5.5q27 0 26 -23q0 -9 -6 -24q-18 -37 -32.5 -71t-20.5 -50l-11 -30q-5 -13 -10.5 -16t-11.5 -5t-20 -2q-326 -2 -332 -21q-31 -72 -31 -92.5t48.5 -33.5t128 -46t133.5 -90q27 -29 57.5 -97.5t30.5 -152.5q0 -174 -95 -332 q-154 -260 -438 -260q-55 0 -117 35q-12 8 -20 56.5t-8 68.5z" />
<glyph unicode="6" horiz-adv-x="1017" d="M90 522q0 233 132 444.5t319 340.5q76 53 165 83.5t136 30.5q31 0 30.5 -26.5t-20.5 -28.5q-90 -12 -153.5 -45t-149.5 -107q-90 -76 -156.5 -188.5t-89 -178t-22.5 -79.5q0 -8 6 -8q2 0 31.5 27.5t88 55t134.5 27.5q178 0 282.5 -120.5t104.5 -323.5q0 -195 -109.5 -331 t-296.5 -136q-166 0 -311 150q-121 126 -121 413zM256 535q0 -139 29.5 -244t77 -160t95.5 -80.5t95 -25.5q90 0 166 84t76 237q0 55 -19.5 125t-56.5 141.5t-106.5 120.5t-157.5 49q-70 0 -158 -63q-14 -12 -19.5 -18.5t-13.5 -48t-8 -117.5z" />
<glyph unicode="7" horiz-adv-x="1026" d="M47 -358q0 31 382 526.5t382 518t-125 22.5h-160q-74 0 -120 -2t-108 -11.5t-98 -34t-44 -61.5q-4 -18 -27 -18q-20 0 -20 16q0 29 17 107.5t17 109.5q2 29 90 29q59 0 189.5 -4t210.5 -4q117 0 190.5 5t93 11t30.5 11t18 5q23 0 22 -22q0 -18 -67 -121l-547 -807 q-35 -51 -61.5 -97t-41 -76t-24.5 -54.5t-14.5 -37.5t-8.5 -22.5t-9 -12.5t-15 -3q-6 0 -42 2t-65 2q-45 0 -45 23z" />
<glyph unicode="8" horiz-adv-x="1024" d="M80 367q0 82 27.5 145t67.5 98t80 57.5t67.5 34t27.5 15.5t-35.5 28.5t-78.5 57.5t-79 98.5t-36 142.5q0 158 105.5 260.5t265.5 102.5q178 0 274 -93t96 -241q0 -68 -19.5 -123t-48 -87t-57 -53.5t-48 -33.5t-19.5 -16q0 -8 43 -35t94 -62.5t94 -110.5t43 -167 q0 -168 -106.5 -299t-313.5 -131q-162 0 -250 51q-92 53 -143 148.5t-51 212.5zM170 369q0 -154 97.5 -252.5t244.5 -98.5q152 0 227.5 91.5t75.5 199.5q0 131 -141.5 251t-208.5 120q-16 0 -45 -5t-74 -25.5t-83 -52.5t-65.5 -91t-27.5 -137zM240 1094q0 -106 137 -198.5 t205 -92.5q51 0 127.5 76.5t76.5 199.5q0 82 -74.5 173t-205.5 91q-100 0 -183 -67t-83 -182z" />
<glyph unicode="9" horiz-adv-x="995" d="M80 387q0 178 114.5 327.5t305.5 149.5q195 0 305 -145.5t110 -362.5q0 -193 -92 -379t-274 -311q-123 -86 -316 -86q-39 0 -38 35q0 29 53 29q123 0 268 123q78 66 131 155.5t53 128.5q0 4 -4 4q-2 0 -25.5 -19.5t-76.5 -39t-129 -19.5q-186 0 -285.5 119t-99.5 291z M223 492q0 -154 92.5 -288t223.5 -134q37 0 69.5 9t71.5 34.5t62.5 84t23.5 144.5q0 201 -97.5 325t-217.5 124q-90 0 -159 -79t-69 -220z" />
<glyph unicode=":" horiz-adv-x="532" d="M121 113q0 16 72 80q6 6 23 26.5t30.5 30.5t32.5 10q4 0 10 -4t13 -12t14.5 -15.5t17.5 -21.5t18 -23q6 -6 23.5 -21.5t28 -28.5t10.5 -21q0 -10 -10 -21q-12 -12 -32 -28l-30 -25q-8 -8 -22.5 -28.5t-27.5 -32t-26 -11.5q-14 0 -28.5 14.5t-29.5 34t-26 27.5 q-61 43 -61 70zM135 688q0 23 62 76q8 8 21 26.5t26.5 29.5t30 11t73.5 -75q4 -6 19.5 -19.5t24.5 -26t9 -24.5q0 -8 -6 -17.5t-13 -15.5l-22 -18q-14 -12 -20 -19q-8 -8 -21.5 -26.5t-25.5 -29.5t-26.5 -11t-28 13t-24.5 32.5t-17 26.5q-8 8 -21.5 19t-21 18.5t-13.5 15.5 t-6 14z" />
<glyph unicode=";" horiz-adv-x="536" d="M121 700q0 20 63 76q8 8 20.5 26.5t26 31t31.5 12.5q16 0 76 -78q6 -6 21.5 -19.5t25.5 -26.5t10 -26q0 -8 -6 -17t-13 -15.5t-21.5 -18.5t-20.5 -18q-8 -6 -22.5 -25.5t-28 -31t-27.5 -11.5t-27.5 13.5t-26 34t-18.5 26.5l-21 19l-21 19q-8 7 -14.5 15t-6.5 14zM125 111 q0 12 8 23t29.5 30.5t28 26t20.5 27t28.5 29.5t34.5 9q4 0 18.5 -9t36 -29.5t41 -49.5t34 -74t14.5 -94q0 -129 -94.5 -236.5t-149.5 -107.5q-6 0 -15 9t-9 22q0 14 19 32.5t43 38t43 57.5t19 87q0 53 -26.5 87t-85.5 79q-35 36 -37 43z" />
<glyph unicode="&#x3c;" horiz-adv-x="1079" d="M84 432q0 12 1 17.5t8 11.5t22 12l740 271q98 36 103 36q39 0 39 -51q0 -25 -32 -33l-625 -227q-86 -31 -86 -43q0 -6 86 -37l635 -229q23 -8 22 -27q0 -16 -12 -32.5t-37 -16.5q-6 0 -835 301q-20 8 -24.5 16t-4.5 31z" />
<glyph unicode="=" horiz-adv-x="1079" d="M63 233q0 16 1.5 23.5t9.5 13.5t26 6h883q16 0 23.5 -5t8.5 -12t1 -26q0 -29 -6 -39t-37 -10h-875q-18 0 -25 6.5t-8.5 13t-1.5 29.5zM63 635q0 16 1.5 23.5t9.5 12.5t26 5h883q16 0 23.5 -5t8.5 -12.5t1 -25.5q0 -29 -6 -38t-37 -9h-875q-18 0 -25 6t-8.5 13t-1.5 30z " />
<glyph unicode="&#x3e;" horiz-adv-x="1079" d="M84 133q0 20 20 27l637 229q86 31 86 37q0 12 -86 43l-626 227q-31 8 -31 33q0 51 37 51q6 0 104 -36l740 -271q33 -12 32 -41q0 -23 -5 -31t-25 -16q-829 -301 -836 -301q-25 0 -36 16.5t-11 32.5z" />
<glyph unicode="?" horiz-adv-x="716" d="M154 1253q0 35 65.5 80t147.5 45q111 0 192.5 -61.5t81.5 -171.5q0 -68 -45 -154t-98.5 -155.5t-98.5 -159.5t-45 -162q0 -23 5.5 -54.5t5.5 -39.5q0 -20 -17 -21q-31 0 -48 57.5t-17 104.5q0 74 94 287t94 274q0 80 -65.5 122t-120.5 42q-37 0 -74 -25.5t-39 -25.5 q-18 0 -18 18zM199 121q0 20 73 84q8 6 24.5 25.5t30 29.5t25.5 10q8 0 24.5 -15t32.5 -36l15 -20l20 -17q20 -16 35 -31.5t15 -23.5q0 -16 -11.5 -28.5t-32 -26t-26.5 -19.5q-8 -8 -23.5 -28.5t-28 -31.5t-24.5 -11t-37.5 22.5t-44.5 44.5q-6 6 -36.5 31t-30.5 41z" />
<glyph unicode="@" horiz-adv-x="1681" d="M90 586q0 197 66.5 352.5t164 244.5t220.5 147.5t222 77.5t185 19q285 0 464 -181t179 -443q0 -223 -140 -381t-327 -158q-66 0 -104.5 25.5t-46.5 56.5t-12.5 56.5t-8.5 25.5t-31.5 -31.5t-64.5 -68.5t-97.5 -69t-123.5 -32q-96 0 -143.5 54.5t-47.5 144.5 q0 117 64.5 250t177.5 228t232 95q39 0 91 -9t56 -9q14 0 38.5 41t47.5 41q16 0 16 -39q0 -8 -24.5 -107.5t-50 -222.5t-25.5 -190v-27q0 -121 84 -121q156 0 256 118t100 339q0 252 -159.5 394.5t-397.5 142.5q-309 0 -523 -206t-214 -536q0 -291 181 -477t472 -186 q129 0 233.5 33.5t158 66.5t55.5 33q23 0 22 -25q0 -12 -22.5 -33.5t-67.5 -47t-103.5 -49t-141 -39t-171.5 -15.5q-328 0 -533.5 190.5t-205.5 526.5zM582 465q0 -61 35.5 -92t91.5 -31q57 0 112.5 35t73.5 63q27 39 51 135q82 309 82 318q0 12 -45 26.5t-82 14.5 q-100 0 -209.5 -132t-109.5 -337z" />
<glyph unicode="A" horiz-adv-x="1662" d="M41 16q0 29 31 39q66 25 115 110t243 508l354 763q14 31 25.5 39t36.5 8q18 0 24.5 -8.5t27.5 -66.5q44 -126 95 -255l227 -535q160 -374 175 -405q35 -70 78 -105.5t74.5 -38.5t53 -10.5t21.5 -31.5q0 -31 -55 -31q-23 0 -88.5 6t-96.5 6q-39 0 -100 -4t-90 -4 q-63 0 -80.5 5t-17.5 24q0 14 16 23t34.5 12.5t35 18.5t16.5 42q0 45 -51 184.5t-86 204.5q-18 35 -84 35q-10 0 -90 -2t-158 -2h-109q-92 0 -115.5 -10.5t-41.5 -49.5q-12 -27 -41 -85t-39 -80l-25 -59q-16 -36 -21 -57.5t-5 -37.5q0 -47 23.5 -71.5t52 -28t52 -11.5 t23.5 -28q0 -14 -6 -21.5t-29 -7.5q-12 0 -70.5 1t-99.5 1q-45 0 -101 -4t-75 -4h-4q-55 0 -55 24zM555 692q0 -27 18.5 -33t85.5 -6h64l195 2q79 0 79 32q0 28 -100 254t-127 226q-18 0 -116.5 -226t-98.5 -249z" />
<glyph unicode="B" horiz-adv-x="1290" d="M41 1421q0 31 18 31q6 0 26.5 -1t55.5 -1q41 0 163 1t136 1q47 0 119 3t107 3q186 0 311 -89t125 -253q0 -59 -21.5 -111.5t-51.5 -85t-59.5 -56t-51 -37t-21.5 -15.5q0 -6 35 -15.5t84 -31t97 -58t83 -109.5t35 -171q0 -88 -51.5 -188.5t-120.5 -147.5 q-90 -63 -168 -84.5t-189 -21.5q-82 0 -217 11t-149 11q-23 0 -81 -4t-95 -4h-29q-43 0 -43 31q0 29 23 28q12 0 26.5 1t20.5 1q18 0 35.5 13.5t36 59.5t20.5 118q6 133 6 639v348q0 14 -5 33.5t-20.5 51.5t-55.5 53.5t-99 21.5q-35 -1 -35 24zM412 188q0 -122 197 -122h3 h47q111 0 177 10q96 16 158.5 100t62.5 201q0 100 -37 173t-84 109.5t-111.5 57t-100.5 24.5t-69 4q-66 0 -107.5 1.5t-53 1.5t-18.5 1t-11 1q-18 0 -26.5 -5.5t-15.5 -39t-8 -97t-1 -190.5v-17v-123q0 -47 -1 -66.5t-1 -23.5zM424 1116q0 -102 1 -159.5t5 -88t8 -39 t13 -8.5q57 -6 104 -6h131q129 0 193.5 67.5t64.5 174.5q0 115 -107.5 222t-306.5 107q-63 0 -84.5 -37.5t-21.5 -172.5v-60z" />
<glyph unicode="C" horiz-adv-x="1652" d="M90 664q0 223 86 401t265.5 287.5t424.5 109.5q125 0 252 -36.5t203 -74.5l76 -38q6 0 20.5 10t22.5 10q10 0 20 -8t10 -25q2 -59 9.5 -125.5t13.5 -109.5t6 -51q0 -37 -24 -37q-18 0 -35 29q-198 372 -572 372h-2q-256 0 -419.5 -163.5t-163.5 -428.5q0 -145 37.5 -272 t114.5 -232.5t212 -167t316 -61.5q295 0 495 307q8 14 31 15q18 0 18 -29q0 -23 -7 -60.5t-17 -83.5t-13 -57q-4 -23 -32 -36q-111 -53 -173.5 -80t-158.5 -48.5t-197 -21.5q-178 0 -321.5 43t-234.5 112.5t-152.5 163t-86 189t-24.5 197.5z" />
<glyph unicode="D" horiz-adv-x="1622" d="M41 1434q0 18 17.5 21t86.5 3h179q51 0 188 4t211 4q141 0 282.5 -43t260 -123.5t192.5 -211t74 -289.5q0 -143 -19.5 -249t-64.5 -182.5t-90 -124.5t-123 -114q-61 -49 -178 -92t-240 -43q-12 0 -208.5 5t-282.5 5q-72 0 -133.5 -5t-71.5 -5q-49 0 -49 26q0 16 7 23.5 t30.5 13.5t33.5 11q33 14 60.5 54t27.5 79q0 115 1 293t1 262q0 74 -1 230.5t-1 289.5q0 35 -33.5 70.5t-74.5 37.5q-29 2 -42 4.5t-26.5 14t-13.5 31.5zM403 289q0 -39 1.5 -63.5t8.5 -45t11 -29t24.5 -18.5t32 -13t48 -13.5t61.5 -16.5q72 -20 149 -20h41q139 0 237.5 40 t188.5 126q152 145 152 471q0 164 -64.5 297t-169 211.5t-225.5 120.5t-244 42h-81q-25 0 -59 -5t-45 -8t-27.5 -20.5t-19.5 -29.5t-8 -48t-5 -63v-86q0 -45 -2 -212t-2 -181q0 -123 -1.5 -266t-1.5 -170z" />
<glyph unicode="E" horiz-adv-x="1236" d="M41 1432q0 28 53 28h4q8 0 26.5 -2t29.5 -2q6 0 192 -5t307 -5q43 0 212 4t198 4q39 0 39 -47q0 -12 -12.5 -81t-12.5 -128q0 -18 -10 -31.5t-23 -13.5q-31 0 -30 43q0 55 -35 100t-86 47q-184 14 -283 15h-53q-106 0 -123.5 -15.5t-21.5 -109.5q-8 -147 -9 -342 q0 -102 39 -105h52h86h63q123 0 164 8.5t74 30.5q39 27 47 76q6 35 28 35q18 0 22.5 -6t4.5 -27q0 -14 -8 -94t-8 -121q0 -39 3 -73.5t3 -51.5q0 -51 -15 -51q-31 0 -45 49q-29 86 -51 101q-42 28 -186 28h-10h-100q-38 0 -49 1t-18 1h-14q-84 0 -84 -39q0 -59 -2 -148 t-2 -147v-82q0 -147 49 -161q51 -16 89 -17q154 0 269.5 14.5t173.5 36t97 47t50.5 47t22.5 36t23 14.5q25 0 25 -35q0 -88 -88 -178t-154 -90q-147 0 -332.5 10t-230.5 10q-57 0 -143 -9t-135 -9q-43 0 -43 20v24q0 7 6 11t13 5t26.5 7.5t42.5 16.5q49 25 64.5 96.5 t15.5 300.5v254q0 55 3 172t3 182q0 55 -4 187q-2 59 -51.5 92t-114.5 35q-33 0 -33 37z" />
<glyph unicode="F" horiz-adv-x="1134" d="M41 1427q0 6 3 12.5t16.5 14.5t33.5 8h56q49 0 158.5 -6t285.5 -6q145 0 258 5t207 5q35 0 35 -49q0 -18 -4.5 -46t-12.5 -74t-12 -89q-4 -41 -31 -41q-29 0 -28 41q0 135 -95 141q-309 25 -368 25q-92 0 -113.5 -22.5t-23.5 -91.5q-1 -11 0 -17q-6 -111 -7 -342 q0 -100 37 -102q10 0 27.5 -1t23.5 -1q14 0 43 1t45 1h64q123 0 163 7t72 29q18 12 28.5 28.5t15 39.5t10.5 33t24.5 10t22.5 -6t4 -27q0 -14 -9 -71.5t-9 -98.5q0 -39 7 -95t7 -73q0 -33 -7 -42t-22 -9q-35 0 -43 51q0 4 -2 18.5t-3 20.5t-5 17.5t-8 17.5t-10.5 13.5 t-16.5 11.5q-29 12 -102.5 20t-96.5 8h-178q-84 0 -84 -39q0 -59 -2 -148t-2 -147q0 -14 -1 -41.5t-1 -39.5q0 -41 8.5 -82t48 -86t107.5 -45q61 0 61 -37q0 -6 -4 -14.5t-19 -16.5t-40 -8q-33 0 -103.5 8t-95.5 8q-57 0 -127.5 -6t-120.5 -6q-41 0 -40 22q0 27 9 33t79 31 q53 18 65 109.5t13 370.5q1 108 1 169q0 55 3.5 173t3.5 183v119q0 135 -97 180q-14 6 -34.5 9.5t-34 3.5t-23.5 7t-10 21z" />
<glyph unicode="G" horiz-adv-x="1675" d="M90 674q0 223 89 401t273.5 288t438.5 110q98 0 184 -15.5t141.5 -36t96.5 -42t62.5 -37t25.5 -15.5q6 0 27.5 15.5t29.5 15.5q31 0 31 -41q2 -59 9 -125t13.5 -109t6.5 -51q0 -35 -25 -35t-35 25q-72 156 -239.5 263.5t-346.5 107.5q-256 0 -422.5 -161t-166.5 -446 q0 -188 69.5 -354t212 -274.5t326.5 -108.5q158 0 286 72t142 164q6 49 6 258q0 80 -35 114q-25 25 -90 33q-62 6 -71 24q-5 8 -5 21q0 23 37 23q27 0 115 -5t113 -5q41 0 88 1t76 1h30q33 0 33 -19q0 -14 -52.5 -36.5t-58.5 -57.5q-14 -88 -14 -229q0 -61 2 -108.5t3 -67 t3 -34t2 -20.5q0 -10 -15.5 -15t-50 -14.5t-63.5 -25.5l-14 -9l-28 -18l-38 -20l-48 -25q-25 -12 -56 -25.5t-63.5 -23.5t-67.5 -18.5t-73 -13.5t-75 -5q-223 0 -388 60.5t-255 164t-133 224.5t-43 260z" />
<glyph unicode="H" horiz-adv-x="1619" d="M41 1432q0 22 52 22h5q20 0 94 -4t138 -4q39 0 74.5 2t105.5 2q45 0 45 -29q0 -35 -72 -35q-41 0 -59 -83.5t-18 -172.5v-75q0 -49 -2.5 -111.5t-2.5 -77.5q0 -51 12.5 -65.5t57.5 -14.5q4 0 80 1t256 1q16 0 55 -1t128 -2t204 -1q23 0 23 285v111q0 80 -17.5 127 t-43.5 61t-51.5 18.5t-43 11.5t-17.5 27.5t80 20.5q20 0 88 -2t111 -2q20 0 69.5 2t90.5 2q47 0 47 -26.5t-29 -26.5q-57 0 -87 -35t-30 -92q0 -68 -3 -239t-3 -259q0 -47 -2 -148.5t-2 -158.5v-76q0 -61 4 -113.5t4 -74.5q0 -133 172 -152q25 0 25 -22q0 -14 -20.5 -18.5 t-79.5 -4.5q-23 0 -75 5t-83 5q-37 0 -89 -5t-104 -5h-35q-10 0 -21 3t-14 8t-3 16q0 12 20.5 22t45 16.5t48 23.5t27.5 44q14 74 14 150q0 20 1 57t1 53q0 37 2.5 121t2.5 131q0 31 -25 43t-105 12q-31 0 -141 -3l-110 -3q-90 0 -203 3t-174 3q-31 0 -41 -12t-10 -63.5 t-4.5 -133t-4.5 -118.5v-88q0 -88 16.5 -131t80.5 -84q16 -10 88 -11q14 0 26.5 -7t12.5 -15q0 -37 -66 -37q-61 0 -101 4t-69 4q-57 0 -122.5 -5t-98.5 -5q-96 0 -96 31q0 18 19.5 25t44 10.5t51 27t36.5 68.5q6 35 16.5 211t10.5 336v116q0 27 1 101.5t1 119.5 q0 156 -12 244q-6 51 -54.5 80t-99.5 29q-20 0 -31.5 13.5t-11.5 21.5z" />
<glyph unicode="I" horiz-adv-x="671" d="M41 1423q0 31 57 31q20 0 94 -4t138 -4q39 0 74.5 2t105.5 2q55 0 55 -29q0 -16 -94 -55q-65 -27 -65 -230v-6q0 -276 -3.5 -488t-3.5 -269q0 -172 52 -248q45 -63 98 -64q4 0 20.5 -1t20.5 -1q14 0 28.5 -7t14.5 -15q0 -23 -11.5 -30t-39.5 -7q-61 0 -113.5 4t-81.5 4 q-57 0 -124.5 -5t-100.5 -5q-92 0 -92 31q0 18 19.5 25t44 10.5t51 27t36.5 68.5q4 14 13.5 232t9.5 315v116q0 27 1 101.5t1 119.5v95q0 90 -8 149q-6 49 -54.5 76t-99.5 29q-43 1 -43 30z" />
<glyph unicode="J" horiz-adv-x="593" d="M-92 -315q0 31 23.5 71.5t39.5 40.5q12 0 44 -34.5t75 -34.5q113 0 141 159q27 139 27 248v85q0 61 -1 114l-1 53q0 41 -1 71.5t-2 65.5t-2 178.5t-1 382.5q0 131 -8 203q-6 49 -54.5 73.5t-101.5 27.5q-45 2 -45 36.5t59 34.5q23 0 94.5 -6t137.5 -6q39 0 67.5 1t98.5 1 q57 0 57 -27q0 -18 -94 -57q-43 -16 -43 -139v-94q0 -340 -1 -556.5t-1 -277.5t-1 -98t-1 -60q0 -233 -126 -383.5t-298 -150.5q-82 0 -82 78z" />
<glyph unicode="K" horiz-adv-x="1482" d="M41 1423q0 27 57 27q20 0 94 -2t138 -2q37 0 67.5 2t108.5 2q35 0 35 -27q0 -8 -10.5 -14t-30 -14.5t-31.5 -14.5q-63 -37 -63 -250q0 -111 -3.5 -213t-3.5 -106q0 -43 19 -43q14 0 163.5 122t297 264t147.5 187q0 12 -6 21.5t-20.5 15.5t-24.5 9.5t-28.5 6.5t-22.5 5 q-23 4 -23 28q0 23 33 23q4 0 21.5 -1t29.5 -1q4 0 48 -2t75 -2l254 6q41 0 41 -27q0 -14 -12.5 -21t-47 -17.5t-59.5 -20.5q-10 -4 -100 -61q-19 -11 -231 -191l-357 -301l-23 -29q0 -10 23 -32l251 -249q284 -282 367.5 -352.5t159.5 -82.5q60 -9 67 -24q2 -5 3 -13 q0 -18 -17.5 -22.5t-101.5 -4.5h-199q-14 0 -21 2t-14.5 6t-18.5 18l-26 30l-48 54q-31 35 -70 74q-434 440 -456 459t-40 19q-29 0 -29 -56v-6q0 -6 1.5 -18.5t1.5 -28.5v-44v-60q0 -268 30 -324q39 -66 137 -66q4 0 8.5 -1t8.5 -1q14 0 28.5 -7t14.5 -15q0 -23 -11.5 -30 t-39.5 -7q-61 0 -113.5 4t-81.5 4q-57 0 -124.5 -5t-100.5 -5q-74 0 -74 22v9q0 14 19.5 19t48 13.5t45.5 24.5q29 29 36 132.5t7 330.5v274q0 27 -2 101.5t-2 119.5v95q0 104 -7 149q-6 49 -52 76t-97 29q-43 1 -43 30z" />
<glyph unicode="L" horiz-adv-x="1234" d="M41 1423q0 37 55 37q8 0 26.5 -2t29.5 -2q20 0 76.5 -4t101.5 -4q63 0 135 4t80 4q35 0 35 -20q0 -29 -25 -38t-54.5 -12.5t-57 -45.5t-31.5 -126q-4 -80 -10.5 -446.5t-6.5 -409.5v-82q0 -147 49 -161q51 -16 88 -17q154 0 270 14.5t174 36t97 47t50.5 47t22.5 36 t23 14.5q25 0 25 -35q0 -88 -88 -178t-154 -90q-147 0 -332.5 10t-230.5 10q-57 0 -132 -8t-124 -8q-59 0 -59 24q0 14 11 23.5t21 9.5q31 0 60 21q37 29 53.5 105.5t16.5 295.5v254q0 55 3 172t3 182q0 55 -4 187q-2 59 -51.5 92t-114.5 35q-20 0 -25.5 7t-5.5 21z" />
<glyph unicode="M" horiz-adv-x="1882" d="M41 1423q0 31 37 31q12 0 56 -4t52 -4q31 0 84.5 2t69.5 2q39 0 49 -29l89 -191l100 -220l98 -209l96 -206l77 -159q40 -80 61.5 -117.5t27.5 -37.5t13 7t14.5 19t12.5 24.5t14 32t14 29.5l264 545l80 166l54 119l36 77l21 50l11 25l5 15q2 5 4 9t7 18.5t10 19.5t20.5 11 t40.5 6q39 0 72.5 -2t103.5 -2q35 0 34 -27q0 -20 -13 -29.5t-54 -15.5q-51 -6 -71.5 -51t-20.5 -172q0 -276 12 -500.5t12 -281.5q0 -205 33 -261.5t137 -56.5q14 0 25.5 -10t11.5 -18q0 -12 -2 -18.5t-8 -10.5t-13 -4h-22q-61 0 -120.5 4t-88.5 4q-57 0 -118.5 -5 t-94.5 -5q-37 0 -37 28q0 18 16.5 26.5t38 10.5t45 25.5t33.5 71.5q8 41 9 131q0 66 -3 158t-8 179l-8 164q-4 76 -7 125l-3 50q0 88 -18 88q-2 0 -6.5 -2.5t-7.5 -6.5t-7 -8t-8 -13t-8 -15l-11 -18q-6 -11 -10 -20l-11 -22q-7 -14 -11 -24l-285 -576l-104 -215 q-38 -78 -46 -91t-20 -13q-18 0 -30.5 17t-37 76.5t-43.5 98.5q-374 761 -385 776q-6 8 -12 8q-16 0 -16 -81q-2 -160 -10.5 -315.5t-8.5 -225.5v-92q0 -53 3 -82t16.5 -67t48.5 -58.5t90 -26.5q10 0 19.5 -7t9.5 -15q0 -23 -6.5 -30t-24.5 -7q-39 0 -121 4t-92 4 q-4 0 -59.5 -3t-108.5 -3q-16 0 -23.5 2t-13.5 9t-6 22q0 16 18.5 22t42 7t52 33t43.5 93q10 45 24.5 356.5t14.5 460.5q0 205 -40 283t-173 109q-27 5 -27 30z" />
<glyph unicode="N" horiz-adv-x="1634" d="M41 1415q0 12 14.5 23.5t36.5 11.5q12 0 41 -1t37 -1q31 0 57.5 2t42.5 2q18 0 43 -11t29 -24q4 -6 22 -27l50 -57q30 -35 55 -67q279 -362 745 -875q12 -14 30 -32.5t25 -27.5t15 -17.5t13.5 -11.5t9.5 -3q20 0 20 127v240q0 137 -1 231t-2 136t-1 52v15q0 70 -9 119 t-21.5 75.5t-36 45t-40 23.5t-47 11t-43.5 10q-41 12 -41 35q0 31 39 31q12 0 98.5 -1t96.5 -1q49 0 109.5 2t74.5 2q35 0 48.5 -7t13.5 -28q0 -8 -11.5 -15t-23.5 -12.5t-25 -9.5l-12 -4q-68 -37 -68 -231v-78q0 -156 -11 -540t-11 -474v-41q0 -47 -29 -47q-18 0 -33 15 l-812 936q-132 149 -146 149q-20 0 -21 -139q0 -195 -8 -419t-8 -245q0 -92 32 -140t68.5 -54.5t68.5 -13.5t32 -27q0 -23 -7.5 -29t-25.5 -6q-14 0 -64.5 2t-154.5 2q-18 0 -75.5 -2t-98.5 -2q-45 0 -45 33q0 18 26.5 23t65.5 31.5t59 100.5q12 47 30.5 381t18.5 461 q0 176 -49 263t-159 99q-27 2 -27 31z" />
<glyph unicode="O" horiz-adv-x="1746" d="M90 694q0 344 207 564.5t586 220.5q176 0 317 -51.5t223 -126t137.5 -171t76 -177.5t20.5 -150q0 -279 -108.5 -470.5t-286 -278.5t-408.5 -87q-244 0 -421 106.5t-260 268.5t-83 352zM270 799q0 -82 22.5 -177.5t74 -196.5t124 -182t184 -133.5t245.5 -52.5 q70 0 146.5 21.5t152 66.5t135 109.5t97.5 158t38 201.5q0 371 -194.5 577t-481.5 206q-225 0 -384 -151.5t-159 -446.5z" />
<glyph unicode="P" horiz-adv-x="1155" d="M41 1421q0 33 47 33q6 0 22.5 1t53.5 1q10 0 56 -3t67 -3q45 0 174 3t164 3q193 0 332 -97t139 -280q0 -100 -37 -179t-89 -124t-117 -74.5t-115 -39t-89 -9.5q-66 0 -133 15.5t-67 31.5q0 31 26 31q12 0 43 -8t62 -8q47 0 100 13t110.5 43t94.5 90.5t37 139.5 q0 137 -111 255t-305 118q-63 0 -86 -38t-23 -171q0 -426 -2 -486.5t-2 -359.5q0 -180 84 -235q23 -14 56.5 -18.5t56 -3.5t40 -8t17.5 -34q0 -35 -46 -35l-1 1q-47 0 -166 5t-127 5q-20 0 -80.5 -4t-109.5 -4q-63 0 -64 22q0 12 3 20.5t6.5 13.5t13.5 9t14 6t19.5 5.5 t21.5 5.5q4 2 12.5 3t11.5 2t10 6t11 14t11.5 24.5t15.5 40.5q14 39 22 307t8 416q0 127 -1 234.5t-1 113.5q0 55 -34.5 109.5t-114.5 54.5q-41 -1 -41 26z" />
<glyph unicode="Q" horiz-adv-x="1718" d="M92 694q0 350 193.5 567.5t599.5 217.5q170 0 306 -55.5t215 -136.5t132 -184.5t71.5 -189.5t18.5 -161q0 -145 -49 -292t-152.5 -264.5t-236.5 -154.5q-145 -41 -146 -47q0 -23 39 -39q8 -4 59 -27l68 -30l70 -32q51 -22 78 -32l76 -28q47 -19 78 -28l71 -20 q39 -10 71 -14t58 -4q59 0 94 17.5t54.5 33.5t42.5 16q6 0 13 -9t7 -15q0 -72 -110.5 -126t-245.5 -54q-129 0 -363.5 104.5t-440.5 208.5t-267 104q-94 0 -139.5 -65.5t-45.5 -151.5v-36q0 -53 -37 -54q-20 0 -34.5 27t-14.5 59q0 90 41 170t90 115q45 33 45 37q0 8 -45 39 q-264 190 -264 534zM279 799q0 -279 151 -488q80 -113 228.5 -183.5t259.5 -70.5q143 0 294 78q86 45 171 177t85 302q0 330 -190.5 556.5t-462.5 226.5q-225 0 -380.5 -151.5t-155.5 -446.5z" />
<glyph unicode="R" horiz-adv-x="1470" d="M41 1425q0 33 59 33h340q47 0 108.5 3t96.5 3q184 0 315.5 -93t131.5 -251q0 -104 -40 -183t-88.5 -114t-88 -60.5t-39.5 -33.5q0 -25 172 -265.5t235 -307.5q78 -96 189 -97q29 0 28 -24q0 -31 -24.5 -41t-126.5 -10q-96 0 -176 47q-102 59 -347 459q-13 22 -20 32 q-98 160 -152 160h-43h-125q-25 0 -29.5 -20.5t-4.5 -124.5v-162q0 -64 1 -81.5t1 -28.5v-17q0 -84 39 -130t87 -53.5t87 -16.5t39 -30q0 -33 -37 -32q-2 0 -141.5 7t-151.5 7q-59 0 -141 -4t-84 -4q-43 0 -43 33q0 23 26.5 32t59 13t59.5 45t27 116q0 53 1 287t1 359 q0 127 -1 232t-1 114q0 76 -31 115.5t-69 45t-68.5 13.5t-30.5 28zM412 1098q0 -211 2 -261.5t14 -58.5q31 -18 88 -18h21h59q174 0 249 80t75 204q0 127 -99.5 231.5t-300.5 104.5q-76 0 -92 -40t-16 -185v-57z" />
<glyph unicode="S" horiz-adv-x="1220" d="M121 383q0 43 29 43q27 0 32 -20q20 -49 38 -85t56.5 -88.5t84 -86t116 -58.5t154.5 -25q154 0 247 81t93 212q0 96 -63.5 161t-145.5 92.5t-208 73.5t-206 93q-186 111 -186 301q0 182 132 292t343 110q78 0 185.5 -34t109.5 -34q6 0 22.5 8t24.5 8q27 0 31 -16 q43 -248 43 -278q0 -57 -29 -58q-18 0 -29 29q-25 59 -48 96t-33 47l-54 49q-111 98 -268 99q-127 0 -213 -61.5t-86 -166.5q0 -92 50 -151.5t134 -92t176 -61t195.5 -80t171.5 -123.5q82 -88 82 -219q0 -215 -137.5 -341t-339.5 -126q-141 0 -227.5 15.5t-176.5 62.5 q-27 16 -63.5 159.5t-36.5 172.5z" />
<glyph unicode="T" horiz-adv-x="1439" d="M41 1188q0 82 20 211q0 4 1 14t2.5 13.5t2.5 10.5t3 10t5 8t7 7t10 4t14.5 3t18.5 1q33 0 173 -8t404 -8q451 0 631 10q2 0 7.5 1t7.5 1q23 0 30.5 -12t7.5 -22q0 -14 6.5 -86t6.5 -80q0 -51 -6.5 -64.5t-26.5 -13.5q-16 0 -23 24q-16 59 -28 81t-53 38.5t-125 16.5h-267 q-49 0 -60 -19.5t-11 -111.5v-101q0 -274 -3 -483t-3 -266q0 -29 -1 -73t-1 -61q0 -88 28 -116q27 -25 59.5 -38t56 -15.5t40 -10.5t16.5 -26q0 -23 -10 -29t-39 -6q-25 0 -108.5 8t-118.5 8q-25 0 -99.5 -7t-109.5 -7q-76 0 -76 33q0 20 12.5 27t48 12.5t46.5 7.5 q70 16 77 82q20 180 21 774l-2 366q0 39 -22.5 48.5t-133.5 9.5q-143 0 -216 -8.5t-85 -15.5t-29 -27q-18 -25 -29.5 -54.5t-14.5 -49t-12 -33t-28 -13.5q-22 0 -22 35z" />
<glyph unicode="U" horiz-adv-x="1669" d="M41 1427q0 10 2 14.5t12.5 8.5t33 4t94 -4t136.5 -4q41 0 75 2t118 2q43 0 43 -29q0 -18 -14.5 -22t-36 -6t-43 -14.5t-35.5 -60.5t-14 -130v-58q0 -96 -1 -242.5t-1 -199.5q0 -63 1 -96t5 -95.5t11 -98.5t23.5 -88t40 -82.5t59.5 -67.5t83 -56.5t110.5 -33t141.5 -13.5 q66 0 102.5 2t101 13.5t102.5 33t86 65.5t74.5 107.5t45 162t18.5 223.5q0 207 -1 315t-1 119q0 72 -3 112.5t-20.5 90t-50.5 71.5q-20 14 -53 19.5t-53.5 8.5t-20.5 17q0 33 41 33q12 0 80 -2t78 -2q49 0 104.5 3t69.5 3q43 0 43 -27q0 -16 -44 -41.5t-54 -46.5 q-23 -43 -23 -135q0 -14 1 -58t1 -79q0 -393 -32.5 -602t-99 -304.5t-199.5 -152.5q-109 -45 -293 -45q-342 0 -486 131q-113 104 -139.5 250.5t-26.5 505.5v35q0 80 2.5 176t2.5 119q0 113 -27 154.5t-125 56.5q-45 5 -45 38z" />
<glyph unicode="V" horiz-adv-x="1652" d="M41 1425q0 29 57 29q12 0 80 -4t146 -4q18 0 64 2t69 2q47 0 57 -4t10 -19q0 -12 -20.5 -22t-42 -27.5t-21.5 -46.5q0 -27 7.5 -54.5t32.5 -84.5l50 -114l84 -186l113 -253q172 -395 205 -395q10 0 117.5 247.5t212 518t104.5 319.5q0 33 -23.5 50.5t-50 20.5t-50 10 t-23.5 24q0 14 7 17t36 3q6 0 47 -1t82 -1q37 0 83 2t99 2q39 0 39 -29q0 -14 -13.5 -24t-32 -18.5t-43 -35t-42.5 -69.5l-457 -1040l-95 -225q-23 -56 -29.5 -66t-16.5 -10q-37 0 -92 141q-53 133 -211 475l-142 313l-91 212l-51 120q-24 53 -36 75.5t-29 41.5 q-35 39 -72.5 55.5t-61 15t-40 5.5t-16.5 32z" />
<glyph unicode="W" horiz-adv-x="2273" d="M41 1423q0 29 55 29q10 0 78 -3t148 -3q57 0 114.5 3t61.5 3q18 0 23 -5t5 -20q0 -12 -44 -34.5t-44 -61.5q0 -18 8.5 -44.5t33.5 -84.5l52 -118l84 -190l113 -255l42 -97l45 -106l38 -87q20 -46 33.5 -68.5t19.5 -22.5q8 0 65.5 127t102.5 240q8 18 19.5 40.5t16.5 38 t5 31.5q0 25 -123 300.5t-157 314.5q-8 10 -16 16l-16 11q-7 5 -12.5 8.5t-13.5 4.5t-11 1t-12.5 1t-11.5 1q-41 4 -58 8t-20 9t-3 15q0 29 59 29q12 0 79.5 -4t145.5 -4q4 0 55.5 4t79.5 4q61 0 62 -16q0 -12 -22.5 -24.5t-44 -32t-21.5 -48.5q0 -39 63 -182 q4 -8 27.5 -67.5t42 -99.5t26.5 -40q16 0 82 179.5t66 211.5q0 37 -31 52.5t-61.5 22.5t-30.5 24q0 23 45 22q12 0 61.5 -2t69.5 -2h35q29 0 109 6h18q27 0 27 -20.5t-39 -32.5t-54 -27q-33 -33 -57 -94l-103 -244q-61 -143 -71 -171.5t-10 -51.5q0 -16 125 -294.5 t147 -278.5q25 0 239 517t214 568q0 33 -23.5 50.5t-52.5 20.5t-52.5 10t-23.5 24q0 14 6 17t33 3q6 0 47 -1t82 -1q37 0 83 2t99 2q41 0 41 -29q0 -14 -11 -22t-33.5 -20.5t-39.5 -28.5q-10 -10 -17 -20.5t-15.5 -26t-13.5 -25.5t-16 -36l-17 -40l-352 -791 q-156 -354 -185 -413t-45 -59q-10 0 -24.5 25.5t-40.5 85.5l-29 71l-54 125l-57 135l-49 113q-25 57 -41 86.5t-23 29.5q-20 0 -138 -282.5t-126 -315.5q-2 -8 -5 -16t-5 -14l-4 -12q-2 -7 -4 -11t-3 -8t-3 -7t-4 -5t-4.5 -3t-4.5 -2t-6 -1q-18 0 -44.5 58t-96.5 229 l-141 329q-119 260 -252 588q-39 98 -84 154.5t-80 70.5t-63.5 16t-45 8t-16.5 31z" />
<glyph unicode="X" horiz-adv-x="1538" d="M41 1436q0 16 14.5 21t71.5 5q39 0 78 -4t104 -4q12 0 109.5 2t105.5 2q45 0 45 -18.5t-14 -26.5t-31.5 -9t-32 -11.5t-14.5 -32.5q0 -39 111 -199q167 -253 186 -272q12 -12 19 -12q16 0 47 45l59 85l73 104l66 96q33 50 52.5 85t19.5 49q0 33 -17.5 48.5t-37 17.5 t-37 9t-17.5 26q0 20 31 20q45 0 88 -4t78 -4q115 0 150.5 4t42.5 4q33 0 32.5 -20.5t-19.5 -27.5l-58 -22q-41 -14 -76 -38q-39 -27 -109 -121q-317 -426 -317 -430q0 -14 73 -119l185 -264q188 -274 266 -338q6 -6 40 -12.5t61.5 -16.5t27.5 -26q0 -10 -3 -15.5 t-18.5 -9.5t-43.5 -4q-39 0 -126 7t-94 7q-59 0 -105 -3t-70.5 -6t-32.5 -3q-27 0 -27 27q0 25 52 37t52 51q0 14 -13 40.5t-44 76.5l-62 95l-92 134l-108 160q-20 35 -35 34q-4 0 -43 -63q-45 -72 -130 -185.5t-128 -183t-43 -110.5q0 -55 111 -56q25 0 24 -34 q0 -23 -63 -23q-20 0 -97 3t-84 3q-18 0 -79.5 -4t-84 -4t-32.5 2t-18.5 10t-8.5 26.5t18.5 21.5t56.5 11.5t71 34.5q20 16 43.5 39t49.5 55l46 56l51 66l47 64l48 70l46 64l74 100l60 80q18 25 18 31t-8 19.5t-31 45.5l-51 69l-80 112l-109 153q-164 242 -278 267 q-4 0 -22.5 3t-29 6t-20.5 11.5t-10 20.5z" />
<glyph unicode="Y" horiz-adv-x="1458" d="M41 1409q0 23 23.5 29t103.5 6q12 0 56 -2t63 -2q23 0 83 1t91 1q102 0 102 -25q0 -23 -43 -38t-43 -33q0 -20 13.5 -53t26.5 -53l40 -61l31 -46q70 -111 144.5 -211.5t84.5 -100.5q12 0 30.5 23.5t51.5 79t55 88.5q6 10 30 45l33 49l27 44q19 30 27 45l19 37 q12 21 16 35.5t4 26.5q0 66 -70 82q-8 2 -23.5 4t-22.5 4t-17 6.5t-14.5 11.5t-4.5 17q0 25 58 25q10 0 37.5 -1t46.5 -1q47 0 113.5 -1t103.5 -1q100 0 100 -31q0 -8 -12 -14l-35 -17q-22 -10 -41 -24q-84 -66 -246.5 -311.5t-185.5 -274.5q-33 -41 -41 -90t-8 -168 q0 -27 1 -114t1 -124v-49q0 -68 23.5 -106.5t44 -46t40.5 -7.5q4 0 20.5 -1t20.5 -1q14 0 22.5 -9t8.5 -19q0 -20 -10 -26.5t-39 -6.5q-10 0 -89 1t-116 1q-72 0 -131 -4t-94 -4q-57 0 -57 22q0 18 11 25.5t37.5 9.5t39.5 6q86 27 86 125q0 12 1 40t2 118t1 258 q0 33 -5 56.5t-12.5 46t-34.5 65.5l-54 83l-92 134l-124 184q-63 96 -114.5 146.5t-79 59.5t-64.5 9q-51 0 -51 27z" />
<glyph unicode="Z" horiz-adv-x="1153" d="M41 29q0 10 17 37l59 88q41 61 80 131q57 102 217 365l276 456q115 194 115 217t-88 23q-72 0 -375 -9q-66 -2 -114 -32.5t-68 -66.5l-35 -66q-16 -29 -27 -29q-27 0 -26 33q0 41 8 81.5t8 53.5q0 10 10 96q2 27 14.5 35t43.5 8q12 0 68.5 -2t156.5 -3t217 -1 q129 0 208 1t161 1q88 0 88 -31q0 -27 -376 -645t-376 -639q0 -27 56.5 -34t181.5 -7q207 0 299 11.5t166 52.5q25 14 42 32.5t27 28.5t21 10q16 0 16 -22q0 -37 -63 -140q-4 -6 -10.5 -17t-9.5 -15l-9 -13q-6 -8 -13.5 -11t-18.5 -5t-25 -2q-115 0 -204 -1t-171 -1 q-309 0 -388 -1t-118 -1q-41 0 -41 33z" />
<glyph unicode="[" horiz-adv-x="587" d="M160 -168q0 154 6 638t6 697v168q0 78 -1 122t-1 54q0 33 20.5 42.5t79.5 9.5h88q47 0 78 1t42 1h16q14 0 23 -13.5t9 -29.5q0 -41 -24 -41q-23 0 -103 -1t-86 -1h-32q-16 0 -17 -17q0 -10 1 -50t2 -111.5t1 -155.5q0 -162 -5 -562.5t-5 -551.5q0 -199 2 -301 q0 -55 25 -56q20 0 99 1t85 1q29 0 39 -9t10 -36q0 -33 -21.5 -41t-84.5 -8h-185q-45 0 -56 20.5t-11 104.5v125z" />
<glyph unicode="\" horiz-adv-x="851" d="M41 1481q0 25 43 24q29 0 40 -7t19 -30l629 -1699l16 -43l17 -44q6 -16 6 -24q0 -33 -68 -33q-16 0 -25 11.5t-26 52.5l-622 1702q-29 74 -29 90z" />
<glyph unicode="]" horiz-adv-x="587" d="M59 -377q0 43 27 43h188h33q14 0 15 19q0 10 -2 50q-1 39 -1 111v156q0 162 4.5 562.5t4.5 551.5q0 197 -2 299q0 55 -25 55h-184q-29 0 -39 8.5t-10 34.5q0 47 34 48q205 4 256 4q45 0 56.5 -20.5t11.5 -104.5v-125q0 -154 -5 -638t-5 -697q0 -90 1 -168t1 -122v-55 q0 -33 -20.5 -43t-80.5 -10h-88h-135q-14 0 -24.5 12.5t-10.5 28.5z" />
<glyph unicode="^" horiz-adv-x="681" d="M59 678q0 10 27 51l74 125q86 145 112.5 179t59.5 34q35 0 60.5 -34t108.5 -174l77 -130q23 -33 22 -55q0 -16 -37 -17h-31q-10 0 -18 3.5t-14 12.5t-10.5 15t-10.5 18.5t-8 18.5l-29 53l-23 46t-20.5 37.5t-17.5 31.5t-13.5 24.5t-12.5 18.5t-9 12t-7 8t-7 2t-9.5 -4 t-11.5 -13l-13 -21q-6 -12 -18 -32l-23 -42l-29 -56l-35 -65q-2 -4 -8.5 -15.5t-8.5 -15.5t-8 -13t-11 -12t-12.5 -6.5t-15.5 -3.5h-29q-41 1 -41 19z" />
<glyph unicode="_" horiz-adv-x="436" d="M0 -78q0 16 2 23.5t10 13.5t27 6h364q16 0 23.5 -5t8.5 -12t1 -26q0 -29 -6 -39t-37 -10h-356q-25 0 -31 10t-6 39z" />
<glyph unicode="`" horiz-adv-x="899" d="M223 1303q0 27 43 40t66 13q25 0 41 -39q29 -70 57 -127q26 -57 44 -86l30 -50l18 -30q6 -10 6 -18q0 -23 -24 -23q-20 0 -80 64q-201 211 -201 256z" />
<glyph unicode="a" horiz-adv-x="944" d="M98 174q0 74 31 124t93.5 77.5t130 44t164.5 32.5q34 5 52 9q14 2 19.5 4t10.5 9t5 20q0 23 2 57.5t2 48.5q0 117 -67.5 169t-130.5 52q-147 0 -148 -123q0 -16 4 -40.5t4 -32.5q0 -41 -37 -41q-12 0 -30.5 3t-42 10t-39 24.5t-15.5 42.5q0 80 108 152.5t237 72.5 q88 0 149.5 -20.5t91 -46t46 -67.5t18.5 -65.5t2 -58.5q0 -147 -5 -232.5t-5 -148.5q0 -76 16 -120t38.5 -56.5t45 -14.5t39 -8t16.5 -24q0 -43 -129 -43q-53 0 -91 28.5t-54.5 56t-18.5 27.5t-16 -13t-40 -31.5t-57.5 -37t-73.5 -32t-83 -13.5q-131 0 -190 62 q-52 51 -52 143zM258 205q0 -70 41 -112t117 -42q53 0 91 16.5t56.5 37t28.5 54.5t11 52t1 49v148q0 18 -14 18q-4 0 -10.5 -2t-10.5 -2l-59 -10q-12 -2 -57 -12.5t-62.5 -18.5t-49.5 -25.5t-45 -37t-25.5 -49t-12.5 -64.5z" />
<glyph unicode="b" horiz-adv-x="1120" d="M25 1415q0 18 20.5 32.5t65.5 30t47 15.5q14 6 46 21.5t54.5 24.5t30.5 9q10 0 20 -10t10 -27v-41q0 -24 -1 -64t-1 -186v-378q0 -74 15 -74q8 0 24.5 21.5t40 47t91 47t167.5 21.5q182 0 283.5 -127t101.5 -297q0 -96 -50 -222t-136 -191q-119 -90 -285 -91 q-84 0 -155.5 30t-107.5 59.5t-38 29.5q-8 0 -39.5 -65.5t-60.5 -65.5q-25 0 -25 27q0 29 4.5 97.5t4.5 70.5q0 68 9 241.5t9 298.5v506q0 186 -92 187h-21q-32 -1 -32 22zM317 270q0 -55 81 -137t218 -82q141 0 216 95.5t75 232.5q0 162 -97 289t-263 127q-96 0 -164 -58 q-66 -53 -66 -96v-371z" />
<glyph unicode="c" horiz-adv-x="925" d="M80 393q0 197 132 341.5t343 144.5q72 0 155 -20.5t85 -47.5q4 -49 4 -96q0 -90 -23 -90q-12 0 -21.5 9t-20.5 27.5t-25 28.5q-45 39 -122 74t-151 35q-14 0 -36.5 -7.5t-52.5 -31t-54.5 -59t-42 -99t-17.5 -143.5q0 -160 101.5 -278t249.5 -118q72 0 133 27t95 53.5 t42 26.5q23 0 23 -20q0 -6 -13.5 -27t-43 -49.5t-70.5 -54t-106.5 -44t-139.5 -18.5q-193 0 -308.5 116.5t-115.5 319.5z" />
<glyph unicode="d" horiz-adv-x="1157" d="M80 399q0 199 132 348.5t366 149.5q53 0 140 -29.5t93 -29.5q10 0 10 73q0 156 2 204t2 61q0 66 -2 96.5t-11 67t-32.5 51t-62.5 14.5h-23q-31 0 -37 2t-6 14v2q0 14 20.5 21.5t83 27t128.5 50.5q6 2 24.5 11t31.5 14t24 5q25 0 24 -41q0 -6 -13 -174t-13 -270 q0 -211 -2.5 -456.5t-2.5 -291.5q0 -139 13.5 -186t58.5 -61q6 -2 35 -7.5t41 -12.5t12 -23q0 -25 -158 -37q-33 -2 -75.5 -11.5t-53.5 -9.5q-23 0 -22 23q0 6 -3 30.5t-3 45.5q0 35 -19 34q-6 0 -30 -20l-54 -46q-30 -26 -88.5 -46.5t-126.5 -20.5q-190 0 -296.5 126 t-106.5 302zM227 496q0 -156 95.5 -287t244.5 -131q92 0 168 47t76 115v114q0 52 1 83.5t1 56.5v40v22v14v8v12q0 125 -57 158q-152 90 -244 90q-133 0 -209 -97.5t-76 -244.5z" />
<glyph unicode="e" horiz-adv-x="954" d="M80 397q0 205 115.5 346.5t300.5 141.5q86 0 156.5 -31t109.5 -75t65.5 -93t35.5 -81t9 -46q0 -37 -84 -37h-464h-62q-16 0 -19 -3t-3 -19q0 -193 103 -303.5t243 -110.5q86 0 175 46t93 46q20 0 20 -18q0 -8 -14 -29.5t-45 -50.5t-72 -55.5t-102 -45t-129 -18.5 q-180 0 -306 110.5t-126 325.5zM252 600q0 -29 27 -29q55 0 202.5 6.5t157.5 6.5q29 0 36 5t7 19q0 61 -57.5 143.5t-163.5 82.5q-98 0 -153.5 -81t-55.5 -153z" />
<glyph unicode="f" horiz-adv-x="706" d="M59 788q0 37 17.5 49.5t68.5 12.5h43q25 0 31 11t6 36q0 150 49.5 275.5t122 200.5t146 116t133.5 41q47 0 76.5 -15.5t29.5 -41.5q0 -8 -12 -58q-2 -6 -4 -14t-4 -13l-4 -12q-2 -6 -4 -9t-5.5 -7t-6.5 -6t-8 -3t-11 -1q-8 0 -18.5 13t-40 26.5t-86.5 13.5 q-61 0 -105.5 -43t-67 -116t-33 -147.5t-10.5 -158.5v-51q0 -39 25 -39q111 0 197 16q10 2 23.5 11.5t19.5 9.5q10 0 10 -17q0 -27 -29 -77q-12 -18 -51 -19q-45 0 -68.5 -1t-91.5 -1q-33 0 -32 -20v-119q0 -16 2 -96t5 -178.5t3 -131.5q0 -35 1 -50t8 -47t19.5 -47 t38 -28.5t62.5 -13.5q35 0 35 -31q0 -20 -23 -20q-2 0 -43 3t-91 5t-71 2q-37 0 -73.5 -5t-77.5 -5q-31 0 -31 28q0 10 25.5 20.5t50 38t24.5 83.5q0 14 -2 80.5t-4 196.5t-2 300q0 23 -7 28t-28 5q-10 0 -36.5 -3t-45.5 -3q-45 -1 -45 26z" />
<glyph unicode="g" horiz-adv-x="999" d="M80 -199q0 55 37 93t73.5 56.5t36.5 24.5q0 4 -10 12.5t-23.5 18.5t-23.5 35t-10 55q0 61 26.5 106.5t53 68t26.5 28.5q0 8 -22 27l-48 42q-26 23 -47.5 77.5t-21.5 127.5q0 47 15.5 95.5t51 100.5t110.5 85t177 33q80 0 137.5 -20.5t85 -41t35.5 -20.5q16 0 105 37 q29 12 43 55t31 43q27 0 26 -16q0 -49 -14.5 -105.5t-30.5 -81.5q-25 -39 -84 -63q23 -61 23 -103q0 -131 -98.5 -221t-239.5 -90q-53 0 -101.5 9.5t-56.5 9.5q-10 0 -26.5 -4.5t-41 -29t-24.5 -67.5q0 -70 63.5 -88t210.5 -18h94q297 0 297 -181q0 -63 -14 -96 q-39 -100 -159.5 -159.5t-280.5 -59.5q-92 0 -172 17.5t-144.5 70.5t-64.5 137zM199 -186q0 -90 75.5 -136.5t186.5 -46.5q127 0 228.5 52.5t101.5 134.5q0 37 -16.5 59.5t-55.5 31.5t-68.5 11t-87.5 2h-18q-66 0 -159 15l-93 14q-20 0 -57 -41t-37 -96zM283 594 q0 -123 58 -205t146 -82q92 0 141.5 71t49.5 173q0 115 -57.5 203t-155.5 88q-76 0 -129 -64.5t-53 -183.5z" />
<glyph unicode="h" horiz-adv-x="1202" d="M41 1427q0 16 21.5 27.5t61.5 22t58 18.5q129 57 148 57q27 0 26 -47q0 -10 -7 -49t-7 -78q-2 -184 -5 -312t-5 -172t-3 -72.5t-1 -45.5q0 -39 16 -39q4 0 42 38t104.5 76t142.5 38q166 0 258 -98.5t92 -305.5v-297q0 -20 4 -43.5t20.5 -48t43.5 -26.5q111 -10 111 -43 t-64 -33q-10 0 -79 5t-93 5q-18 0 -85 -3t-73 -3q-47 0 -47 20q0 23 17.5 30t38 7t37.5 22.5t17 69.5q0 8 1.5 20.5t1.5 34t1 95.5t1 190q0 125 -76 216.5t-178 91.5q-96 0 -199 -80q-37 -29 -47 -93.5t-10 -285.5v-47q0 -92 15 -148.5t67 -79.5q16 -6 44.5 -8t44 -7 t15.5 -21q0 -25 -23 -25l-106 5q-106 5 -113 5q-14 0 -71.5 -5t-73.5 -5q-27 0 -40 3t-14 6t-1 11q0 20 24 27q59 16 76.5 52t17.5 106l9 698v101q0 279 -12.5 340t-73.5 61q-18 0 -27 1l-8 1q-35 0 -35 20z" />
<glyph unicode="i" horiz-adv-x="581" d="M74 780q0 10 5 16.5t20.5 13.5t31.5 12t48 16.5t61 23.5l42 18l25 12t14.5 5t20.5 2q31 0 31 -39q0 -10 -6.5 -45t-6.5 -53v-561q0 -61 19.5 -96t41 -43.5t54.5 -10.5q25 -2 33 -3t18.5 -7t10.5 -21q0 -34 -33 -34h-2q-4 0 -14.5 1t-16.5 1q-45 0 -75.5 2t-69.5 2 q-49 0 -92.5 -2t-53.5 -2q-82 0 -82 26q0 29 31 39q51 17 62 36q21 36 22 275v58v180q0 59 -14.5 94t-26.5 43.5t-42 13.5t-36 7q-20 8 -20 20zM190 1208q0 25 36 69t67 44q33 0 63.5 -42t30.5 -75t-39 -72.5t-57 -39.5q-41 0 -71 42.5t-30 73.5z" />
<glyph unicode="j" horiz-adv-x="575" d="M47 -281q0 59 45 60q23 0 64 -44t55 -44q27 0 37 68.5t10 260.5v623q0 25 -3 40t-12.5 36.5t-37 33t-68.5 11.5q-33 0 -33 20q0 12 18 18l66 20q48 14 97 36q90 43 96 43q25 0 25 -47v-23q0 -16 -2.5 -51t-2.5 -45v-663q0 -113 -20.5 -213.5t-85 -184.5t-164.5 -84 q-80 0 -80 56q0 10 -2 36.5t-2 36.5zM238 1210.5q0 28.5 31.5 66.5t64.5 38q35 0 66.5 -36t31.5 -68.5t-36 -70.5t-54 -38q-41 0 -72.5 40t-31.5 68.5z" />
<glyph unicode="k" horiz-adv-x="1116" d="M0 1411.5q0 22.5 100 52.5q14 4 34 10.5t24 7.5t15 5t12 5t10.5 5t13.5 7t16.5 10.5t24.5 15.5q41 26 65 26h2q29 0 29 -38q0 -4 -2 -23.5t-5 -57.5t-5 -92.5t-4 -145.5t-2 -200q0 -70 -3 -210t-3 -209v-43q0 -86 8 -86q12 0 21 6t22.5 20.5t21.5 20.5q287 229 287 260 q0 27 -46 45t-46 35q0 20 24 20q4 0 16.5 -1t20.5 -1q90 2 185.5 6t115.5 4q53 0 54 -18q0 -14 -12.5 -20.5t-33 -9.5t-59.5 -17.5t-80 -40.5l-12 -8q-6 -4 -13.5 -10.5t-26.5 -20.5l-44 -33q-29 -23 -76 -57q-96 -74 -112.5 -88.5t-16.5 -30.5t23 -47q186 -227 319 -344 q55 -49 111.5 -63.5t81 -14.5t24.5 -18q0 -25 -17.5 -30t-66.5 -5q-14 0 -108 1t-105 1q-16 0 -53 31.5t-89 90.5l-89 102l-90 110q-53 65 -55 69q-8 12 -23 13q-20 0 -42 -29t-22 -66q0 -4 1.5 -15t1.5 -19q1 -22 2 -58q4 -98 14 -111q2 -2 5 -7q9 -10 15 -19 q16 -23 85 -35t69 -31q0 -32 -59 -32h-4q-4 0 -82 6t-117 6q-27 0 -65 -4t-85 -4q-49 0 -49 24q0 20 51 35q47 18 59.5 53t12.5 136q0 23 1 53.5t1 36.5l2 909q0 154 -96 154q-6 0 -19.5 -1t-21.5 -1q-41 0 -41 22.5z" />
<glyph unicode="l" horiz-adv-x="571" d="M41 1419q0 12 3 18.5t13.5 11.5t23.5 8t42 12.5t57 21.5q16 6 51 22.5t60.5 25.5t44.5 9q25 0 24 -39q0 -8 -4 -48t-8 -110.5t-4 -152.5v-115q0 -96 -2 -162.5t-2 -109.5v-610q0 -43 7 -71t47 -53.5t112 -25.5q10 0 18 -10t8 -21q0 -28 -59 -28h-4q-18 0 -95 7t-112 7 q-53 0 -101 -8t-65 -8q-14 0 -23.5 7t-9.5 13q0 16 9.5 23.5t31 12.5t29.5 9q35 16 45 45t10 88q0 8 -1 25.5t-1 28.5v151q0 76 4.5 402.5t4.5 468.5q0 47 -15.5 84.5t-34 46t-82.5 8.5q-22 0 -22 16z" />
<glyph unicode="m" horiz-adv-x="1693" d="M63 795q0 18 25 27t74 19.5t82 24.5q12 4 26.5 12.5t21.5 11.5t18.5 5t23.5 2q24 0 24 -55q0 -18 -5 -51t-5 -39q0 -25 12 -25q2 0 13.5 15.5t31 37t48 43t77 36.5t107.5 15q76 0 131 -25.5t76.5 -55t36 -55t18.5 -25.5q2 0 38 42t102.5 84t140.5 42q150 0 230.5 -88 t94.5 -220q12 -121 13 -260v-65q0 -92 10 -133t47 -54q2 0 19 -3l27 -5q11 -2 21.5 -10t10.5 -20q0 -31 -68 -31q-12 0 -62 4t-73 4q-31 0 -79 -4t-68 -4q-49 0 -50 20q0 23 43 39.5t52 34.5q8 23 8 94v33q0 70 -1 122t-1 96t-3 77t-3 56.5t-6.5 43t-7.5 29.5t-11 24.5 t-12 18.5t-15.5 20.5t-17.5 20.5q-53 63 -154 63q-47 0 -98 -24.5t-82 -50t-31 -35.5q0 -6 3.5 -28.5t6.5 -81t3 -150.5v-174q0 -94 26.5 -138.5t114.5 -56.5q20 -2 28.5 -13.5t8.5 -19.5q0 -22 -36 -22h-3q-14 0 -65.5 5t-84.5 5q-20 0 -100 -5t-86 -5q-45 0 -45 26 q0 14 8 21.5t39 19.5q12 4 19.5 8.5t17.5 35t10 83.5v16q0 9 1 22.5t1 61.5v124q0 45 -1 72.5t-1 35.5t-1 13.5t-1 7.5q0 109 -55 174t-154 65q-86 0 -153.5 -45t-67.5 -104v-29v-385q0 -74 26.5 -113t59.5 -44t59.5 -11t26.5 -20q0 -18 -6 -24.5t-37 -6.5q-8 0 -64.5 3 t-107.5 3q-47 0 -100 -3t-62 -3q-49 0 -49 31q0 14 11.5 20t25.5 8t30.5 17.5t26.5 44.5q16 57 17 311q0 39 -1 123t-1 127q0 49 -21.5 69.5t-47.5 19.5t-47.5 4.5t-21.5 25.5z" />
<glyph unicode="n" horiz-adv-x="1210" d="M63 799q0 12 13.5 18t44.5 10t43 9q39 10 81 27.5t67.5 29.5t33.5 12h4q18 0 19 -24q0 -4 -2 -37t-2 -51q0 -53 10 -54q6 0 14 11.5t29.5 33t52.5 39.5q92 57 178 58q82 0 147.5 -26t102.5 -63.5t61.5 -87t32.5 -90.5t8 -77v-19q0 -12 1.5 -29.5t1.5 -80.5v-164v-45 q0 -78 21.5 -108t102.5 -42q41 -6 41 -31q0 -20 -41 -20q-47 0 -98 5t-69 5q-29 0 -89.5 -4t-68.5 -4q-41 0 -41 27q0 10 7 16t17 8l18 4l9 2q45 14 45 138v276q0 158 -78 239t-186 81q-88 0 -153.5 -47.5t-75.5 -77.5q-18 -51 -19 -324v-78q0 -102 21.5 -151.5t95.5 -55.5 q20 0 52 -7t32 -23q0 -27 -39 -27q-35 0 -67.5 4t-82.5 4q-53 0 -141 -4l-88 -4q-31 0 -31 20q0 16 10.5 20.5t26 6.5t30.5 12.5t27.5 50.5t14.5 107q4 115 4 154v295q0 66 -23.5 88t-64.5 22h-21q-39 0 -39 23z" />
<glyph unicode="o" horiz-adv-x="1120" d="M80 416q0 188 128 327.5t355 139.5q193 0 335 -121t142 -334q0 -217 -146 -341t-345 -124q-221 0 -345 134.5t-124 318.5zM242 485q0 -211 112.5 -335.5t255.5 -124.5q117 0 197 89t80 253q0 180 -98.5 320t-274.5 140q-106 0 -189 -84t-83 -258z" />
<glyph unicode="p" horiz-adv-x="1136" d="M63 788q0 10 17.5 16.5t71 23t112.5 44.5q80 39 86 39q27 0 27 -26q0 -43 -4 -79t-4 -42q0 -16 6 -16q2 0 17 14l40 36q25 21 58.5 41.5t85 35t106.5 14.5q182 0 278.5 -120t96.5 -292q0 -190 -120 -342.5t-321 -152.5q-94 0 -152 19t-81 38.5t-31 19.5q-6 0 -6 -16v-225 v-27q0 -39 35 -96q23 -37 69 -43t77.5 -8t31.5 -29q0 -25 -70 -25q-12 0 -65 4.5t-148 4.5q-37 0 -78.5 -3.5t-50.5 -3.5q-45 0 -57 4.5t-12 16.5q0 18 19.5 26.5t44 14.5t44 50t19.5 128v41q0 242 3 401.5t3 163.5v45q0 170 -15.5 226.5t-80.5 56.5q-35 0 -43.5 5t-8.5 17z M346 393q0 -20 1 -51t1 -51q0 -72 31 -123t79 -76.5t96 -37t95 -11.5q133 0 204 97.5t71 238.5q0 162 -87 284.5t-235 122.5q-104 0 -186 -65q-43 -33 -56.5 -89.5t-13.5 -238.5z" />
<glyph unicode="q" horiz-adv-x="1144" d="M80 360q0 133 47 237.5t123 165t162 91.5t176 31q35 0 67.5 -6.5t59 -15.5t50 -20.5t41 -21.5t30 -19t19.5 -16l7 -6q8 0 41 65.5t60 65.5q18 0 18 -32q0 -18 -5 -56.5t-9 -124.5t-4 -223q0 -166 3 -254t3 -385q0 -66 15 -107.5t37.5 -57t44 -21.5t37 -12.5t15.5 -20.5 q0 -25 -37 -25q-4 0 -22.5 1t-50.5 1h-70q-61 0 -103 -2t-56.5 -3t-25 -3t-16.5 -2q-49 0 -49 31q0 14 18.5 21.5t46 11.5t40.5 12q14 10 19 41t5 133q0 49 2 111.5t2 77.5q0 94 -12 94q-10 0 -35 -25l-56 -58q-32 -32 -96.5 -57.5t-144.5 -25.5q-150 0 -248 82 q-149 124 -149 327zM223 444q0 -131 60.5 -223t132 -127t137.5 -35q90 0 147.5 22.5t81 62.5t29.5 70t6 71v333q0 82 -91 144.5t-185 62.5q-45 0 -93.5 -17t-101.5 -56t-88 -119t-35 -189z" />
<glyph unicode="r" horiz-adv-x="768" d="M45 778q0 23 27.5 34t102.5 34.5t140 54.5q20 8 29 8q27 0 27 -41q0 -8 -1 -26.5t-1 -28.5q0 -43 2 -61.5t5 -22.5t9 -4q4 0 30.5 41t76 83t108.5 42q37 0 96 -39q43 -29 43 -59q0 -37 -16 -66t-31.5 -39t-21.5 -10q-16 0 -58.5 24.5t-97.5 24.5t-103.5 -45t-48.5 -82 v-213q0 -74 1.5 -120t1.5 -57t1 -19.5t1 -18.5q0 -43 28.5 -73.5t67.5 -37.5q12 -2 31 -4l28 -3q10 -1 22.5 -4t17.5 -9t5 -14q0 -33 -24 -33q-35 0 -94.5 5t-79.5 5q-66 0 -135.5 -5t-77.5 -5q-20 0 -30.5 4t-12.5 8t-2 12q0 27 26 35q53 12 64.5 52t11.5 171 q0 133 -1 219.5t-1 110t-1 37.5t-1 25q0 23 -6 37t-29.5 26t-67.5 12q-2 0 -10 1t-12 1q-39 0 -39 33z" />
<glyph unicode="s" horiz-adv-x="804" d="M113 88v178q0 23 9 38t21 15q20 0 27.5 -9t13.5 -37.5t13 -41.5q76 -188 213 -188q63 0 120.5 34t57.5 111q0 68 -47 113t-115 70.5t-135.5 53.5t-114.5 82t-47 136q0 115 92 184.5t217 69.5q96 0 153.5 -17.5t69 -31.5t11.5 -27q0 -2 4 -55t4 -68q0 -35 -8 -47t-29 -12 q-10 0 -27 29l-40 65q-21 35 -69 64.5t-112 29.5q-59 0 -98 -29.5t-39 -74.5q0 -25 6 -46.5t22 -37.5l26 -27q12 -12 38.5 -24.5t39.5 -17.5t45 -16t42 -15q147 -55 198.5 -116t51.5 -179q0 -115 -109 -213q-74 -63 -202 -64q-37 0 -78 8.5t-64.5 15.5t-54.5 19.5t-33 12.5 q-8 2 -19 6t-16.5 5t-13.5 5t-11 7t-7 9t-5 14.5t-1 18.5z" />
<glyph unicode="t" horiz-adv-x="700" d="M55 786q0 12 7.5 21.5t19.5 18t35.5 27.5t46.5 44q31 33 64.5 79t53 67.5t37.5 21.5q23 0 23 -47q0 -18 -4 -57t-4 -60q0 -29 11 -35t73 -6h71q45 0 77 4t44.5 10.5t21.5 10.5t15 4q20 0 21 -23q0 -16 -27 -64t-39 -48q-31 0 -59.5 1t-49 2t-39 3t-30.5 3t-21.5 2 t-13.5 2l-4 1q-39 0 -50 -12.5t-11 -55.5q0 -23 -4.5 -171t-4.5 -210q0 -133 34 -185t143 -52q43 0 95 19.5t56 19.5q20 0 21 -25q0 -29 -71 -72.5t-153 -43.5q-276 0 -276 239v31q0 80 2 194.5t4 197.5t2 85q0 20 -8 26.5t-35 6.5q-8 0 -21.5 -1t-17.5 -1q-35 -1 -35 28z " />
<glyph unicode="u" horiz-adv-x="1179" d="M59 807q0 14 9.5 23.5t40 15.5t88.5 6q14 0 63 5t53 5q35 0 41 -14t6 -88q0 -41 -5 -140.5t-5 -220.5q0 -180 69.5 -254.5t158.5 -74.5q131 0 190 55t59 194l-4 283q0 102 -16 138t-78 42q-45 4 -45 27q0 47 180 47q16 0 41 5t33 5q31 0 40 -10t9 -47q0 -2 -1 -31.5 t-2 -79t-3 -111t-3 -142t-1 -158.5q0 -125 12 -170t45 -45q10 0 27.5 1t25.5 1q49 0 50 -27q0 -23 -14.5 -29t-61.5 -6q-37 0 -119 -11t-88 -11q-14 0 -23.5 52t-13.5 52q-2 0 -39 -32.5t-105.5 -65.5t-150.5 -33q-329 0 -329 354q0 201 1 284t1 87q0 41 -21.5 65.5 t-40.5 24.5h-37q-37 0 -37 29z" />
<glyph unicode="v" horiz-adv-x="1071" d="M41 852q0 22 36 22h3q4 0 23.5 -2t52 -4t69.5 -2q29 0 59.5 -1t59.5 -1q14 0 42 3t38 3q37 0 37 -22q0 -35 -49 -35q-86 0 -86 -57q0 -12 5 -30.5t18 -50.5t27 -63l42 -86l49 -108q12 -25 41 -92.5t45 -99t25 -31.5q20 0 124.5 247.5t104.5 294.5q0 41 -19.5 58.5 t-44 14.5t-44 4t-19.5 30q0 26 59 26h4q14 0 60.5 -1t77.5 -1q23 0 54.5 1t39.5 1q35 0 46 -6t11 -24q0 -10 -10 -16l-30 -20q-21 -13 -40 -38q-51 -70 -147 -274l-176 -363q-80 -158 -111 -158q-20 0 -32.5 21.5t-56.5 126.5l-185 422q-51 113 -94.5 181.5t-65 82.5 t-32.5 23.5t-11 23.5z" />
<glyph unicode="w" horiz-adv-x="1531" d="M41 852q0 22 36 22h3q4 0 23.5 -2t52 -4t69.5 -2q29 0 49.5 1t51.5 1q61 0 78.5 -3t17.5 -19.5t-22.5 -21.5t-45 -20.5t-22.5 -53.5q0 -74 114 -332q14 -29 39 -89.5t39.5 -88t22.5 -27.5t82 141q14 25 29 56l24 46l18 34q11 20 15 29l9 21l7 18q2 5 4 14.5t2 15.5v14 q0 14 -19.5 61.5t-39.5 77.5q-23 33 -47.5 53.5t-37.5 25.5t-22.5 11.5t-9.5 18.5q0 18 31 18q55 0 81.5 -2t166.5 -2q29 0 41 1t22 1q45 0 45 -28q0 -6 -1 -10.5t-6 -6.5t-9 -3t-14 -1q-61 -4 -62 -57q0 -76 121 -342q16 -33 38.5 -90.5t36 -87t21.5 -29.5q20 0 107.5 224 t87.5 294q0 37 -17.5 56.5t-39 22.5t-39 12t-17.5 28q0 16 43 16h236q39 0 49 -4t10 -22.5t-34 -31.5t-56 -44q-18 -27 -34.5 -60.5t-37 -84t-81.5 -185.5l-142 -309l-32 -65q-9 -19 -22.5 -43.5t-22.5 -33t-17 -8.5q-35 0 -131.5 265.5t-112.5 265.5q-6 0 -131 -262 t-164 -262q-16 0 -30.5 28.5t-65.5 160.5l-148 374l-29 83q-18 50 -27 69.5t-32.5 51t-62.5 64.5q-6 6 -14 10l-11 6q-4 2 -8 5.5t-5 8.5t-1 11z" />
<glyph unicode="x" horiz-adv-x="1122" d="M59 29q0 10 6.5 14t33 13.5t55.5 27.5q35 23 72.5 53.5t76.5 69.5l63 65q25 25 63 68t46 51q8 12 8 23q0 8 -23 38l-71 86l-80 99q-47 61 -94 103t-63 44q-39 8 -64 25.5t-25 36.5q0 24 27 24h2q43 0 82 -5t78 -5q33 0 85 4t81 4q33 0 43 -6t10 -20q0 -12 -34 -24.5 t-34 -35.5q0 -10 8.5 -24.5t28.5 -41.5l27 -36l43 -61q70 -101 82 -101q6 0 20 17q142 182 150 197q6 13 6 32q0 31 -47 49t-47 31q0 24 49 24h4q18 0 60 -1t69 -1q16 0 62.5 2t78.5 2q14 0 26.5 -8t12.5 -18q0 -12 -11 -19.5t-30.5 -12.5t-56.5 -28.5t-76 -62.5 q-235 -235 -235 -258q0 -6 21 -30l165 -193q2 -4 21.5 -28t27.5 -33l28 -31q19 -21 34 -32l34 -27q19 -15 39.5 -25.5t40.5 -16.5q10 -2 14.5 -4t7.5 -7t3 -13q0 -14 -12.5 -19.5t-57.5 -5.5q-10 0 -51 2t-70 2q-25 0 -63.5 -2t-56.5 -2h-23q-70 0 -70 20q0 10 36 22.5 t36 37.5q0 27 -28.5 67.5t-78 100t-73.5 94.5q-12 18 -19 18q-2 0 -22 -20l-60 -72l-52 -62q-17 -20 -31.5 -45.5t-14.5 -47.5q0 -31 15.5 -45.5t33 -15.5t33 -8t15.5 -26q0 -8 -3.5 -11t-21.5 -5t-59 -2q-16 0 -49 3t-58 3q-20 0 -57 -4t-51 -4q-91 0 -91 33z" />
<glyph unicode="y" horiz-adv-x="1019" d="M41 844q0 25 41 24q57 0 117.5 -2t101.5 -2q35 0 62.5 2t54.5 2q14 0 25.5 -7t11.5 -15q0 -37 -49 -37h-31q-33 0 -33 -57q0 -45 87 -240l36 -80l41 -92q29 -66 44 -96.5t23 -30.5q12 0 95.5 235.5t83.5 284.5q0 41 -19.5 59.5t-44 17.5t-44 6t-19.5 30q0 24 36 24h3 q31 0 81 -1t66 -1q20 0 70.5 1t56.5 1q43 0 43 -26q0 -20 -36 -29.5t-48 -26.5q-33 -47 -111 -258l-182 -485l-45 -121l-37 -102l-28 -78l-23 -60q-8 -22 -17.5 -40.5t-16.5 -25.5t-13 -7h-7q-5 0 -25.5 -1t-61.5 -1q-39 0 -39 26q0 6 47 63.5t93 141.5t46 154 q0 59 -116.5 313t-202.5 416q-23 41 -46.5 63.5t-38 24.5t-23.5 8.5t-9 24.5z" />
<glyph unicode="z" horiz-adv-x="774" d="M82 31q0 10 1 17t3 12.5t8 15.5t12.5 18t19.5 27.5t26 36.5q374 540 374 571q0 10 -47 10q-25 0 -126 -7t-124 -7q-37 -2 -62.5 -30.5t-39.5 -57.5t-25 -29q-16 0 -16 23q0 37 5 75.5t13.5 80.5t8.5 49q4 36 39 36h2q6 0 34.5 -2t77.5 -3t107 -1q63 0 161.5 3t139.5 3 q25 0 24 -20q0 -14 -11 -31.5t-27.5 -37t-20.5 -25.5l-193 -286l-156 -226q-48 -72 -48 -96q0 -18 100 -19q23 0 57.5 1t42.5 1q53 0 90 7t56.5 22.5t28 27t17.5 36t13 32.5q14 29 35 29q33 0 33 -29q0 -12 -49 -125q-6 -14 -14 -41l-12 -44q-5 -17 -14.5 -30.5t-23.5 -13.5 h-233q-12 0 -64.5 -1t-85.5 -1h-35q-35 0 -49 -1l-14 -1q-39 0 -39 31z" />
<glyph unicode="{" horiz-adv-x="559" d="M86 547q0 33 38 54.5t38 55.5q0 129 -4 412t-4 434q0 37 36 37q18 0 59.5 -8t67.5 -8q41 0 82 6t56 6q37 0 37 -20q0 -49 -75 -81t-130 -32q-14 0 -15 -19q0 -102 -2 -287.5t-3 -328.5t-1 -246q0 -88 3 -348t3 -389q0 -8 22.5 -14.5t62.5 -15.5t67 -23q70 -39 70 -84 q0 -18 -17 -19q-2 0 -22.5 5.5t-54 9.5t-70.5 4q-63 0 -102.5 -14.5t-51.5 -14.5q-25 0 -24 25q0 137 3 397t3 373q0 45 -36 74.5t-36 58.5z" />
<glyph unicode="|" horiz-adv-x="428" d="M160 -178q0 154 6 643t6 702v168q0 78 -1 122t-1 54q0 27 11.5 38.5t39.5 11.5q27 0 36 -11.5t9 -40.5q0 -6 -1 -21t-1 -25.5t1 -50.5t2 -111.5t1 -155.5q0 -162 -5 -567.5t-5 -557.5q0 -199 2 -301q0 -4 1 -22.5t1 -30.5v-16q0 -78 -35 -78q-45 0 -56 20.5t-11 104.5 v125z" />
<glyph unicode="}" horiz-adv-x="559" d="M66 -352q0 45 69 84q27 14 67 23t62.5 15.5t22.5 14.5q0 129 3 389t3 348q0 102 -1 245.5t-3 329t-2 287.5q0 18 -15 19q-55 0 -129.5 31.5t-74.5 81.5q0 20 36 20q14 0 55.5 -6t82.5 -6q27 0 67.5 8t59.5 8q37 0 37 -37q0 -152 -4.5 -434.5t-4.5 -411.5q0 -35 38 -56 t38 -54q0 -29 -36 -58.5t-36 -74.5q0 -113 3.5 -373t3.5 -397q0 -25 -25 -25q-14 0 -53 14.5t-101 14.5q-37 0 -70.5 -4t-54 -9.5t-22.5 -5.5q-16 1 -16 19z" />
<glyph unicode="~" horiz-adv-x="778" d="M59 352q0 8 29 52.5t82 91.5t104 47q47 0 120 -46t120 -46q43 0 79 24.5t56.5 50t28.5 25.5q41 0 41 -31q0 -10 -31 -52t-90 -87t-119 -45q-57 0 -123.5 47t-107.5 47t-74 -27.5t-50.5 -55.5t-23.5 -28q-41 0 -41 33z" />
<glyph unicode="&#xa1;" horiz-adv-x="565" d="M121 1260q0 16 13 29.5t36 28.5t29 21q8 8 22.5 29t27.5 32t25.5 11t40 -22.5t43.5 -45.5q6 -8 24.5 -24t31 -31.5t12.5 -32.5q0 -6 -3 -11t-9 -11t-12.5 -11t-16.5 -14.5t-18 -15.5q-8 -8 -24.5 -29.5t-33 -35t-33.5 -13.5q-12 0 -49 37q-23 25 -45 43t-34.5 26.5 t-19.5 18t-7 21.5zM170 41q0 6 1 14t4 27.5t5 38.5q8 70 25.5 331t48.5 504q4 23 27 23q25 0 24 -21q18 -211 26.5 -334.5t9.5 -154.5l2 -59q1 -28 3 -62q20 -287 21 -297q0 -37 -28 -57.5t-75 -20.5q-94 0 -94 68z" />
<glyph unicode="&#xa2;" horiz-adv-x="925" d="M80 393q0 154 85 282t228 177q18 6 37 11t25 5t12 5.5t6 12.5v25v74q0 20 33 21q49 0 49 -19v-94q0 -6 1 -9t5 -4t9 -2t16.5 -1t24 -1.5t33 -4.5t42.5 -7q45 -6 82 -26q21 -12 26 -31q5 -23 5 -92q0 -90 -23 -90q-12 0 -21.5 10t-18.5 25.5t-44 42t-88 53.5 q-29 14 -39 14q-12 0 -12 -41q0 -225 -1 -371.5t-2 -195.5t-1 -70q0 -14 6 -21.5t29 -7.5q72 0 133 27t95 53.5t42 26.5q23 0 23 -20q0 -14 -30 -51.5t-104.5 -81.5t-169.5 -56q-14 -2 -18 -3t-6 -6t-2 -20v-118q0 -23 -43 -23q-35 0 -35 19v131q0 10 -1 13t-5 5t-13.5 2 t-21.5 1t-33.5 6t-48.5 14q-125 43 -195.5 148t-70.5 263zM233 459q0 -70 21.5 -133.5t51.5 -104.5t62.5 -71.5t57.5 -44t33 -13.5q10 0 10 31q0 260 2 647q0 20 -5 24.5t-30 4.5q-14 0 -36.5 -7.5t-52.5 -31t-54.5 -59t-42 -99t-17.5 -143.5z" />
<glyph unicode="&#xa3;" horiz-adv-x="1140" d="M41 88q0 45 34 81t105 36q35 0 73 -10.5t62.5 -21.5t28.5 -11q10 8 25.5 54t15.5 89q0 98 -98 332l-7 13q-4 9 -5 11.5t-4 8.5t-5 7t-7 3t-10 2h-13q-4 0 -56.5 -1t-107.5 -1q-29 0 -29 45q0 43 27 43h118q35 0 35 4q0 2 -15 46t-31.5 115t-16.5 136q0 201 123 302.5 t290 101.5q135 0 238.5 -61.5t102.5 -151.5q0 -33 -29 -68t-51 -35q-18 0 -29.5 19.5t-26 59.5t-30.5 64q-29 45 -87.5 72t-123.5 27q-98 0 -167 -58.5t-69 -175.5q0 -131 98 -354q10 -27 17.5 -34t21.5 -7h318q31 0 37 -8t6 -37q0 -18 -2 -25.5t-12.5 -12.5t-32.5 -5h-250 q-45 0 -45 -8q0 -2 13 -42t27.5 -101.5t14.5 -114.5q0 -31 -4 -62.5t-11.5 -57.5t-15.5 -49.5t-17 -42.5l-16 -32l-12 -24l-6 -11q127 -35 285 -35q96 0 168.5 33t103.5 71t54.5 70.5t31.5 32.5q27 0 27 -30q0 -25 -9.5 -60t-34 -80t-58 -84t-91 -64.5t-127.5 -25.5 q-168 0 -407 90q-2 0 -65.5 -39t-141.5 -39q-59 0 -92 33t-33 78zM119 90q0 -20 19.5 -37.5t47.5 -17.5q27 0 54.5 14t41 27.5t17.5 19.5q-6 8 -47 20.5t-76 12.5q-57 0 -57 -39z" />
<glyph unicode="&#xa4;" horiz-adv-x="1079" d="M41 90q0 25 37 62l139 141q-80 104 -80 244q0 135 78 239l-137 142q-37 37 -37 61.5t16.5 39.5t36.5 15q27 0 64 -37l141 -141q106 80 239.5 80t241.5 -80l142 141q35 35 61 35q25 0 40 -16.5t15 -36.5q0 -25 -37 -61l-141 -144q84 -115 84 -242q0 -125 -84 -237 l141 -143q37 -37 37 -61.5t-17 -40t-38 -15.5q-25 0 -61 37l-142 141q-106 -80 -241.5 -80t-239.5 78l-141 -139q-35 -35 -64 -35q-25 0 -39 16.5t-14 36.5zM254 532.5q0 -120.5 84 -203.5t200.5 -83t201.5 85t85 203.5t-85 205.5t-201 87q-119 0 -202 -87t-83 -207.5z" />
<glyph unicode="&#xa5;" horiz-adv-x="1458" d="M41 1409q0 23 23.5 29t103.5 6q12 0 56 -2t63 -2q23 0 83 1t91 1q102 0 102 -25q0 -23 -43 -38t-43 -33q0 -20 13.5 -53t26.5 -53l40 -61l31 -46q66 -102 138.5 -202t82.5 -100h16q8 0 15.5 6.5t17.5 21.5l22 33l32 53q20 34 42 67q6 10 30 45l33 49l27 44l27 45l19 37 q12 22 16 36t4 26q0 41 -23.5 61.5t-52 21.5t-52.5 10.5t-24 31.5q0 25 58 25q10 0 37.5 -1t46.5 -1q47 0 113.5 -1t103.5 -1q100 0 100 -31q0 -8 -12 -14l-35 -17q-22 -10 -41 -24q-94 -76 -276 -361l-64 -96q-10 -14 -21.5 -28.5t-15.5 -20.5t-4 -10q0 -8 230 -9 q29 0 28 -47q0 -41 -28 -41q-152 0 -215.5 -1t-65.5 -1q-16 0 -25.5 -11t-16.5 -61.5t-7 -146.5q0 -16 3 -21t15 -5q2 0 12.5 1t16.5 1h256q33 0 40 -9.5t7 -37.5q0 -16 -2 -24.5t-13.5 -15t-35.5 -6.5q-59 0 -151.5 -1t-112.5 -1q-23 0 -29 -4t-6 -22v-15q0 -14 1 -37.5 t1 -50.5v-49q0 -68 23.5 -107.5t44 -48t40.5 -8.5q4 0 20.5 -4t20.5 -4q31 0 31 -22q0 -29 -37 -29q-41 0 -106.5 1t-91.5 1q-59 0 -148.5 -5t-95.5 -5q-51 0 -51 24q0 18 9 24.5t34.5 8.5t38.5 6q86 27 86 127q0 2 2 76t2 117q0 20 -6.5 24t-28.5 4h-129q-43 0 -96.5 1.5 t-57.5 1.5q-29 0 -28 45q0 43 26 43h43h203h31q29 0 37 6t8 28q0 4 -1 27t-1 43q0 53 -14.5 95t-41.5 44q-4 0 -14 1t-16 1h-205q-33 0 -41 10.5t-8 36.5q0 16 2 23.5t14 13.5t37 6q186 0 186 7q0 2 -28 47l-201 299q-61 90 -110.5 137t-76 55t-63.5 8q-51 0 -51 27z" />
<glyph unicode="&#xa6;" horiz-adv-x="425" d="M160 -303q0 27 1 59.5t1 75.5t1 180.5t1 347.5q0 51 53 52q27 0 35 -11.5t8 -40.5v-376q0 -148 1 -192t1 -79v-63q0 -78 -35 -78q-45 0 -56 20.5t-11 104.5zM170 848v663q0 27 11.5 38.5t39.5 11.5q27 0 36 -11.5t9 -40.5v-708q0 -78 -33 -78q-45 0 -54 19.5t-9 105.5z " />
<glyph unicode="&#xa7;" horiz-adv-x="1110" d="M121 563q0 66 21.5 120t51 86t60.5 53.5t52.5 32.5t21.5 15q0 6 -29 24l-61 42q-32 22 -61.5 74.5t-29.5 119.5q0 150 113 247.5t281 97.5q98 0 177 -28t89 -28q4 0 20.5 7.5t26.5 7.5q35 0 37 -21q41 -268 41 -276q0 -59 -27 -60q-23 0 -37 31t-25.5 73t-52 94 t-108.5 87q-70 37 -172 37q-117 0 -177.5 -65.5t-60.5 -135.5q0 -84 97 -139q47 -27 138 -58.5t167 -61.5t151.5 -74t119.5 -114.5t44 -162.5q0 -66 -12 -113t-25.5 -69.5t-44.5 -63.5q-14 -20 -29.5 -34.5t-23.5 -19.5t-14 -10.5t-6 -9.5q0 -6 19 -16t50 -40t51 -79 q27 -68 27 -115q0 -180 -127 -284.5t-322 -104.5q-92 0 -159.5 14.5t-159.5 63.5q-31 16 -60.5 153.5t-29.5 172.5q0 49 31 49q27 0 36 -25l7 -16l13 -33q7 -18 19.5 -46t29.5 -53.5t37.5 -53t47.5 -51t57.5 -43t68.5 -30t79 -10.5q129 0 223 60.5t94 171.5q0 57 -55 102 t-138 74t-179.5 68t-179.5 80.5t-138 115.5t-55 170zM244 629q0 -98 118 -168q29 -18 123.5 -55t174 -65t85.5 -28q31 0 80 66.5t49 138.5q0 143 -229 234q-199 76 -221 75q-37 0 -108.5 -57t-71.5 -141z" />
<glyph unicode="&#xa8;" horiz-adv-x="899" d="M211 1210.5q0 28.5 31.5 66.5t64.5 38q35 0 67 -36t32 -68.5t-36 -70.5t-53 -38q-41 0 -73.5 40t-32.5 68.5zM539 1210.5q0 28.5 31.5 66.5t64.5 38q35 0 66.5 -36t31.5 -68.5t-35.5 -70.5t-54.5 -38q-41 0 -72.5 40t-31.5 68.5z" />
<glyph unicode="&#xa9;" horiz-adv-x="1630" d="M90 686q0 299 212 515t517 216q303 0 516 -216t213 -515q0 -297 -211 -513t-520 -216q-297 0 -512 212t-215 517zM176 686q0 -268 190.5 -455.5t452.5 -187.5t452.5 186.5t190.5 458.5q0 260 -186 450.5t-459 190.5q-268 0 -454.5 -189.5t-186.5 -453.5zM336 659 q0 209 128 347.5t357 138.5q78 0 157 -22.5t125 -45t48 -22.5q4 0 10 6t15 6q10 0 16 -4t9 -18.5t4 -30t4 -50t10 -67.5q4 -29 4 -33q0 -31 -27 -30q-16 0 -29 22q-121 219 -346 219q-154 0 -252 -94t-98 -248q0 -72 19.5 -140.5t61.5 -138t128 -112.5t203 -43 q164 0 278 162q12 18 21.5 40.5t15.5 30t25 7.5q14 0 14 -17q0 -51 -25 -170q-4 -20 -26 -28l-56 -28q-40 -20 -63 -29t-59.5 -21.5t-75.5 -17.5t-82 -5q-129 0 -226.5 35t-150.5 83t-86 112.5t-42 112.5t-9 93z" />
<glyph unicode="&#xaa;" horiz-adv-x="618" d="M59 913q0 59 46.5 96.5t90.5 48.5t150 30q15 2 21 4q23 4 22 18q0 12 1 30.5t1 28.5q0 70 -40 102t-79 32q-88 0 -88 -72q0 -8 3 -23.5t3 -19.5q0 -25 -28 -25q-10 0 -23.5 2t-31 6.5t-28.5 15.5t-11 25q0 51 70.5 95.5t158.5 44.5q72 0 119 -16.5t63.5 -46t20.5 -48 t4 -45.5q0 -90 -4 -143.5t-4 -89.5q0 -72 12 -94.5t39 -22.5q6 0 12 1t14 1q16 0 17 -21q0 -29 -35 -28h-49q-35 0 -60.5 20.5t-37.5 40.5l-13 21q-2 0 -10 -9.5t-23.5 -22.5t-36 -26.5t-48 -22.5t-58.5 -9q-160 -1 -160 122zM180 942q0 -88 94 -88q53 0 81 24.5t31 45 t3 51.5v82q0 10 -8 10q-2 0 -6 -1t-6 -1l-53 -8q-14 -2 -47 -12.5t-47.5 -20.5t-28 -31.5t-13.5 -50.5z" />
<glyph unicode="&#xab;" horiz-adv-x="737" d="M41 442.5q0 10.5 12 22.5l186 159q105 91 113 91q10 0 21.5 -13.5t11.5 -23.5q0 -12 -95 -117.5t-95 -116.5q0 -12 95 -117.5t95 -117.5q0 -10 -12.5 -23.5t-22.5 -13.5q-8 0 -113 93l-186 161q-10 6 -10 16.5zM311 442q0 12 13 23q294 248 301 250q10 0 21 -13.5 t11 -23.5t-97 -116.5t-97 -117.5q0 -12 95 -119.5t95 -115.5q0 -10 -10 -23.5t-20 -13.5q-8 0 -94 75l-205 179q-13 8 -13 16z" />
<glyph unicode="&#xac;" horiz-adv-x="1079" d="M63 440q0 35 39 35h875q27 0 34 -6t7 -33v-323q0 -31 -33 -31q-25 0 -34 1t-17 10t-8 30v227q0 35 -54 35h-770q-27 0 -33 11t-6 44z" />
<glyph unicode="&#xad;" horiz-adv-x="696" d="M90 297v22q0 59 19.5 76t97.5 39q109 33 192.5 62.5t113.5 41t48 11.5q45 0 45 -70v-12q0 -18 -1 -28.5t-8 -20.5t-12 -14.5t-24.5 -12.5t-35 -12t-51.5 -14.5t-66 -20.5q-58 -18 -114 -38l-82 -30q-26 -10 -48.5 -16t-40.5 -6q-33 0 -33 43z" />
<glyph unicode="&#xae;" horiz-adv-x="978" d="M59 1118q0 180 125 306t301 126q180 0 307.5 -126t127.5 -306q0 -176 -127 -302t-308 -126q-176 0 -301 126t-125 302zM121 1118q0 -147 108.5 -254.5t255.5 -107.5q152 0 261.5 107.5t109.5 254.5q0 152 -109.5 260.5t-261.5 108.5q-147 0 -255.5 -108.5t-108.5 -260.5z M252 1348q0 18 24 18h48q59 0 104 2t51 2q76 0 127 -31.5t51 -99.5q0 -39 -23.5 -62.5t-46 -31.5t-22.5 -10q-1 -3 7 -11l20 -22q12 -14 18 -27q29 -51 76 -114q25 -31 43 -31l5 1q5 1 7 1q10 0 11 -8q0 -10 -12.5 -22.5t-39.5 -12.5q-29 0 -55 14q-31 18 -88 115.5 t-74 101.5h-51q-14 0 -17 -6t-3 -39q0 -66 6 -102q10 -39 47 -46t37 -18q0 -12 -15 -12q-2 0 -51 2t-53 2q-23 0 -57 -2l-35 -2q-14 0 -15 14q0 8 26 14.5t30 41.5q2 20 2 67v49q0 72 1 129.5t1 67.5q0 53 -62 53q-22 1 -22 15zM412 1221q0 -41 5 -55.5t23 -14.5 q10 0 16.5 -1t12.5 -1q61 0 85 18.5t24 69.5q0 31 -32 64.5t-100 33.5q-23 0 -28.5 -8t-5.5 -39v-67z" />
<glyph unicode="&#xaf;" horiz-adv-x="899" d="M231 1206q0 39 33 39q158 0 226.5 -2t144.5 -2q18 0 24.5 -10t6.5 -49q0 -16 -10.5 -22.5t-18.5 -6.5q-14 0 -179 1t-206 1q-21 0 -21 51z" />
<glyph unicode="&#xb0;" horiz-adv-x="530" d="M61 1251q0 72 60.5 140.5t148.5 68.5q98 0 149.5 -72.5t51.5 -146.5q0 -96 -77 -152.5t-126 -56.5q-63 0 -108 24.5t-64.5 63.5t-27 69.5t-7.5 61.5zM147 1249q0 -57 34 -92t87 -35q16 0 40 8.5t50.5 38t26.5 76.5q0 125 -117 125q-43 0 -82 -36t-39 -85z" />
<glyph unicode="&#xb1;" horiz-adv-x="1079" d="M63 184.5q0 22.5 1.5 31.5t9.5 16.5t26 7.5h879q23 0 30 -8.5t7 -32.5q0 -27 -7.5 -38t-35.5 -11h-875q-18 0 -26.5 6t-8.5 28.5zM63 664q0 45 37 45h371q23 0 23 20v19v266q0 31 32 30q37 0 47.5 -6t10.5 -28v-262v-17q0 -23 24 -22h375q33 0 33 -31q0 -25 -2 -35 t-11.5 -18.5t-29.5 -8.5h-365q-25 0 -24 -34v-271q0 -29 -33 -28q-35 0 -46 5t-11 23v271q0 20 -5.5 27t-27.5 7h-363q-25 0 -30 10.5t-5 37.5z" />
<glyph unicode="&#xb2;" d="M86 827v4q0 12 36 52.5t104.5 139.5t131.5 232q55 117 56 226q0 51 -34 82.5t-93 31.5q-53 0 -92 -18t-59.5 -36.5t-29.5 -18.5q-10 0 -10 18q0 6 8.5 22.5t29 40t47 45t69.5 37t90 15.5q80 0 141.5 -44t61.5 -124q0 -94 -78 -235.5t-156 -246t-78 -108.5q0 -10 54 -10 h28h97q32 0 55.5 2t27 2t14.5 5t13 7q20 8 49 36t37 28q14 0 15 -13l-89 -161q-18 -27 -43 -27q-88 0 -143 2t-76 2q-14 0 -69.5 -1t-73.5 -1q-41 0 -41 14z" />
<glyph unicode="&#xb3;" d="M82 879q0 20 27 20q6 0 21 -13.5t49 -27.5t81 -14q106 0 162.5 80t56.5 159q0 76 -41 125t-137 49q-10 0 -19.5 -1t-13.5 -2t-6 -1q-16 0 -16 19q0 4 2 6t9 7t16.5 10t27.5 19l41 29q76 59 76 140q0 47 -31 79.5t-78 32.5q-45 0 -99 -34.5t-58 -34.5q-10 0 -11 10 q0 37 75 94.5t136 57.5q76 0 130.5 -37t54.5 -109q0 -41 -19.5 -76.5t-38 -53t-61.5 -52.5q-23 -16 -23 -23q0 -2 15.5 -5t45 -12t56.5 -26q96 -61 96 -164q0 -147 -97 -246.5t-228 -99.5q-72 0 -136.5 31t-64.5 64z" />
<glyph unicode="&#xb4;" horiz-adv-x="899" d="M371 1006q0 10 14 31.5t54 95t85 184.5q16 39 43 39q23 0 65 -13.5t42 -39.5q0 -47 -199 -256q-59 -63 -80 -64q-24 0 -24 23z" />
<glyph unicode="&#xb5;" horiz-adv-x="1097" d="M20 -299q0 92 19.5 188.5t59.5 233.5t59 219q41 174 80 370q20 101 28 125.5t25 24.5q18 0 56 -12t38 -39q0 -20 -51 -313t-51 -334q0 -74 41 -74q70 0 167 114.5t170.5 251t131.5 269.5l18 47l12 33l7 23q4 12 6 17t4 9t5 6t6 2h11q27 0 57.5 -13t30.5 -30 q0 -6 -63.5 -307t-63.5 -358q0 -23 15.5 -37.5t35.5 -14.5q45 0 84 74t56 74q23 0 22 -35q0 -74 -86 -166t-194 -92q-82 0 -82 147q0 53 19.5 176t19.5 126q0 12 -4 12q-6 0 -25.5 -36t-71 -111.5t-118.5 -149.5q-61 -68 -133 -113t-132 -45q-31 0 -50 21.5t-26.5 44 t-9.5 22.5q-4 0 -14 -40t-18.5 -95t-8.5 -90q0 -39 27 -101.5t27 -68.5q0 -16 -17.5 -40t-56.5 -24q-62 0 -62 109z" />
<glyph unicode="&#xb6;" horiz-adv-x="1034" d="M90 1034q0 188 129 309t279 121q57 0 145 1t129 1q18 0 59 2t64 2h25q6 0 12 -8t6 -12q0 -14 -15.5 -21.5t-40 -17.5t-38.5 -25q-29 -33 -29 -135q0 -207 -3 -529.5t-3 -528.5q0 -244 -107.5 -408t-283.5 -164q-82 0 -137 31q-16 8 -17 53q0 33 21.5 84t40.5 51 q12 0 22 -24.5t19.5 -54t39 -54t78.5 -24.5q135 0 136 430q0 14 1 34.5t1 28.5q0 61 -3.5 206.5t-3.5 246.5q0 29 -51 28q-72 0 -127 6.5t-124.5 29t-114.5 60.5t-77 110.5t-32 170.5zM465 1030q0 -313 98 -313q18 0 36.5 11t18.5 28v71q0 45 -2 121t-2 111q0 94 1 154.5 t2 78t2.5 27.5t1.5 16q0 84 -58 84q-61 0 -76 -43q-16 -53 -19 -101t-3 -245zM668 1036q0 -53 1 -155.5t1 -151.5q0 -203 3 -439l3 -237q0 -82 -3 -115.5t-3 -35.5q0 -23 14 -23q8 0 25.5 43t34 133t16.5 191q0 229 -2 589.5t-2 553.5q0 16 -14.5 26t-32.5 10q-37 0 -37 -26 q-4 -263 -4 -363z" />
<glyph unicode="&#xb7;" horiz-adv-x="516" d="M158 682q0 25 34.5 68t65.5 43q33 0 64.5 -42t31.5 -75t-39 -73t-57 -40q-41 0 -70.5 44t-29.5 75z" />
<glyph unicode="&#xb8;" horiz-adv-x="899" d="M348 -162q0 6 41 37q4 2 16.5 13.5t22.5 16.5t23 5q10 0 32.5 -11.5t48 -42t25.5 -71.5q0 -88 -65.5 -142.5t-104.5 -54.5q-18 0 -18 15q0 6 21.5 17t43 34.5t21.5 60.5q0 39 -27 60.5t-53.5 34t-26.5 28.5z" />
<glyph unicode="&#xb9;" d="M168 1561q0 20 15.5 29t62.5 24.5t84 34.5q18 8 37.5 22.5t32 22.5t20.5 8q20 0 20 -29q0 -4 -6 -28.5t-6 -32.5q-8 -205 -8 -410q0 -72 -2 -151.5t-2 -92.5q0 -25 5 -41t9 -25t19.5 -14.5t22.5 -7.5t31.5 -4t35.5 -2q25 -4 24 -26q0 -25 -71 -25q-18 0 -59.5 1t-67.5 1 q-31 0 -83.5 -2t-68.5 -2q-39 0 -39 25q0 29 45 28q37 0 52.5 8.5t19.5 40.5q12 90 12 328v137q0 54 1 69t1 25v15q0 74 -43 74q-16 0 -38.5 -12.5t-39.5 -12.5q-2 0 -5 2t-7 8.5t-4 14.5z" />
<glyph unicode="&#xba;" horiz-adv-x="743" d="M59 1063q0 115 84 200t232 85q125 0 217 -75t92 -204q0 -133 -95 -208t-224 -75q-143 0 -224.5 82t-81.5 195zM180 1106q0 -125 67.5 -198.5t153.5 -73.5q70 0 118 51t48 149q0 106 -58 189.5t-165 83.5q-63 0 -113.5 -49.5t-50.5 -151.5z" />
<glyph unicode="&#xbb;" horiz-adv-x="737" d="M80 209q0 12 97 119.5t97 111.5q0 12 -95 121t-95 117q0 10 10 23.5t21 13.5q8 0 94 -75l205 -179q12 -8 12 -18.5t-14 -20.5l-205 -176q-86 -74 -94 -74q-10 0 -21.5 13.5t-11.5 23.5zM350 209q0 12 96.5 116.5t96.5 114.5q0 14 -95.5 124t-95.5 114q0 10 11.5 23.5 t21.5 13.5q8 0 113 -93l186 -161q12 -8 12 -19q0 -6 -14 -20l-220 -189q-71 -61 -77 -61q-10 0 -22.5 13.5t-12.5 23.5z" />
<glyph unicode="&#xbc;" horiz-adv-x="1869" d="M1219 295q0 23 50 89.5t316 397.5q12 14 30.5 39t30 39t24.5 25.5t24 11.5q23 0 22 -25q0 -2 -4 -104t-7 -215t-3 -137q0 -18 2 -23.5t14 -5.5q51 0 76 17.5t31 17.5q14 0 14 -19q0 -6 -14 -63q-10 -63 -31 -64q-10 0 -36.5 1.5t-35.5 1.5q-25 0 -24 -23q0 -16 2 -68.5 t2 -95.5v-108q0 -45 -6 -50.5t-49 -15.5q-33 -6 -52 -6q-16 0 -24 10t-8 21q0 2 3 11t7 30.5t7 54.5t6 94.5t3 136.5q0 8 -16 9h-11q-6 0 -16 -1.5t-48 -1.5h-95q-29 0 -79 -1t-69 -1q-36 1 -36 21zM1352 393q0 -12 37 -12h165q35 0 35 14v13l2 53q2 53 3 119.5t1 97.5 q0 33 -6 33q-8 0 -122.5 -150t-114.5 -168zM401 -147q0 10 81 137l212 324l252 376l245 366l146 218q0 2 9.5 15.5t22.5 27.5t22 14q10 0 23 -9t13 -17q0 -16 -16 -43l-892 -1358q-52 -83 -62 -86q-12 -4 -21 -4q-35 0 -35 39zM168 1198q0 20 15.5 29.5t62.5 25t84 33.5 q18 8 37.5 22.5t32 22.5t20.5 8q20 0 20 -28q0 -4 -6 -29t-6 -33q-8 -205 -8 -409q0 -74 -2 -154t-2 -90q0 -25 5 -41t9 -25.5t19.5 -14.5t22.5 -7t31.5 -4t35.5 -2q25 -4 24 -27q0 -25 -71 -24q-18 0 -59.5 1t-67.5 1q-31 0 -83.5 -2t-68.5 -2q-39 0 -39 24q0 29 45 29 q37 0 52.5 8t19.5 41q12 90 12 328v137q0 53 1 68.5t1 24.5v15q0 74 -43 74q-16 0 -38.5 -12t-39.5 -12q-2 0 -5 2t-7 8t-4 14z" />
<glyph unicode="&#xbd;" horiz-adv-x="1869" d="M1266 37v4q0 12 35.5 52t104.5 139.5t132 232.5q55 117 55 225q0 51 -33.5 83t-93.5 32q-53 0 -92 -18.5t-59.5 -37t-28.5 -18.5q-10 0 -10 19q0 6 8 22t28.5 40t47 45.5t70 36.5t90.5 15q80 0 141 -44t61 -124q0 -94 -77.5 -235t-155.5 -245.5t-78 -108.5q0 -10 53 -11 h29h97q32 0 55.5 2t26.5 2t14.5 5.5t13.5 7.5q20 8 49 35.5t37 27.5q14 0 14 -12l-88 -162q-18 -27 -43 -27q-88 0 -143.5 2.5t-75.5 2.5q-14 0 -69.5 -1t-73.5 -1q-41 0 -41 14zM401 -147q0 10 81 137l212 324l252 376l245 366l146 218q0 2 9.5 15.5t22.5 27.5t22 14 q10 0 23 -9t13 -17q0 -16 -16 -43l-892 -1358q-52 -83 -62 -86q-12 -4 -21 -4q-35 0 -35 39zM168 1198q0 20 15.5 29.5t62.5 25t84 33.5q18 8 37.5 22.5t32 22.5t20.5 8q20 0 20 -28q0 -4 -6 -29t-6 -33q-8 -205 -8 -409q0 -74 -2 -154t-2 -90q0 -25 5 -41t9 -25.5 t19.5 -14.5t22.5 -7t31.5 -4t35.5 -2q25 -4 24 -27q0 -25 -71 -24q-18 0 -59.5 1t-67.5 1q-31 0 -83.5 -2t-68.5 -2q-39 0 -39 24q0 29 45 29q37 0 52.5 8t19.5 41q12 90 12 328v137q0 53 1 68.5t1 24.5v15q0 74 -43 74q-16 0 -38.5 -12t-39.5 -12q-2 0 -5 2t-7 8t-4 14z " />
<glyph unicode="&#xbe;" horiz-adv-x="1869" d="M1219 295q0 23 50 89.5t316 397.5q12 14 30.5 39t30 39t24.5 25.5t24 11.5q23 0 22 -25q0 -2 -4 -104t-7 -215t-3 -137q0 -18 2 -23.5t14 -5.5q51 0 76 17.5t31 17.5q14 0 14 -19q0 -6 -14 -63q-10 -63 -31 -64q-10 0 -36.5 1.5t-35.5 1.5q-25 0 -24 -23q0 -16 2 -68.5 t2 -95.5v-108q0 -45 -6 -50.5t-49 -15.5q-33 -6 -52 -6q-16 0 -24 10t-8 21q0 2 3 11t7 30.5t7 54.5t6 94.5t3 136.5q0 8 -16 9h-11q-6 0 -16 -1.5t-48 -1.5h-95q-29 0 -79 -1t-69 -1q-36 1 -36 21zM1352 393q0 -12 37 -12h165q35 0 35 14v13l2 53q2 53 3 119.5t1 97.5 q0 33 -6 33q-8 0 -122.5 -150t-114.5 -168zM401 -147q0 10 81 137l212 324l252 376l245 366l146 218q0 2 9.5 15.5t22.5 27.5t22 14q10 0 23 -9t13 -17q0 -16 -16 -43l-892 -1358q-52 -83 -62 -86q-12 -4 -21 -4q-35 0 -35 39zM82 516q0 20 27 21q6 0 21 -14.5t49 -28 t81 -13.5q106 0 162.5 80t56.5 160q0 76 -41 125t-137 49q-10 0 -19.5 -1t-13.5 -2t-6 -1q-16 0 -16 18q0 4 2 6.5t9 7.5t16.5 10t27.5 19l41 29q76 59 76 139q0 47 -31 80t-78 33q-45 0 -99 -35t-58 -35q-10 0 -11 11q0 37 75 94t136 57q76 0 130.5 -38t54.5 -107 q0 -41 -19.5 -77t-38 -53.5t-61.5 -52.5q-23 -16 -23 -22q0 -2 15.5 -5t45 -12.5t56.5 -25.5q96 -61 96 -164q0 -147 -97 -246.5t-228 -99.5q-72 0 -136.5 30.5t-64.5 63.5z" />
<glyph unicode="&#xbf;" horiz-adv-x="716" d="M74 215q0 68 45 154t99 155.5t99 159.5t45 162q0 23 -6 54.5t-6 39.5q0 20 17 21q31 0 48 -57.5t17 -104.5q0 -74 -93 -287t-93 -274q0 -80 65.5 -122t120.5 -42q37 0 74 26.5t39 26.5q16 0 16 -21q0 -35 -64.5 -79.5t-146.5 -44.5q-111 0 -193.5 61t-82.5 172zM221 1235 q0 16 12.5 28.5t32 23.5t27.5 19.5t22.5 29t26.5 31.5t24.5 11t40 -22.5t44.5 -44.5q4 -6 34.5 -31t30.5 -41q0 -23 -72 -84q-6 -6 -24.5 -26.5t-31.5 -29.5t-26 -9q-8 0 -23 15t-29.5 34.5t-16.5 21.5l-21 17q-20 16 -35.5 32.5t-15.5 24.5z" />
<glyph unicode="&#xc0;" horiz-adv-x="1662" d="M604 1843q0 27 43 40t66 13q25 0 41 -38q29 -70 56 -128q28 -58 45 -86l29 -48l19 -32q6 -10 6 -18q0 -23 -24 -22q-20 0 -80 63q-201 211 -201 256zM41 16q0 29 31 39q66 25 115 110t243 508l354 763q14 31 25.5 39t36.5 8q18 0 24.5 -8.5t27.5 -66.5q44 -126 95 -255 l227 -535q160 -374 175 -405q35 -70 78 -105.5t74.5 -38.5t53 -10.5t21.5 -31.5q0 -31 -55 -31q-23 0 -88.5 6t-96.5 6q-39 0 -100 -4t-90 -4q-63 0 -80.5 5t-17.5 24q0 14 16 23t34.5 12.5t35 18.5t16.5 42q0 45 -51 184.5t-86 204.5q-18 35 -84 35q-10 0 -90 -2t-158 -2 h-109q-92 0 -115.5 -10.5t-41.5 -49.5q-12 -27 -41 -85t-39 -80l-25 -59q-16 -36 -21 -57.5t-5 -37.5q0 -47 23.5 -71.5t52 -28t52 -11.5t23.5 -28q0 -14 -6 -21.5t-29 -7.5q-12 0 -70.5 1t-99.5 1q-45 0 -101 -4t-75 -4q-59 -1 -59 24zM555 692q0 -27 18.5 -33t85.5 -6h64 l195 2q80 0 79 33q0 27 -100 253t-127 226q-18 0 -116.5 -226t-98.5 -249z" />
<glyph unicode="&#xc1;" horiz-adv-x="1662" d="M752 1546q0 10 14 31.5t54 95.5t85 185q16 39 43 38q23 0 65 -13t42 -40q0 -47 -199 -256q-59 -63 -80 -63q-24 -1 -24 22zM41 16q0 29 31 39q66 25 115 110t243 508l354 763q14 31 25.5 39t36.5 8q18 0 24.5 -8.5t27.5 -66.5q44 -126 95 -255l227 -535 q160 -374 175 -405q35 -70 78 -105.5t74.5 -38.5t53 -10.5t21.5 -31.5q0 -31 -55 -31q-23 0 -88.5 6t-96.5 6q-39 0 -100 -4t-90 -4q-63 0 -80.5 5t-17.5 24q0 14 16 23t34.5 12.5t35 18.5t16.5 42q0 45 -51 184.5t-86 204.5q-18 35 -84 35q-10 0 -90 -2t-158 -2h-109 q-92 0 -115.5 -10.5t-41.5 -49.5q-12 -27 -41 -85t-39 -80l-25 -59q-16 -36 -21 -57.5t-5 -37.5q0 -47 23.5 -71.5t52 -28t52 -11.5t23.5 -28q0 -14 -6 -21.5t-29 -7.5q-12 0 -70.5 1t-99.5 1q-45 0 -101 -4t-75 -4q-59 -1 -59 24zM555 692q0 -27 18.5 -33t85.5 -6h64l195 2 q80 0 79 33q0 27 -100 253t-127 226q-18 0 -116.5 -226t-98.5 -249z" />
<glyph unicode="&#xc2;" horiz-adv-x="1662" d="M600 1563q0 2 8 18l64 97q30 46 46 74l30 52q14 24 19 34.5t11 18t10.5 9.5t12.5 2h51q23 0 35 -23q33 -57 78 -125l71 -108q26 -39 27 -47q0 -16 -23 -17q-14 0 -109 87t-102 87q-12 0 -103 -86t-105 -86q-21 1 -21 13zM41 16q0 29 31 39q66 25 115 110t243 508l354 763 q14 31 25.5 39t36.5 8q18 0 24.5 -8.5t27.5 -66.5q44 -126 95 -255l227 -535q160 -374 175 -405q35 -70 78 -105.5t74.5 -38.5t53 -10.5t21.5 -31.5q0 -31 -55 -31q-23 0 -88.5 6t-96.5 6q-39 0 -100 -4t-90 -4q-63 0 -80.5 5t-17.5 24q0 14 16 23t34.5 12.5t35 18.5 t16.5 42q0 45 -51 184.5t-86 204.5q-18 35 -84 35q-10 0 -90 -2t-158 -2h-109q-92 0 -115.5 -10.5t-41.5 -49.5q-12 -27 -41 -85t-39 -80l-25 -59q-16 -36 -21 -57.5t-5 -37.5q0 -47 23.5 -71.5t52 -28t52 -11.5t23.5 -28q0 -14 -6 -21.5t-29 -7.5q-12 0 -70.5 1t-99.5 1 q-45 0 -101 -4t-75 -4q-59 -1 -59 24zM555 692q0 -27 18.5 -33t85.5 -6h64l195 2q80 0 79 33q0 27 -100 253t-127 226q-18 0 -116.5 -226t-98.5 -249z" />
<glyph unicode="&#xc3;" horiz-adv-x="1662" d="M528 1626q0 35 69 126t130 91q51 0 129 -49t127 -49q41 0 82 57.5t45 57.5q20 0 20 -25q0 -37 -67.5 -123t-128.5 -86q-53 0 -134 49t-124 49q-31 0 -58.5 -28.5t-45 -57t-23.5 -28.5q-21 0 -21 16zM41 16q0 29 31 39q66 25 115 110t243 508l354 763q14 31 25.5 39 t36.5 8q18 0 24.5 -8.5t27.5 -66.5q44 -126 95 -255l227 -535q160 -374 175 -405q35 -70 78 -105.5t74.5 -38.5t53 -10.5t21.5 -31.5q0 -31 -55 -31q-23 0 -88.5 6t-96.5 6q-39 0 -100 -4t-90 -4q-63 0 -80.5 5t-17.5 24q0 14 16 23t34.5 12.5t35 18.5t16.5 42 q0 45 -51 184.5t-86 204.5q-18 35 -84 35q-10 0 -90 -2t-158 -2h-109q-92 0 -115.5 -10.5t-41.5 -49.5q-12 -27 -41 -85t-39 -80l-25 -59q-16 -36 -21 -57.5t-5 -37.5q0 -47 23.5 -71.5t52 -28t52 -11.5t23.5 -28q0 -14 -6 -21.5t-29 -7.5q-12 0 -70.5 1t-99.5 1 q-45 0 -101 -4t-75 -4q-59 -1 -59 24zM555 692q0 -27 18.5 -33t85.5 -6h64l195 2q80 0 79 33q0 27 -100 253t-127 226q-18 0 -116.5 -226t-98.5 -249z" />
<glyph unicode="&#xc4;" horiz-adv-x="1662" d="M592 1751q0 29 31.5 66.5t64.5 37.5q35 0 66.5 -35.5t31.5 -68.5t-35.5 -71t-52.5 -38q-41 0 -73.5 40t-32.5 69zM920 1751q0 29 31.5 66.5t64.5 37.5q35 0 66.5 -35.5t31.5 -68.5t-36 -71t-54 -38q-41 0 -72.5 40t-31.5 69zM41 16q0 29 31 39q66 25 115 110t243 508 l354 763q14 31 25.5 39t36.5 8q18 0 24.5 -8.5t27.5 -66.5q44 -126 95 -255l227 -535q160 -374 175 -405q35 -70 78 -105.5t74.5 -38.5t53 -10.5t21.5 -31.5q0 -31 -55 -31q-23 0 -88.5 6t-96.5 6q-39 0 -100 -4t-90 -4q-63 0 -80.5 5t-17.5 24q0 14 16 23t34.5 12.5 t35 18.5t16.5 42q0 45 -51 184.5t-86 204.5q-18 35 -84 35q-10 0 -90 -2t-158 -2h-109q-92 0 -115.5 -10.5t-41.5 -49.5q-12 -27 -41 -85t-39 -80l-25 -59q-16 -36 -21 -57.5t-5 -37.5q0 -47 23.5 -71.5t52 -28t52 -11.5t23.5 -28q0 -14 -6 -21.5t-29 -7.5q-12 0 -70.5 1 t-99.5 1q-45 0 -101 -4t-75 -4q-59 -1 -59 24zM555 692q0 -27 18.5 -33t85.5 -6h64l195 2q80 0 79 33q0 27 -100 253t-127 226q-18 0 -116.5 -226t-98.5 -249z" />
<glyph unicode="&#xc5;" horiz-adv-x="1662" d="M674 1751q0 53 47 105.5t113 52.5q76 0 113.5 -55.5t37.5 -110.5q0 -74 -58.5 -116t-95.5 -42q-63 0 -101 34t-47 66.5t-9 65.5zM752 1749q0 -37 22.5 -60.5t56.5 -23.5q10 0 25.5 5t33 24.5t17.5 50.5q0 84 -76 84q-29 0 -54 -23.5t-25 -56.5zM41 16q0 29 31 39 q66 25 115 110t243 508l354 763q14 31 25.5 39t36.5 8q18 0 24.5 -8.5t27.5 -66.5q44 -126 95 -255l227 -535q160 -374 175 -405q35 -70 78 -105.5t74.5 -38.5t53 -10.5t21.5 -31.5q0 -31 -55 -31q-23 0 -88.5 6t-96.5 6q-39 0 -100 -4t-90 -4q-63 0 -80.5 5t-17.5 24 q0 14 16 23t34.5 12.5t35 18.5t16.5 42q0 45 -51 184.5t-86 204.5q-18 35 -84 35q-10 0 -90 -2t-158 -2h-109q-92 0 -115.5 -10.5t-41.5 -49.5q-12 -27 -41 -85t-39 -80l-25 -59q-16 -36 -21 -57.5t-5 -37.5q0 -47 23.5 -71.5t52 -28t52 -11.5t23.5 -28q0 -14 -6 -21.5 t-29 -7.5q-12 0 -70.5 1t-99.5 1q-45 0 -101 -4t-75 -4q-59 -1 -59 24zM555 692q0 -27 18.5 -33t85.5 -6h64l195 2q80 0 79 33q0 27 -100 253t-127 226q-18 0 -116.5 -226t-98.5 -249z" />
<glyph unicode="&#xc6;" horiz-adv-x="2033" d="M41 16q0 29 33 39q63 25 112.5 100.5t247.5 462.5l363 697q10 20 10 39q0 29 -107 39q-47 2 -47 39q0 31 62 30q14 0 274 -7t461 -7q43 0 212 3t198 3q37 0 36 -47q0 -12 -11 -81t-11 -128q0 -18 -10.5 -31.5t-22.5 -13.5q-31 0 -31 43q0 55 -35.5 100t-86.5 47 q-184 14 -281 15h-53q-106 0 -125 -16.5t-23 -108.5q-6 -111 -6 -342q0 -102 37 -105h51h88h64q121 0 161.5 8.5t73.5 30.5q23 14 34 36t13 37t9.5 26.5t21.5 11.5q18 0 22.5 -6t4.5 -27q0 -14 -9.5 -94t-9.5 -121q0 -39 4 -73.5t4 -51.5q0 -51 -14 -51q-29 0 -49 66.5 t-47 83.5q-43 29 -199 28h-99q-38 0 -48 1q-9 1 -17 1h-14q-84 0 -84 -39q0 -59 -2 -148t-2 -147v-82q0 -147 47 -161q51 -16 88 -17q182 0 309 20.5t182.5 49.5t83 56.5t39 48t25.5 20.5q25 0 25 -35q0 -88 -89 -178t-155 -90q-147 0 -331.5 10t-229.5 10q-57 0 -144.5 -9 t-136.5 -9q-41 0 -41 20v24q0 6 6.5 10.5t13.5 5.5t26.5 7.5t41.5 16.5q49 25 64.5 95.5t15.5 299.5v57q0 10 -12 10.5t-72.5 2.5t-99.5 2h-64q-37 0 -88 1t-67 1q-80 0 -103.5 -11.5t-42.5 -48.5l-33 -64l-33 -63l-25 -51l-24 -48q-8 -15 -16 -37.5t-11 -37t-3 -28.5 q0 -55 36 -75t71.5 -25t35.5 -27q0 -31 -34 -31q-12 0 -72 1t-101 1q-45 0 -101 -4t-75 -4q-59 -1 -59 24zM594 686q0 -33 102 -33h187q106 0 127.5 8.5t21.5 51.5v520q0 33 -1 51.5t-7 41t-20.5 33.5t-36.5 11q-29 0 -56 -43q-66 -113 -191.5 -367t-125.5 -274z" />
<glyph unicode="&#xc7;" horiz-adv-x="1652" d="M815 -162q0 6 41 37q4 2 16.5 13.5t22.5 16.5t23 5q10 0 32.5 -11.5t48 -42t25.5 -71.5q0 -88 -65.5 -142.5t-104.5 -54.5q-18 0 -18 15q0 6 21.5 17t43 34.5t21.5 60.5q0 39 -27 60.5t-53.5 34t-26.5 28.5zM90 664q0 223 86 401t265.5 287.5t424.5 109.5 q125 0 252 -36.5t203 -74.5l76 -38q6 0 20.5 10t22.5 10q10 0 20 -8t10 -25q2 -59 9.5 -125.5t13.5 -109.5t6 -51q0 -37 -24 -37q-18 0 -35 29q-199 373 -574 372q-256 0 -419.5 -163.5t-163.5 -428.5q0 -145 37.5 -272t114.5 -232.5t212 -167t316 -61.5q295 0 495 307 q8 14 31 15q18 0 18 -29q0 -23 -7 -60.5t-17 -83.5t-13 -57q-4 -23 -32 -36q-111 -53 -173.5 -80t-158.5 -48.5t-197 -21.5q-178 0 -321.5 43t-234.5 112.5t-152.5 163t-86 189t-24.5 197.5z" />
<glyph unicode="&#xc8;" horiz-adv-x="1236" d="M406 1843q0 27 43 40t65 13q25 0 41 -38q29 -70 57 -128q26 -58 44 -86l30 -48l18 -32q6 -10 7 -18q0 -23 -25 -22q-20 0 -80 63q-200 211 -200 256zM41 1432q0 29 57 28q8 0 26.5 -2t29.5 -2q6 0 192 -5t307 -5q43 0 212 4t198 4q39 0 39 -47q0 -12 -12.5 -81 t-12.5 -128q0 -18 -10 -31.5t-23 -13.5q-31 0 -30 43q0 55 -35 100t-86 47q-184 14 -283 15h-53q-106 0 -123.5 -15.5t-21.5 -109.5q-8 -147 -9 -342q0 -102 39 -105h52h86h63q123 0 164 8.5t74 30.5q39 27 47 76q6 35 28 35q18 0 22.5 -6t4.5 -27q0 -14 -8 -94t-8 -121 q0 -39 3 -73.5t3 -51.5q0 -51 -15 -51q-31 0 -45 49q-29 86 -51 101q-43 29 -196 28h-100q-38 0 -49 1t-18 1h-14q-84 0 -84 -39q0 -59 -2 -148t-2 -147v-82q0 -147 49 -161q51 -16 89 -17q154 0 269.5 14.5t173.5 36t97 47t50.5 47t22.5 36t23 14.5q25 0 25 -35 q0 -88 -88 -178t-154 -90q-147 0 -332.5 10t-230.5 10q-57 0 -143 -9t-135 -9q-43 0 -43 20v24q0 6 6 10.5t13 5.5t26.5 7.5t42.5 16.5q49 25 64.5 96.5t15.5 300.5v254q0 55 3 172t3 182q0 55 -4 187q-2 59 -51.5 92t-114.5 35q-33 0 -33 37z" />
<glyph unicode="&#xc9;" horiz-adv-x="1236" d="M553 1546q0 10 14.5 31.5t54.5 95.5t85 185q16 39 43 38q23 0 64.5 -13t41.5 -40q0 -47 -199 -256q-59 -63 -79 -63q-25 -1 -25 22zM41 1432q0 29 57 28q8 0 26.5 -2t29.5 -2q6 0 192 -5t307 -5q43 0 212 4t198 4q39 0 39 -47q0 -12 -12.5 -81t-12.5 -128 q0 -18 -10 -31.5t-23 -13.5q-31 0 -30 43q0 55 -35 100t-86 47q-184 14 -283 15h-53q-106 0 -123.5 -15.5t-21.5 -109.5q-8 -147 -9 -342q0 -102 39 -105h52h86h63q123 0 164 8.5t74 30.5q39 27 47 76q6 35 28 35q18 0 22.5 -6t4.5 -27q0 -14 -8 -94t-8 -121q0 -39 3 -73.5 t3 -51.5q0 -51 -15 -51q-31 0 -45 49q-29 86 -51 101q-43 29 -196 28h-100q-38 0 -49 1t-18 1h-14q-84 0 -84 -39q0 -59 -2 -148t-2 -147v-82q0 -147 49 -161q51 -16 89 -17q154 0 269.5 14.5t173.5 36t97 47t50.5 47t22.5 36t23 14.5q25 0 25 -35q0 -88 -88 -178t-154 -90 q-147 0 -332.5 10t-230.5 10q-57 0 -143 -9t-135 -9q-43 0 -43 20v24q0 6 6 10.5t13 5.5t26.5 7.5t42.5 16.5q49 25 64.5 96.5t15.5 300.5v254q0 55 3 172t3 182q0 55 -4 187q-2 59 -51.5 92t-114.5 35q-33 0 -33 37z" />
<glyph unicode="&#xca;" horiz-adv-x="1236" d="M401 1563q0 2 9 18l64 97q30 46 46 74l30 52q13 24 18 34.5t11.5 18t10.5 9.5t12 2h51q23 0 35 -23q33 -57 78 -125l72 -108q26 -39 26 -47q0 -16 -22 -17q-14 0 -109.5 87t-101.5 87q-12 0 -103.5 -86t-105.5 -86q-21 1 -21 13zM41 1432q0 29 57 28q8 0 26.5 -2t29.5 -2 q6 0 192 -5t307 -5q43 0 212 4t198 4q39 0 39 -47q0 -12 -12.5 -81t-12.5 -128q0 -18 -10 -31.5t-23 -13.5q-31 0 -30 43q0 55 -35 100t-86 47q-184 14 -283 15h-53q-106 0 -123.5 -15.5t-21.5 -109.5q-8 -147 -9 -342q0 -102 39 -105h52h86h63q123 0 164 8.5t74 30.5 q39 27 47 76q6 35 28 35q18 0 22.5 -6t4.5 -27q0 -14 -8 -94t-8 -121q0 -39 3 -73.5t3 -51.5q0 -51 -15 -51q-31 0 -45 49q-29 86 -51 101q-43 29 -196 28h-100q-38 0 -49 1t-18 1h-14q-84 0 -84 -39q0 -59 -2 -148t-2 -147v-82q0 -147 49 -161q51 -16 89 -17 q154 0 269.5 14.5t173.5 36t97 47t50.5 47t22.5 36t23 14.5q25 0 25 -35q0 -88 -88 -178t-154 -90q-147 0 -332.5 10t-230.5 10q-57 0 -143 -9t-135 -9q-43 0 -43 20v24q0 6 6 10.5t13 5.5t26.5 7.5t42.5 16.5q49 25 64.5 96.5t15.5 300.5v254q0 55 3 172t3 182q0 55 -4 187 q-2 59 -51.5 92t-114.5 35q-33 0 -33 37z" />
<glyph unicode="&#xcb;" horiz-adv-x="1236" d="M393 1751q0 29 32 66.5t64 37.5q35 0 67 -35.5t32 -68.5t-36 -71t-52 -38q-41 0 -74 40t-33 69zM721 1751q0 29 31.5 66.5t64.5 37.5q35 0 66.5 -35.5t31.5 -68.5t-35.5 -71t-54.5 -38q-41 0 -72.5 40t-31.5 69zM41 1432q0 29 57 28q8 0 26.5 -2t29.5 -2q6 0 192 -5 t307 -5q43 0 212 4t198 4q39 0 39 -47q0 -12 -12.5 -81t-12.5 -128q0 -18 -10 -31.5t-23 -13.5q-31 0 -30 43q0 55 -35 100t-86 47q-184 14 -283 15h-53q-106 0 -123.5 -15.5t-21.5 -109.5q-8 -147 -9 -342q0 -102 39 -105h52h86h63q123 0 164 8.5t74 30.5q39 27 47 76 q6 35 28 35q18 0 22.5 -6t4.5 -27q0 -14 -8 -94t-8 -121q0 -39 3 -73.5t3 -51.5q0 -51 -15 -51q-31 0 -45 49q-29 86 -51 101q-43 29 -196 28h-100q-38 0 -49 1t-18 1h-14q-84 0 -84 -39q0 -59 -2 -148t-2 -147v-82q0 -147 49 -161q51 -16 89 -17q154 0 269.5 14.5t173.5 36 t97 47t50.5 47t22.5 36t23 14.5q25 0 25 -35q0 -88 -88 -178t-154 -90q-147 0 -332.5 10t-230.5 10q-57 0 -143 -9t-135 -9q-43 0 -43 20v24q0 6 6 10.5t13 5.5t26.5 7.5t42.5 16.5q49 25 64.5 96.5t15.5 300.5v254q0 55 3 172t3 182q0 55 -4 187q-2 59 -51.5 92t-114.5 35 q-33 0 -33 37z" />
<glyph unicode="&#xcc;" horiz-adv-x="671" d="M80 1843q0 27 43 40t65 13q25 0 41 -38q29 -70 57 -128q26 -58 44 -86l30 -48l19 -32q6 -10 6 -18q0 -23 -25 -22q-20 0 -79 63q-201 211 -201 256zM41 1423q0 31 57 31q20 0 94 -4t138 -4q39 0 74.5 2t105.5 2q55 0 55 -29q0 -16 -94 -55q-66 -27 -65 -236 q0 -276 -4 -488t-3 -269q0 -172 52 -248q45 -63 98 -64q4 0 20.5 -1t20.5 -1q14 0 28.5 -7t14.5 -15q0 -23 -11.5 -30t-39.5 -7q-61 0 -113.5 4t-81.5 4q-57 0 -124.5 -5t-100.5 -5q-92 0 -92 31q0 18 19.5 25t44 10.5t51 27t36.5 68.5q4 14 13.5 232t9.5 315v116 q0 27 1 101.5t1 119.5v95q0 90 -8 149q-6 49 -54.5 76t-99.5 29q-43 1 -43 30z" />
<glyph unicode="&#xcd;" horiz-adv-x="671" d="M227 1546q0 10 14.5 31.5t54.5 95.5t85 185q16 39 43 38q23 0 64.5 -13t41.5 -40q0 -47 -198 -256q-59 -63 -80 -63q-25 -1 -25 22zM41 1423q0 31 57 31q20 0 94 -4t138 -4q39 0 74.5 2t105.5 2q55 0 55 -29q0 -16 -94 -55q-66 -27 -65 -236q0 -276 -4 -488t-3 -269 q0 -172 52 -248q45 -63 98 -64q4 0 20.5 -1t20.5 -1q14 0 28.5 -7t14.5 -15q0 -23 -11.5 -30t-39.5 -7q-61 0 -113.5 4t-81.5 4q-57 0 -124.5 -5t-100.5 -5q-92 0 -92 31q0 18 19.5 25t44 10.5t51 27t36.5 68.5q4 14 13.5 232t9.5 315v116q0 27 1 101.5t1 119.5v95 q0 90 -8 149q-6 49 -54.5 76t-99.5 29q-43 1 -43 30z" />
<glyph unicode="&#xce;" horiz-adv-x="671" d="M76 1563q0 2 8 18l64 97q30 46 46 74l30 52q14 24 19 34.5t11 18t10 9.5t12 2h52q23 0 34 -23q33 -57 78 -125l72 -108q27 -39 27 -47q0 -16 -23 -17q-14 0 -109.5 87t-101.5 87q-12 0 -103 -86t-106 -86q-20 1 -20 13zM41 1423q0 31 57 31q20 0 94 -4t138 -4 q39 0 74.5 2t105.5 2q55 0 55 -29q0 -16 -94 -55q-66 -27 -65 -236q0 -276 -4 -488t-3 -269q0 -172 52 -248q45 -63 98 -64q4 0 20.5 -1t20.5 -1q14 0 28.5 -7t14.5 -15q0 -23 -11.5 -30t-39.5 -7q-61 0 -113.5 4t-81.5 4q-57 0 -124.5 -5t-100.5 -5q-92 0 -92 31 q0 18 19.5 25t44 10.5t51 27t36.5 68.5q4 14 13.5 232t9.5 315v116q0 27 1 101.5t1 119.5v95q0 90 -8 149q-6 49 -54.5 76t-99.5 29q-43 1 -43 30z" />
<glyph unicode="&#xcf;" horiz-adv-x="671" d="M68 1751q0 29 31.5 66.5t64.5 37.5q35 0 66.5 -35.5t31.5 -68.5t-36 -71t-52 -38q-41 0 -73.5 40t-32.5 69zM395 1751q0 29 32 66.5t65 37.5q35 0 66.5 -35.5t31.5 -68.5t-36 -71t-54 -38q-41 0 -73 40t-32 69zM41 1423q0 31 57 31q20 0 94 -4t138 -4q39 0 74.5 2 t105.5 2q55 0 55 -29q0 -16 -94 -55q-66 -27 -65 -236q0 -276 -4 -488t-3 -269q0 -172 52 -248q45 -63 98 -64q4 0 20.5 -1t20.5 -1q14 0 28.5 -7t14.5 -15q0 -23 -11.5 -30t-39.5 -7q-61 0 -113.5 4t-81.5 4q-57 0 -124.5 -5t-100.5 -5q-92 0 -92 31q0 18 19.5 25t44 10.5 t51 27t36.5 68.5q4 14 13.5 232t9.5 315v116q0 27 1 101.5t1 119.5v95q0 90 -8 149q-6 49 -54.5 76t-99.5 29q-43 1 -43 30z" />
<glyph unicode="&#xd0;" horiz-adv-x="1622" d="M41 1434q0 18 17.5 21t86.5 3h179q51 0 188 4t211 4q141 0 282.5 -43t260 -123.5t192.5 -211t74 -289.5q0 -143 -19.5 -249t-64.5 -182.5t-90 -124.5t-123 -114q-61 -49 -178 -92t-240 -43q-12 0 -208.5 5t-282.5 5q-72 0 -133.5 -5t-71.5 -5q-49 0 -49 26q0 16 7 23.5 t30.5 13.5t33.5 11q33 14 60.5 54t27.5 79q0 94 1 244.5t1 218.5q0 18 -5 25t-23 7h-133q-25 0 -25 47q0 41 25 41q12 0 42.5 1t90.5 1q20 0 24 6.5t4 28.5q0 55 -1 196.5t-1 258.5q0 35 -33.5 70.5t-74.5 37.5q-29 2 -42 4.5t-26.5 14t-13.5 31.5zM403 289q0 -39 1.5 -63.5 t8.5 -44t11 -29t24.5 -19.5t33 -13t48 -12.5t60.5 -17.5q72 -20 149 -20h41q139 0 237.5 40t188.5 126q152 145 152 471q0 164 -64.5 297t-169 211.5t-225.5 120.5t-244 42h-81q-26 0 -59.5 -5t-44.5 -8t-27.5 -20.5t-19.5 -29.5t-8 -48q-5 -37 -5 -63v-86q0 -20 -1 -125.5 t-1 -161.5q0 -29 6 -37t37 -8h309q29 0 36 -10t7 -37q0 -16 -2 -23t-12.5 -13.5t-32.5 -6.5q-43 0 -151.5 -1t-155.5 -1h-21q-16 0 -19 -4t-3 -20v-11q0 -82 -1.5 -212.5t-1.5 -157.5z" />
<glyph unicode="&#xd1;" horiz-adv-x="1634" d="M512 1626q0 35 68.5 126t130.5 91q51 0 129 -49t127 -49q41 0 82 57.5t45 57.5q20 0 20 -25q0 -37 -67.5 -123t-128.5 -86q-53 0 -134.5 49t-124.5 49q-31 0 -58.5 -28.5t-44.5 -57t-24 -28.5q-20 0 -20 16zM41 1415q0 12 14.5 23.5t36.5 11.5q12 0 41 -1t37 -1 q31 0 57.5 2t42.5 2q18 0 43 -11t29 -24l22 -27l50 -57q30 -35 55 -67q279 -362 745 -875q12 -14 30 -32.5t25 -27.5t15 -17.5t13.5 -11.5t9.5 -3q20 0 20 127v240q0 137 -1 231t-2 136t-1 52v15q0 70 -9 119t-21.5 75.5t-36 45t-40 23.5t-47 11t-43.5 10q-41 12 -41 35 q0 31 39 31q12 0 98.5 -1t96.5 -1q49 0 109.5 2t74.5 2q35 0 48.5 -7t13.5 -28q0 -8 -11.5 -15t-23.5 -12.5t-25 -9.5l-12 -4q-68 -37 -68 -231v-78q0 -156 -11 -540t-11 -474v-41q0 -47 -29 -47q-18 0 -33 15l-812 936q-132 148 -146 149q-20 0 -21 -139q0 -195 -8 -419 t-8 -245q0 -92 32 -140t68.5 -54.5t68.5 -13.5t32 -27q0 -23 -7.5 -29t-25.5 -6q-14 0 -64.5 2t-154.5 2q-18 0 -75.5 -2t-98.5 -2q-45 0 -45 33q0 18 26.5 23t65.5 31.5t59 100.5q12 47 30.5 381t18.5 461q0 176 -49 263t-159 99q-27 2 -27 31z" />
<glyph unicode="&#xd2;" horiz-adv-x="1746" d="M631 1843q0 27 43 40t65 13q25 0 41 -38q29 -70 56 -128q28 -58 46 -86l30 -48l18 -32q6 -10 6 -18q0 -23 -25 -22q-20 0 -80 63q-200 211 -200 256zM90 694q0 344 207 564.5t586 220.5q176 0 317 -51.5t223 -126t137.5 -171t76 -177.5t20.5 -150q0 -279 -108.5 -470.5 t-286 -278.5t-408.5 -87q-244 0 -421 106.5t-260 268.5t-83 352zM270 799q0 -82 22.5 -177.5t74 -196.5t124 -182t184 -133.5t245.5 -52.5q70 0 146.5 21.5t152 66.5t135 109.5t97.5 158t38 201.5q0 371 -194.5 577t-481.5 206q-225 0 -384 -151.5t-159 -446.5z" />
<glyph unicode="&#xd3;" horiz-adv-x="1746" d="M778 1546q0 10 14.5 31.5t54.5 95.5t85 185q16 39 43 38q23 0 64.5 -13t41.5 -40q0 -47 -198 -256q-59 -63 -80 -63q-25 -1 -25 22zM90 694q0 344 207 564.5t586 220.5q176 0 317 -51.5t223 -126t137.5 -171t76 -177.5t20.5 -150q0 -279 -108.5 -470.5t-286 -278.5 t-408.5 -87q-244 0 -421 106.5t-260 268.5t-83 352zM270 799q0 -82 22.5 -177.5t74 -196.5t124 -182t184 -133.5t245.5 -52.5q70 0 146.5 21.5t152 66.5t135 109.5t97.5 158t38 201.5q0 371 -194.5 577t-481.5 206q-225 0 -384 -151.5t-159 -446.5z" />
<glyph unicode="&#xd4;" horiz-adv-x="1746" d="M627 1563q0 2 8 18l65 97q30 46 46 74l29 52l18.5 34.5t11.5 18t10 9.5t12 2h52q23 0 34 -23q33 -57 78 -125l72 -108q27 -39 27 -47q0 -16 -23 -17q-14 0 -109.5 87t-101.5 87q-12 0 -103 -86t-106 -86q-20 1 -20 13zM90 694q0 344 207 564.5t586 220.5q176 0 317 -51.5 t223 -126t137.5 -171t76 -177.5t20.5 -150q0 -279 -108.5 -470.5t-286 -278.5t-408.5 -87q-244 0 -421 106.5t-260 268.5t-83 352zM270 799q0 -82 22.5 -177.5t74 -196.5t124 -182t184 -133.5t245.5 -52.5q70 0 146.5 21.5t152 66.5t135 109.5t97.5 158t38 201.5 q0 371 -194.5 577t-481.5 206q-225 0 -384 -151.5t-159 -446.5z" />
<glyph unicode="&#xd5;" horiz-adv-x="1746" d="M555 1626q0 35 68.5 126t130.5 91q49 0 126.5 -49t129.5 -49q29 0 56.5 28.5t45.5 57.5t25 29q20 0 20 -25q0 -37 -67.5 -123t-128.5 -86q-53 0 -134.5 49t-124.5 49q-31 0 -58.5 -28.5t-44.5 -57t-24 -28.5q-20 0 -20 16zM90 694q0 344 207 564.5t586 220.5 q176 0 317 -51.5t223 -126t137.5 -171t76 -177.5t20.5 -150q0 -279 -108.5 -470.5t-286 -278.5t-408.5 -87q-244 0 -421 106.5t-260 268.5t-83 352zM270 799q0 -82 22.5 -177.5t74 -196.5t124 -182t184 -133.5t245.5 -52.5q70 0 146.5 21.5t152 66.5t135 109.5t97.5 158 t38 201.5q0 371 -194.5 577t-481.5 206q-225 0 -384 -151.5t-159 -446.5z" />
<glyph unicode="&#xd6;" horiz-adv-x="1746" d="M618 1751q0 29 32 66.5t65 37.5q35 0 66.5 -35.5t31.5 -68.5t-36 -71t-52 -38q-41 0 -74 40t-33 69zM946 1751q0 29 32 66.5t64 37.5q35 0 67 -35.5t32 -68.5t-36 -71t-54 -38q-41 0 -73 40t-32 69zM90 694q0 344 207 564.5t586 220.5q176 0 317 -51.5t223 -126 t137.5 -171t76 -177.5t20.5 -150q0 -279 -108.5 -470.5t-286 -278.5t-408.5 -87q-244 0 -421 106.5t-260 268.5t-83 352zM270 799q0 -82 22.5 -177.5t74 -196.5t124 -182t184 -133.5t245.5 -52.5q70 0 146.5 21.5t152 66.5t135 109.5t97.5 158t38 201.5q0 371 -194.5 577 t-481.5 206q-225 0 -384 -151.5t-159 -446.5z" />
<glyph unicode="&#xd7;" horiz-adv-x="1079" d="M180 733q0 10 21.5 31.5t36.5 21.5q12 0 28 -16l238 -235q25 -25 39 -25q12 0 22 10l256 256q12 12 25 12q10 0 30.5 -20t20.5 -32.5t-18 -30.5l-248 -248q-16 -16 -17 -27q0 -8 17 -24l254 -254q12 -12 12 -24.5t-21.5 -34t-31.5 -21.5q-12 0 -27 14l-252 254 q-14 14 -26 14q-10 0 -33 -22l-246 -246q-14 -14 -24.5 -14t-32 20.5t-21.5 32.5q0 10 17 27l245 247q18 18 18.5 30.5t-13.5 27.5l-254 254q-15 14 -15 22z" />
<glyph unicode="&#xd8;" horiz-adv-x="1746" d="M90 694q0 344 207 564.5t586 220.5q68 0 123 -7.5t85.5 -14.5t38.5 -7q20 0 39 35l60 127q20 43 43 43q4 0 13 -4t11 -4q27 -8 27 -29q0 -10 -2 -19l-64 -135q-14 -33 -14 -37q0 -14 23 -26q141 -66 234 -183.5t125 -221t32 -193.5q0 -279 -108.5 -470.5t-286 -278.5 t-408.5 -87q-68 0 -125 8.5t-90 16.5t-41 8q-23 0 -37 -31l-90 -190q-14 -25 -31 -25q-57 0 -57 35q0 14 6 25l94 200q4 12 4 15q0 10 -7 16t-36.5 22.5t-62.5 38.5q-141 100 -216 257t-75 331zM270 799q0 -94 26 -190.5t63.5 -168t78.5 -130t73 -88t44 -29.5t20 20 l494 1055q20 41 21 51q0 31 -97.5 54.5t-179.5 23.5q-225 0 -384 -151.5t-159 -446.5zM643 139q0 -25 92 -53.5t185 -28.5q70 0 146.5 21.5t152 66.5t135 109.5t97.5 158t38 201.5q0 137 -31 257t-74 192t-89 124t-75.5 73.5t-33.5 21.5q-8 0 -29.5 -43t-141.5 -298 l-358 -767q-14 -25 -14 -35z" />
<glyph unicode="&#xd9;" horiz-adv-x="1669" d="M668 1843q0 27 43 40t65 13q25 0 41 -38q29 -70 57 -128q26 -58 44 -86l30 -48l19 -32q6 -10 6 -18q0 -23 -25 -22q-20 0 -80 63q-200 211 -200 256zM41 1427q0 10 2 14.5t12.5 8.5t33 4t94 -4t136.5 -4q41 0 75 2t118 2q43 0 43 -29q0 -18 -14.5 -22t-36 -6t-43 -14.5 t-35.5 -60.5t-14 -130v-58q0 -96 -1 -242.5t-1 -199.5q0 -63 1 -96t5 -95.5t11 -98.5t23.5 -88t40 -82.5t59.5 -67.5t83 -56.5t110.5 -33t141.5 -13.5q66 0 102.5 2t101 13.5t102.5 33t86 65.5t74.5 107.5t45 162t18.5 223.5q0 207 -1 315t-1 119q0 72 -3 112.5t-20.5 90 t-50.5 71.5q-20 14 -53 19.5t-53.5 8.5t-20.5 17q0 33 41 33q12 0 80 -2t78 -2q49 0 104.5 3t69.5 3q43 0 43 -27q0 -16 -44 -41.5t-54 -46.5q-23 -43 -23 -135q0 -14 1 -58t1 -79q0 -393 -32.5 -602t-99 -304.5t-199.5 -152.5q-109 -45 -293 -45q-342 0 -486 131 q-113 104 -139.5 250.5t-26.5 505.5v35q0 80 2.5 176t2.5 119q0 113 -27 154.5t-125 56.5q-45 5 -45 38z" />
<glyph unicode="&#xda;" horiz-adv-x="1669" d="M815 1546q0 10 14.5 31.5t54.5 95.5t85 185q16 39 43 38q23 0 64.5 -13t41.5 -40q0 -47 -198 -256q-59 -63 -80 -63q-25 -1 -25 22zM41 1427q0 10 2 14.5t12.5 8.5t33 4t94 -4t136.5 -4q41 0 75 2t118 2q43 0 43 -29q0 -18 -14.5 -22t-36 -6t-43 -14.5t-35.5 -60.5 t-14 -130v-58q0 -96 -1 -242.5t-1 -199.5q0 -63 1 -96t5 -95.5t11 -98.5t23.5 -88t40 -82.5t59.5 -67.5t83 -56.5t110.5 -33t141.5 -13.5q66 0 102.5 2t101 13.5t102.5 33t86 65.5t74.5 107.5t45 162t18.5 223.5q0 207 -1 315t-1 119q0 72 -3 112.5t-20.5 90t-50.5 71.5 q-20 14 -53 19.5t-53.5 8.5t-20.5 17q0 33 41 33q12 0 80 -2t78 -2q49 0 104.5 3t69.5 3q43 0 43 -27q0 -16 -44 -41.5t-54 -46.5q-23 -43 -23 -135q0 -14 1 -58t1 -79q0 -393 -32.5 -602t-99 -304.5t-199.5 -152.5q-109 -45 -293 -45q-342 0 -486 131 q-113 104 -139.5 250.5t-26.5 505.5v35q0 80 2.5 176t2.5 119q0 113 -27 154.5t-125 56.5q-45 5 -45 38z" />
<glyph unicode="&#xdb;" horiz-adv-x="1669" d="M664 1563q0 2 8 18l64 97q30 46 46 74l30 52l18.5 34.5t11.5 18t10 9.5t12 2h51q23 0 35 -23q33 -57 78 -125l72 -108q26 -39 26 -47q0 -16 -22 -17q-14 0 -109.5 87t-101.5 87q-12 0 -103.5 -86t-105.5 -86q-20 1 -20 13zM41 1427q0 10 2 14.5t12.5 8.5t33 4t94 -4 t136.5 -4q41 0 75 2t118 2q43 0 43 -29q0 -18 -14.5 -22t-36 -6t-43 -14.5t-35.5 -60.5t-14 -130v-58q0 -96 -1 -242.5t-1 -199.5q0 -63 1 -96t5 -95.5t11 -98.5t23.5 -88t40 -82.5t59.5 -67.5t83 -56.5t110.5 -33t141.5 -13.5q66 0 102.5 2t101 13.5t102.5 33t86 65.5 t74.5 107.5t45 162t18.5 223.5q0 207 -1 315t-1 119q0 72 -3 112.5t-20.5 90t-50.5 71.5q-20 14 -53 19.5t-53.5 8.5t-20.5 17q0 33 41 33q12 0 80 -2t78 -2q49 0 104.5 3t69.5 3q43 0 43 -27q0 -16 -44 -41.5t-54 -46.5q-23 -43 -23 -135q0 -14 1 -58t1 -79 q0 -393 -32.5 -602t-99 -304.5t-199.5 -152.5q-109 -45 -293 -45q-342 0 -486 131q-113 104 -139.5 250.5t-26.5 505.5v35q0 80 2.5 176t2.5 119q0 113 -27 154.5t-125 56.5q-45 5 -45 38z" />
<glyph unicode="&#xdc;" horiz-adv-x="1669" d="M655 1751q0 29 32 66.5t65 37.5q35 0 66.5 -35.5t31.5 -68.5t-36 -71t-52 -38q-41 0 -74 40t-33 69zM983 1751q0 29 32 66.5t64 37.5q35 0 67 -35.5t32 -68.5t-36 -71t-55 -38q-41 0 -72.5 40t-31.5 69zM41 1427q0 10 2 14.5t12.5 8.5t33 4t94 -4t136.5 -4q41 0 75 2 t118 2q43 0 43 -29q0 -18 -14.5 -22t-36 -6t-43 -14.5t-35.5 -60.5t-14 -130v-58q0 -96 -1 -242.5t-1 -199.5q0 -63 1 -96t5 -95.5t11 -98.5t23.5 -88t40 -82.5t59.5 -67.5t83 -56.5t110.5 -33t141.5 -13.5q66 0 102.5 2t101 13.5t102.5 33t86 65.5t74.5 107.5t45 162 t18.5 223.5q0 207 -1 315t-1 119q0 72 -3 112.5t-20.5 90t-50.5 71.5q-20 14 -53 19.5t-53.5 8.5t-20.5 17q0 33 41 33q12 0 80 -2t78 -2q49 0 104.5 3t69.5 3q43 0 43 -27q0 -16 -44 -41.5t-54 -46.5q-23 -43 -23 -135q0 -14 1 -58t1 -79q0 -393 -32.5 -602t-99 -304.5 t-199.5 -152.5q-109 -45 -293 -45q-342 0 -486 131q-113 104 -139.5 250.5t-26.5 505.5v35q0 80 2.5 176t2.5 119q0 113 -27 154.5t-125 56.5q-45 5 -45 38z" />
<glyph unicode="&#xdd;" horiz-adv-x="1458" d="M688 1546q0 10 14.5 31.5t54.5 95.5t85 185q16 39 43 38q23 0 64.5 -13t41.5 -40q0 -47 -198 -256q-59 -63 -80 -63q-25 -1 -25 22zM41 1409q0 23 23.5 29t103.5 6q12 0 56 -2t63 -2q23 0 83 1t91 1q102 0 102 -25q0 -23 -43 -38t-43 -33q0 -20 13.5 -53t26.5 -53l40 -61 l31 -46q70 -111 144.5 -211.5t84.5 -100.5q12 0 30.5 23.5t51.5 79t55 88.5q6 10 30 45l33 49l27 44l27 45l19 37q12 22 16 36t4 26q0 66 -70 82q-8 2 -23.5 4t-22.5 4t-17 6.5t-14.5 11.5t-4.5 17q0 25 58 25q10 0 37.5 -1t46.5 -1q47 0 113.5 -1t103.5 -1q100 0 100 -31 q0 -8 -12 -14l-35 -17q-22 -10 -41 -24q-84 -66 -246.5 -311.5t-185.5 -274.5q-33 -41 -41 -90t-8 -168q0 -27 1 -114t1 -124v-49q0 -68 23.5 -106.5t44 -46t40.5 -7.5q4 0 20.5 -1t20.5 -1q14 0 22.5 -9t8.5 -19q0 -20 -10 -26.5t-39 -6.5q-10 0 -89 1t-116 1 q-72 0 -131 -4t-94 -4q-57 0 -57 22q0 18 11 25.5t37.5 9.5t39.5 6q86 27 86 125q0 12 1 40t2 118t1 258q0 33 -5 56.5t-13 45.5q-6 23 -34 66l-54 83l-92 134l-124 184q-63 96 -114.5 146.5t-79 59.5t-64.5 9q-51 0 -51 27z" />
<glyph unicode="&#xde;" horiz-adv-x="1163" d="M41 1423q0 31 57 31q20 0 94 -4t138 -4q39 0 74.5 2t105.5 2q55 0 55 -29q0 -16 -94 -55q-33 -14 -49 -74.5t-16 -120.5q0 -14 3 -18t19 -4q14 0 86 4t119 4q193 0 332 -98t139 -281q0 -100 -37 -179t-89 -124t-117.5 -74.5t-116 -39t-89.5 -9.5q-66 0 -133 16.5 t-67 32.5q0 31 26 31q10 0 43 -8t62 -8q47 0 101 13t111.5 43t94.5 90.5t37 139.5q0 137 -111.5 255t-306.5 118q-66 0 -87.5 -41t-21.5 -178v-350q-4 0 -4 -144v-43q0 -90 18.5 -147t47.5 -75.5t61.5 -27t61 -5t47 -6t18.5 -33.5q0 -33 -45 -33q-47 0 -165.5 4t-127.5 4 q-20 0 -81.5 -4t-110.5 -4q-63 0 -64 24q0 14 3.5 22.5t12.5 13.5t16 7t22.5 5.5t25.5 5.5q30 7 41 20q59 77 60 492q0 158 1 253t2 118.5t2 44t1 46.5v95q0 90 -8 149q-6 49 -54.5 76t-99.5 29q-43 1 -43 30z" />
<glyph unicode="&#xdf;" horiz-adv-x="1079" d="M41 16q0 14 17.5 21.5t39 11.5t39 29.5t17.5 75.5v598q0 2 -34 27.5t-34 37.5q0 23 34 29t34 20q0 260 113.5 436.5t295.5 176.5q45 0 87 -10.5t86 -35t71 -76.5t27 -128q0 -84 -39 -160t-85 -121t-85 -99t-39 -97q0 -61 65.5 -120t143 -103t143.5 -119.5t66 -165.5 q0 -27 -5.5 -57.5t-23 -70.5t-44 -71t-74.5 -52.5t-112 -21.5q-37 0 -73.5 7.5t-58 14.5t-47 17t-29.5 13q-8 2 -19.5 6t-16.5 5t-13.5 5t-11.5 7t-7 9t-5 14.5t-1 18.5v178q0 23 9 38t22 15q20 0 27 -9t13.5 -37.5t12.5 -41.5q0 -2 8 -22.5t13 -31.5l16 -33q10 -22 20 -36 t25.5 -32.5t31 -28.5t37 -17t43.5 -7q57 0 104.5 39.5t47.5 119.5q0 51 -43 100q-42 48 -104 87l-124 81q-62 42 -104.5 102t-42.5 130q0 51 23 100q24 48 58 94l68 93q34 47 58.5 112.5t24.5 139.5q0 100 -46.5 154.5t-113.5 54.5q-33 0 -63.5 -11.5t-65.5 -46.5t-60.5 -92 t-42 -158.5t-16.5 -234.5q0 -10 2 -61.5t2 -65.5l-5 -146q-5 -145 -5 -270v-143q0 -82 17.5 -115t60.5 -43q45 -10 45 -35q0 -18 -39 -18q-2 0 -24.5 2t-54.5 4t-52 2q-37 0 -102.5 -3t-69.5 -3q-33 -1 -33 24z" />
<glyph unicode="&#xe0;" horiz-adv-x="944" d="M229 1303q0 27 43 40t66 13q25 0 41 -39q29 -70 57 -127q26 -57 44 -86l30 -50q12 -20 18.5 -30t6.5 -18q0 -23 -25 -23q-20 0 -80 64q-201 211 -201 256zM98 174q0 74 31 124t93.5 77.5t130 44t164.5 32.5q34 5 52 9q14 2 19.5 4t10.5 9t5 20q0 23 2 57.5t2 48.5 q0 117 -67.5 169t-130.5 52q-147 0 -148 -123q0 -16 4 -40.5t4 -32.5q0 -41 -37 -41q-12 0 -30.5 3t-42 10t-39 24.5t-15.5 42.5q0 80 108 152.5t237 72.5q88 0 149.5 -20.5t91 -46t46 -67.5t18.5 -65.5t2 -58.5q0 -147 -5 -232.5t-5 -148.5q0 -76 16 -120t38.5 -56.5 t45 -14.5t39 -8t16.5 -24q0 -43 -129 -43q-53 0 -91 28.5t-54.5 56t-18.5 27.5t-16 -13t-40 -31.5t-57.5 -37t-73.5 -32t-83 -13.5q-131 0 -190 62q-52 51 -52 143zM258 205q0 -70 41 -112t117 -42q53 0 91 16.5t56.5 37t28.5 54.5t11 52t1 49v148q0 18 -14 18 q-4 0 -10.5 -2t-10.5 -2l-59 -10q-12 -2 -57 -12.5t-62.5 -18.5t-49.5 -25.5t-45 -37t-25.5 -49t-12.5 -64.5z" />
<glyph unicode="&#xe1;" horiz-adv-x="944" d="M377 1006q0 10 14.5 31.5t54 95t84.5 184.5q16 39 43 39q23 0 65 -13.5t42 -39.5q0 -47 -199 -256q-59 -63 -80 -64q-24 0 -24 23zM98 174q0 74 31 124t93.5 77.5t130 44t164.5 32.5q34 5 52 9q14 2 19.5 4t10.5 9t5 20q0 23 2 57.5t2 48.5q0 117 -67.5 169t-130.5 52 q-147 0 -148 -123q0 -16 4 -40.5t4 -32.5q0 -41 -37 -41q-12 0 -30.5 3t-42 10t-39 24.5t-15.5 42.5q0 80 108 152.5t237 72.5q88 0 149.5 -20.5t91 -46t46 -67.5t18.5 -65.5t2 -58.5q0 -147 -5 -232.5t-5 -148.5q0 -76 16 -120t38.5 -56.5t45 -14.5t39 -8t16.5 -24 q0 -43 -129 -43q-53 0 -91 28.5t-54.5 56t-18.5 27.5t-16 -13t-40 -31.5t-57.5 -37t-73.5 -32t-83 -13.5q-131 0 -190 62q-52 51 -52 143zM258 205q0 -70 41 -112t117 -42q53 0 91 16.5t56.5 37t28.5 54.5t11 52t1 49v148q0 18 -14 18q-4 0 -10.5 -2t-10.5 -2l-59 -10 q-12 -2 -57 -12.5t-62.5 -18.5t-49.5 -25.5t-45 -37t-25.5 -49t-12.5 -64.5z" />
<glyph unicode="&#xe2;" horiz-adv-x="944" d="M225 1022q0 2 8 18l65 98q30 46 46 74l30 50q14 24 18.5 35.5t11 18.5t10.5 9t12 2h51q23 0 35 -22q33 -57 78 -126l72 -108q26 -39 26 -47q0 -16 -22 -16q-14 0 -109.5 87t-101.5 87q-12 0 -103.5 -86t-105.5 -86q-21 0 -21 12zM98 174q0 74 31 124t93.5 77.5t130 44 t164.5 32.5q34 5 52 9q14 2 19.5 4t10.5 9t5 20q0 23 2 57.5t2 48.5q0 117 -67.5 169t-130.5 52q-147 0 -148 -123q0 -16 4 -40.5t4 -32.5q0 -41 -37 -41q-12 0 -30.5 3t-42 10t-39 24.5t-15.5 42.5q0 80 108 152.5t237 72.5q88 0 149.5 -20.5t91 -46t46 -67.5t18.5 -65.5 t2 -58.5q0 -147 -5 -232.5t-5 -148.5q0 -76 16 -120t38.5 -56.5t45 -14.5t39 -8t16.5 -24q0 -43 -129 -43q-53 0 -91 28.5t-54.5 56t-18.5 27.5t-16 -13t-40 -31.5t-57.5 -37t-73.5 -32t-83 -13.5q-131 0 -190 62q-52 51 -52 143zM258 205q0 -70 41 -112t117 -42 q53 0 91 16.5t56.5 37t28.5 54.5t11 52t1 49v148q0 18 -14 18q-4 0 -10.5 -2t-10.5 -2l-59 -10q-12 -2 -57 -12.5t-62.5 -18.5t-49.5 -25.5t-45 -37t-25.5 -49t-12.5 -64.5z" />
<glyph unicode="&#xe3;" horiz-adv-x="944" d="M154 1085q0 35 68.5 126.5t129.5 91.5q49 0 127 -49.5t129 -49.5q29 0 56.5 29t46 57.5t24.5 28.5q20 0 21 -25q0 -37 -67.5 -123t-129.5 -86q-53 0 -134 49.5t-124 49.5q-31 0 -58.5 -29t-45 -57.5t-23.5 -28.5q-20 0 -20 16zM98 174q0 74 31 124t93.5 77.5t130 44 t164.5 32.5q34 5 52 9q14 2 19.5 4t10.5 9t5 20q0 23 2 57.5t2 48.5q0 117 -67.5 169t-130.5 52q-147 0 -148 -123q0 -16 4 -40.5t4 -32.5q0 -41 -37 -41q-12 0 -30.5 3t-42 10t-39 24.5t-15.5 42.5q0 80 108 152.5t237 72.5q88 0 149.5 -20.5t91 -46t46 -67.5t18.5 -65.5 t2 -58.5q0 -147 -5 -232.5t-5 -148.5q0 -76 16 -120t38.5 -56.5t45 -14.5t39 -8t16.5 -24q0 -43 -129 -43q-53 0 -91 28.5t-54.5 56t-18.5 27.5t-16 -13t-40 -31.5t-57.5 -37t-73.5 -32t-83 -13.5q-131 0 -190 62q-52 51 -52 143zM258 205q0 -70 41 -112t117 -42 q53 0 91 16.5t56.5 37t28.5 54.5t11 52t1 49v148q0 18 -14 18q-4 0 -10.5 -2t-10.5 -2l-59 -10q-12 -2 -57 -12.5t-62.5 -18.5t-49.5 -25.5t-45 -37t-25.5 -49t-12.5 -64.5z" />
<glyph unicode="&#xe4;" horiz-adv-x="944" d="M217 1210.5q0 28.5 32 66.5t64 38q35 0 67 -36t32 -68.5t-36 -70.5t-52 -38q-41 0 -74 40t-33 68.5zM545 1210.5q0 28.5 31.5 66.5t64.5 38q35 0 66.5 -36t31.5 -68.5t-35.5 -70.5t-54.5 -38q-41 0 -72.5 40t-31.5 68.5zM98 174q0 74 31 124t93.5 77.5t130 44t164.5 32.5 q34 5 52 9q14 2 19.5 4t10.5 9t5 20q0 23 2 57.5t2 48.5q0 117 -67.5 169t-130.5 52q-147 0 -148 -123q0 -16 4 -40.5t4 -32.5q0 -41 -37 -41q-12 0 -30.5 3t-42 10t-39 24.5t-15.5 42.5q0 80 108 152.5t237 72.5q88 0 149.5 -20.5t91 -46t46 -67.5t18.5 -65.5t2 -58.5 q0 -147 -5 -232.5t-5 -148.5q0 -76 16 -120t38.5 -56.5t45 -14.5t39 -8t16.5 -24q0 -43 -129 -43q-53 0 -91 28.5t-54.5 56t-18.5 27.5t-16 -13t-40 -31.5t-57.5 -37t-73.5 -32t-83 -13.5q-131 0 -190 62q-52 51 -52 143zM258 205q0 -70 41 -112t117 -42q53 0 91 16.5 t56.5 37t28.5 54.5t11 52t1 49v148q0 18 -14 18q-4 0 -10.5 -2t-10.5 -2l-59 -10q-12 -2 -57 -12.5t-62.5 -18.5t-49.5 -25.5t-45 -37t-25.5 -49t-12.5 -64.5z" />
<glyph unicode="&#xe5;" horiz-adv-x="944" d="M299 1210q0 53 47 105.5t113 52.5q76 0 113.5 -55.5t37.5 -110.5q0 -74 -58 -116t-95 -42q-63 0 -101.5 34t-47.5 66.5t-9 65.5zM377 1208q0 -37 22.5 -60.5t57.5 -23.5q10 0 25.5 5.5t32.5 25t17 49.5q0 84 -75 84q-29 0 -54.5 -23.5t-25.5 -56.5zM98 174q0 74 31 124 t93.5 77.5t130 44t164.5 32.5q34 5 52 9q14 2 19.5 4t10.5 9t5 20q0 23 2 57.5t2 48.5q0 117 -67.5 169t-130.5 52q-147 0 -148 -123q0 -16 4 -40.5t4 -32.5q0 -41 -37 -41q-12 0 -30.5 3t-42 10t-39 24.5t-15.5 42.5q0 80 108 152.5t237 72.5q88 0 149.5 -20.5t91 -46 t46 -67.5t18.5 -65.5t2 -58.5q0 -147 -5 -232.5t-5 -148.5q0 -76 16 -120t38.5 -56.5t45 -14.5t39 -8t16.5 -24q0 -43 -129 -43q-53 0 -91 28.5t-54.5 56t-18.5 27.5t-16 -13t-40 -31.5t-57.5 -37t-73.5 -32t-83 -13.5q-131 0 -190 62q-52 51 -52 143zM258 205 q0 -70 41 -112t117 -42q53 0 91 16.5t56.5 37t28.5 54.5t11 52t1 49v148q0 18 -14 18q-4 0 -10.5 -2t-10.5 -2l-59 -10q-12 -2 -57 -12.5t-62.5 -18.5t-49.5 -25.5t-45 -37t-25.5 -49t-12.5 -64.5z" />
<glyph unicode="&#xe6;" horiz-adv-x="1480" d="M98 174q0 74 31 124t92.5 77.5t129 44t162.5 32.5q42 7 62 11q23 4 28 21.5t5 115.5q0 80 -39 134t-81 70.5t-78 16.5q-147 0 -148 -123q0 -16 4 -40.5t4 -32.5q0 -41 -37 -41q-12 0 -30.5 3t-42 10t-39 24.5t-15.5 42.5q0 80 108 152.5t237 72.5q72 0 125 -12.5 t80.5 -31t44 -35.5t24.5 -29.5t12 -12.5q2 0 15.5 12.5t37 29.5t55.5 33.5t79 29t98 12.5q86 0 156.5 -31t109.5 -75t65.5 -93t36 -81t9.5 -46q0 -37 -84 -37h-465h-62q-16 0 -19 -3t-3 -19q0 -193 103.5 -303.5t240.5 -110.5q86 0 176 46t94 46q20 0 21 -18 q0 -8 -14.5 -29.5t-45 -50.5t-71.5 -55.5t-102.5 -45t-129.5 -18.5q-76 0 -140 18.5t-103 45t-67 53t-42 45t-16 18.5t-15.5 -17.5t-38 -43t-59.5 -51t-92 -43t-125 -17.5q-131 0 -190 62q-52 51 -52 143zM258 205q0 -70 41 -112t117 -42q53 0 91 16.5t56.5 37t28.5 54.5 t11 52t1 49v148q0 18 -8 18q-131 -16 -207 -47q-131 -55 -131 -174zM778 600q0 -29 27 -29q55 0 202.5 6.5t157.5 6.5q29 0 36 5t7 19q0 61 -57 143.5t-164 82.5q-98 0 -153.5 -81t-55.5 -153z" />
<glyph unicode="&#xe7;" horiz-adv-x="925" d="M416 -162q0 6 41 37q4 2 16 13.5t22.5 16.5t22.5 5q10 0 32.5 -11.5t48.5 -42t26 -71.5q0 -88 -65.5 -142.5t-104.5 -54.5q-18 0 -19 15q0 6 21.5 17t43 34.5t21.5 60.5q0 39 -26.5 60.5t-53 34t-26.5 28.5zM80 393q0 197 132 341.5t343 144.5q72 0 155 -20.5t85 -47.5 q4 -49 4 -96q0 -90 -23 -90q-12 0 -21.5 9t-20.5 27.5t-25 28.5q-45 39 -122 74t-151 35q-14 0 -36.5 -7.5t-52.5 -31t-54.5 -59t-42 -99t-17.5 -143.5q0 -160 101.5 -278t249.5 -118q72 0 133 27t95 53.5t42 26.5q23 0 23 -20q0 -6 -13.5 -27t-43 -49.5t-70.5 -54 t-106.5 -44t-139.5 -18.5q-193 0 -308.5 116.5t-115.5 319.5z" />
<glyph unicode="&#xe8;" horiz-adv-x="954" d="M250 1303q0 27 43 40t65 13q25 0 41 -39q29 -70 57 -127q26 -57 44 -86l30 -50l19 -30q6 -10 6 -18q0 -23 -25 -23q-20 0 -79 64q-201 211 -201 256zM80 397q0 205 115.5 346.5t300.5 141.5q86 0 156.5 -31t109.5 -75t65.5 -93t35.5 -81t9 -46q0 -37 -84 -37h-464h-62 q-16 0 -19 -3t-3 -19q0 -193 103 -303.5t243 -110.5q86 0 175 46t93 46q20 0 20 -18q0 -8 -14 -29.5t-45 -50.5t-72 -55.5t-102 -45t-129 -18.5q-180 0 -306 110.5t-126 325.5zM252 600q0 -29 27 -29q55 0 202.5 6.5t157.5 6.5q29 0 36 5t7 19q0 61 -57.5 143.5t-163.5 82.5 q-98 0 -153.5 -81t-55.5 -153z" />
<glyph unicode="&#xe9;" horiz-adv-x="954" d="M397 1006q0 10 14.5 31.5t54.5 95t85 184.5q16 39 43 39q23 0 64.5 -13.5t41.5 -39.5q0 -47 -198 -256q-59 -63 -80 -64q-25 0 -25 23zM80 397q0 205 115.5 346.5t300.5 141.5q86 0 156.5 -31t109.5 -75t65.5 -93t35.5 -81t9 -46q0 -37 -84 -37h-464h-62q-16 0 -19 -3 t-3 -19q0 -193 103 -303.5t243 -110.5q86 0 175 46t93 46q20 0 20 -18q0 -8 -14 -29.5t-45 -50.5t-72 -55.5t-102 -45t-129 -18.5q-180 0 -306 110.5t-126 325.5zM252 600q0 -29 27 -29q55 0 202.5 6.5t157.5 6.5q29 0 36 5t7 19q0 61 -57.5 143.5t-163.5 82.5 q-98 0 -153.5 -81t-55.5 -153z" />
<glyph unicode="&#xea;" horiz-adv-x="954" d="M246 1022q0 2 8 18l64 98l46 74l30 50q14 24 19 35.5t11 18.5t10 9t12 2h52q23 0 34 -22q33 -57 78 -126l72 -108q27 -39 27 -47q0 -16 -23 -16q-14 0 -109.5 87t-101.5 87q-12 0 -103 -86t-106 -86q-20 0 -20 12zM80 397q0 205 115.5 346.5t300.5 141.5q86 0 156.5 -31 t109.5 -75t65.5 -93t35.5 -81t9 -46q0 -37 -84 -37h-464h-62q-16 0 -19 -3t-3 -19q0 -193 103 -303.5t243 -110.5q86 0 175 46t93 46q20 0 20 -18q0 -8 -14 -29.5t-45 -50.5t-72 -55.5t-102 -45t-129 -18.5q-180 0 -306 110.5t-126 325.5zM252 600q0 -29 27 -29 q55 0 202.5 6.5t157.5 6.5q29 0 36 5t7 19q0 61 -57.5 143.5t-163.5 82.5q-98 0 -153.5 -81t-55.5 -153z" />
<glyph unicode="&#xeb;" horiz-adv-x="954" d="M238 1210.5q0 28.5 31.5 66.5t64.5 38q35 0 66.5 -36t31.5 -68.5t-36 -70.5t-52 -38q-41 0 -73.5 40t-32.5 68.5zM565 1210.5q0 28.5 32 66.5t65 38q35 0 66.5 -36t31.5 -68.5t-36 -70.5t-54 -38q-41 0 -73 40t-32 68.5zM80 397q0 205 115.5 346.5t300.5 141.5 q86 0 156.5 -31t109.5 -75t65.5 -93t35.5 -81t9 -46q0 -37 -84 -37h-464h-62q-16 0 -19 -3t-3 -19q0 -193 103 -303.5t243 -110.5q86 0 175 46t93 46q20 0 20 -18q0 -8 -14 -29.5t-45 -50.5t-72 -55.5t-102 -45t-129 -18.5q-180 0 -306 110.5t-126 325.5zM252 600 q0 -29 27 -29q55 0 202.5 6.5t157.5 6.5q29 0 36 5t7 19q0 61 -57.5 143.5t-163.5 82.5q-98 0 -153.5 -81t-55.5 -153z" />
<glyph unicode="&#xec;" horiz-adv-x="581" d="M29 1303q0 27 43 40t65 13q25 0 41 -39q29 -70 56.5 -127t45.5 -86l30 -50l18 -30q6 -10 6 -18q0 -23 -25 -23q-20 0 -80 64q-200 211 -200 256zM74 780q0 10 5 16.5t20.5 13.5t31.5 12t48 16.5t61 23.5l42 18q19 8 25 11.5t14.5 5.5t20.5 2q31 0 31 -39q0 -10 -6.5 -45 t-6.5 -53v-561q0 -61 18.5 -96t44.5 -43.5t51.5 -9.5t44 -7t18.5 -25q0 -35 -35 -34q-4 0 -14.5 1t-16.5 1q-45 0 -75.5 2t-69.5 2q-49 0 -92.5 -2t-53.5 -2q-82 0 -82 26q0 29 31 39q51 17 62 36q21 36 22 275v58v180q0 59 -14.5 94t-26.5 43.5t-42 13.5t-36 7 q-20 8 -20 20z" />
<glyph unicode="&#xed;" horiz-adv-x="581" d="M176 1006q0 10 14.5 31.5t54.5 95t85 184.5q16 39 43 39q23 0 64.5 -13.5t41.5 -39.5q0 -47 -198 -256q-59 -63 -80 -64q-25 0 -25 23zM74 780q0 10 5 16.5t20.5 13.5t31.5 12t48 16.5t61 23.5l42 18q19 8 25 11.5t14.5 5.5t20.5 2q31 0 31 -39q0 -10 -6.5 -45t-6.5 -53 v-561q0 -61 18.5 -96t44.5 -43.5t51.5 -9.5t44 -7t18.5 -25q0 -35 -35 -34q-4 0 -14.5 1t-16.5 1q-45 0 -75.5 2t-69.5 2q-49 0 -92.5 -2t-53.5 -2q-82 0 -82 26q0 29 31 39q51 17 62 36q21 36 22 275v58v180q0 59 -14.5 94t-26.5 43.5t-42 13.5t-36 7q-20 8 -20 20z" />
<glyph unicode="&#xee;" horiz-adv-x="581" d="M25 1022q0 2 8 18l65 98l46 74l29 50q13 24 18.5 35.5t11.5 18.5t10 9t12 2h51q23 0 35 -22q33 -57 78 -126l71 -108q26 -39 27 -47q0 -16 -22 -16q-14 0 -109.5 87t-101.5 87q-12 0 -103.5 -86t-105.5 -86q-20 0 -20 12zM74 780q0 10 5 16.5t20.5 13.5t31.5 12t48 16.5 t61 23.5l42 18q19 8 25 11.5t14.5 5.5t20.5 2q31 0 31 -39q0 -10 -6.5 -45t-6.5 -53v-561q0 -61 18.5 -96t44.5 -43.5t51.5 -9.5t44 -7t18.5 -25q0 -35 -35 -34q-4 0 -14.5 1t-16.5 1q-45 0 -75.5 2t-69.5 2q-49 0 -92.5 -2t-53.5 -2q-82 0 -82 26q0 29 31 39q51 17 62 36 q21 36 22 275v58v180q0 59 -14.5 94t-26.5 43.5t-42 13.5t-36 7q-20 8 -20 20z" />
<glyph unicode="&#xef;" horiz-adv-x="581" d="M16 1210.5q0 28.5 32 66.5t65 38q35 0 66.5 -36t31.5 -68.5t-36 -70.5t-52 -38q-41 0 -74 40t-33 68.5zM344 1210.5q0 28.5 32 66.5t64 38q35 0 67 -36t32 -68.5t-36 -70.5t-54 -38q-41 0 -73 40t-32 68.5zM74 780q0 10 5 16.5t20.5 13.5t31.5 12t48 16.5t61 23.5l42 18 q19 8 25 11.5t14.5 5.5t20.5 2q31 0 31 -39q0 -10 -6.5 -45t-6.5 -53v-561q0 -61 18.5 -96t44.5 -43.5t51.5 -9.5t44 -7t18.5 -25q0 -35 -35 -34q-4 0 -14.5 1t-16.5 1q-45 0 -75.5 2t-69.5 2q-49 0 -92.5 -2t-53.5 -2q-82 0 -82 26q0 29 31 39q51 17 62 36q21 36 22 275v58 v180q0 59 -14.5 94t-26.5 43.5t-42 13.5t-36 7q-20 8 -20 20z" />
<glyph unicode="&#xf0;" horiz-adv-x="1120" d="M80 416q0 188 128 327.5t355 139.5q76 0 166 -49q20 -10 45 -32l41 -37q16 -15 23 -15q8 0 8 8q0 25 -31 94.5t-74 140.5q-43 74 -86 132.5t-55 58.5q-2 0 -27 -8l-290 -117l-4 -1q-4 -1 -7 -1q-18 0 -30.5 20.5t-12.5 38.5q0 14 19 23l272 110q18 6 19 15q0 4 -19 22 q-82 92 -164 144.5t-118.5 66.5t-36.5 25q0 25 49 24h49q59 0 152.5 -52t191.5 -146q31 -31 41 -31q4 0 29 8l250 100q25 10 34 11q18 0 27.5 -23.5t9.5 -36.5q0 -20 -41 -37l-215 -86q-29 -10 -28 -16q0 -2 29.5 -38t72.5 -102.5t86 -153.5t72.5 -214t29.5 -260 q0 -227 -140 -366.5t-351 -139.5q-221 0 -345 134.5t-124 318.5zM242 485q0 -211 112.5 -335.5t255.5 -124.5q117 0 199 89t82 253q0 168 -47 264q-14 31 -61.5 75t-80.5 64q-84 57 -188 57q-106 0 -189 -84t-83 -258z" />
<glyph unicode="&#xf1;" horiz-adv-x="1210" d="M319 1085q0 35 69 126.5t130 91.5q51 0 129 -49.5t127 -49.5q41 0 82 57.5t45 57.5q20 0 21 -25q0 -37 -68 -123t-129 -86q-53 0 -134 49.5t-124 49.5q-31 0 -58.5 -29t-45 -57.5t-23.5 -28.5q-21 0 -21 16zM63 799q0 12 13.5 18t44.5 10t43 9q39 10 81 27.5t67.5 29.5 t33.5 12h4q18 0 19 -24q0 -4 -2 -37t-2 -51q0 -53 10 -54q6 0 14 11.5t29.5 33t52.5 39.5q92 57 178 58q82 0 147.5 -26t102.5 -63.5t61.5 -87t32.5 -90.5t8 -77v-19q0 -12 1 -30q2 -16 2 -80v-164v-45q0 -78 21.5 -108t102.5 -42q41 -6 41 -31q0 -20 -41 -20q-47 0 -98 5 t-69 5q-29 0 -89.5 -4t-68.5 -4q-41 0 -41 27q0 10 7 16t17 8l18 4l9 2q45 14 45 138v276q0 158 -78 239t-186 81q-88 0 -153.5 -47.5t-75.5 -77.5q-18 -51 -19 -324v-78q0 -102 21.5 -151.5t95.5 -55.5q20 0 52 -7t32 -23q0 -27 -39 -27q-35 0 -67.5 4t-82.5 4 q-53 0 -141 -4l-88 -4q-31 0 -31 20q0 16 10.5 20.5t26 6.5t30.5 12.5t27.5 50.5t14.5 107q4 115 4 154v295q0 66 -23.5 88t-64.5 22h-21q-39 0 -39 23z" />
<glyph unicode="&#xf2;" horiz-adv-x="1120" d="M319 1303q0 27 43.5 40t65.5 13q25 0 41 -39q29 -70 57 -127q26 -57 44 -86l30 -50q12 -20 18.5 -30t6.5 -18q0 -23 -25 -23q-20 0 -80 64q-201 211 -201 256zM80 416q0 188 128 327.5t355 139.5q193 0 335 -121t142 -334q0 -217 -146 -341t-345 -124q-221 0 -345 134.5 t-124 318.5zM242 485q0 -211 112.5 -335.5t255.5 -124.5q117 0 197 89t80 253q0 180 -98.5 320t-274.5 140q-106 0 -189 -84t-83 -258z" />
<glyph unicode="&#xf3;" horiz-adv-x="1120" d="M467 1006q0 10 14.5 31.5t54 95t85.5 184.5q16 39 43 39q23 0 64.5 -13.5t41.5 -39.5q0 -47 -199 -256q-59 -63 -79 -64q-25 0 -25 23zM80 416q0 188 128 327.5t355 139.5q193 0 335 -121t142 -334q0 -217 -146 -341t-345 -124q-221 0 -345 134.5t-124 318.5zM242 485 q0 -211 112.5 -335.5t255.5 -124.5q117 0 197 89t80 253q0 180 -98.5 320t-274.5 140q-106 0 -189 -84t-83 -258z" />
<glyph unicode="&#xf4;" horiz-adv-x="1120" d="M315 1022q0 2 9 18l64 98l46 74l30 50q13 24 18 35.5t11.5 18.5t10.5 9t12 2h51q23 0 35 -22q33 -57 78 -126l72 -108q26 -39 26 -47q0 -16 -22 -16q-14 0 -109.5 87t-101.5 87q-12 0 -103.5 -86t-105.5 -86q-21 0 -21 12zM80 416q0 188 128 327.5t355 139.5 q193 0 335 -121t142 -334q0 -217 -146 -341t-345 -124q-221 0 -345 134.5t-124 318.5zM242 485q0 -211 112.5 -335.5t255.5 -124.5q117 0 197 89t80 253q0 180 -98.5 320t-274.5 140q-106 0 -189 -84t-83 -258z" />
<glyph unicode="&#xf5;" horiz-adv-x="1120" d="M244 1085q0 35 68.5 126.5t129.5 91.5q49 0 127 -49.5t129 -49.5q29 0 56.5 29t46 57.5t24.5 28.5q20 0 21 -25q0 -37 -67.5 -123t-129.5 -86q-53 0 -134 49.5t-124 49.5q-31 0 -58.5 -29t-45 -57.5t-23.5 -28.5q-20 0 -20 16zM80 416q0 188 128 327.5t355 139.5 q193 0 335 -121t142 -334q0 -217 -146 -341t-345 -124q-221 0 -345 134.5t-124 318.5zM242 485q0 -211 112.5 -335.5t255.5 -124.5q117 0 197 89t80 253q0 180 -98.5 320t-274.5 140q-106 0 -189 -84t-83 -258z" />
<glyph unicode="&#xf6;" horiz-adv-x="1120" d="M307 1210.5q0 28.5 32 66.5t64 38q35 0 67 -36t32 -68.5t-36 -70.5t-52 -38q-41 0 -74 40t-33 68.5zM635 1210.5q0 28.5 31.5 66.5t64.5 38q35 0 66.5 -36t31.5 -68.5t-35.5 -70.5t-54.5 -38q-41 0 -72.5 40t-31.5 68.5zM80 416q0 188 128 327.5t355 139.5 q193 0 335 -121t142 -334q0 -217 -146 -341t-345 -124q-221 0 -345 134.5t-124 318.5zM242 485q0 -211 112.5 -335.5t255.5 -124.5q117 0 197 89t80 253q0 180 -98.5 320t-274.5 140q-106 0 -189 -84t-83 -258z" />
<glyph unicode="&#xf7;" horiz-adv-x="1079" d="M63 434q0 16 1.5 23.5t9.5 12.5t26 5h883q16 0 23.5 -5t8.5 -12t1 -26q0 -29 -6 -38t-37 -9h-875q-18 0 -25 6t-8.5 13t-1.5 30zM434 655.5q0 32.5 25.5 58t60.5 25.5q33 0 57.5 -23.5t24.5 -58t-24.5 -59.5t-59.5 -25t-59.5 25t-24.5 57.5zM444 207q0 33 25 57.5 t59 24.5q33 0 58.5 -25.5t25.5 -58.5t-23.5 -57.5t-58 -24.5t-60.5 24.5t-26 59.5z" />
<glyph unicode="&#xf8;" horiz-adv-x="1120" d="M80 416q0 188 128 327.5t355 139.5q51 0 96.5 -9.5t47.5 -9.5q12 0 24 27q47 100 56.5 116.5t21.5 16.5q14 0 37.5 -10t23.5 -27q0 -6 -49 -115l-5 -10q-3 -6 -5 -9t-4 -7t-2 -8q0 -14 20 -25q215 -123 215 -385q0 -217 -146 -341t-345 -124q-37 0 -67.5 3t-47 7t-20.5 4 q-10 0 -17 -14q-89 -175 -96 -178q-16 0 -40.5 11t-24.5 28q0 6 39.5 91t39.5 89q0 12 -18 21q-106 59 -161.5 164.5t-55.5 226.5zM242 485q0 -106 33.5 -194t62.5 -123t35 -35t12 17l281 600q2 6 7 14t5 12q0 16 -53.5 33.5t-110.5 17.5q-106 0 -189 -84t-83 -258zM453 76 q0 -14 53 -32.5t104 -18.5q117 0 197 89t80 253q0 100 -32 189t-61.5 128t-35.5 39q-4 0 -10 -12q-211 -465 -289 -622z" />
<glyph unicode="&#xf9;" horiz-adv-x="1179" d="M348 1303q0 27 43 40t66 13q25 0 41 -39q29 -70 56.5 -127t44.5 -86l29 -50l19 -30q6 -10 6 -18q0 -23 -24 -23q-20 0 -80 64q-201 211 -201 256zM59 807q0 14 9.5 23.5t40 15.5t88.5 6q14 0 63 5t53 5q35 0 41 -14t6 -88q0 -41 -5 -140.5t-5 -220.5q0 -180 69.5 -254.5 t158.5 -74.5q131 0 190 55t59 194l-4 283q0 102 -16 138t-78 42q-45 4 -45 27q0 47 180 47q16 0 41 5t33 5q31 0 40 -10t9 -47q0 -2 -1 -31.5t-2 -79t-3 -111t-3 -142t-1 -158.5q0 -125 12 -170t45 -45q10 0 27.5 1t25.5 1q49 0 50 -27q0 -23 -14.5 -29t-61.5 -6 q-37 0 -119 -11t-88 -11q-14 0 -23.5 52t-13.5 52q-2 0 -39 -32.5t-105.5 -65.5t-150.5 -33q-330 0 -329 356q0 199 1 282t1 87q0 41 -21.5 65.5t-40.5 24.5h-37q-37 0 -37 29z" />
<glyph unicode="&#xfa;" horiz-adv-x="1179" d="M496 1006q0 10 14 31.5t54 95t85 184.5q16 39 43 39q23 0 65 -13.5t42 -39.5q0 -47 -199 -256q-59 -63 -80 -64q-24 0 -24 23zM59 807q0 14 9.5 23.5t40 15.5t88.5 6q14 0 63 5t53 5q35 0 41 -14t6 -88q0 -41 -5 -140.5t-5 -220.5q0 -180 69.5 -254.5t158.5 -74.5 q131 0 190 55t59 194l-4 283q0 102 -16 138t-78 42q-45 4 -45 27q0 47 180 47q16 0 41 5t33 5q31 0 40 -10t9 -47q0 -2 -1 -31.5t-2 -79t-3 -111t-3 -142t-1 -158.5q0 -125 12 -170t45 -45q10 0 27.5 1t25.5 1q49 0 50 -27q0 -23 -14.5 -29t-61.5 -6q-37 0 -119 -11t-88 -11 q-14 0 -23.5 52t-13.5 52q-2 0 -39 -32.5t-105.5 -65.5t-150.5 -33q-330 0 -329 356q0 199 1 282t1 87q0 41 -21.5 65.5t-40.5 24.5h-37q-37 0 -37 29z" />
<glyph unicode="&#xfb;" horiz-adv-x="1179" d="M344 1022q0 2 8 18l64 98l46 74l30 50q14 24 19 35.5t11 18.5t10.5 9t12.5 2h51q23 0 35 -22q33 -57 78 -126l71 -108q26 -39 27 -47q0 -16 -23 -16q-14 0 -109 87t-102 87q-12 0 -103 -86t-105 -86q-21 0 -21 12zM59 807q0 14 9.5 23.5t40 15.5t88.5 6q14 0 63 5t53 5 q35 0 41 -14t6 -88q0 -41 -5 -140.5t-5 -220.5q0 -180 69.5 -254.5t158.5 -74.5q131 0 190 55t59 194l-4 283q0 102 -16 138t-78 42q-45 4 -45 27q0 47 180 47q16 0 41 5t33 5q31 0 40 -10t9 -47q0 -2 -1 -31.5t-2 -79t-3 -111t-3 -142t-1 -158.5q0 -125 12 -170t45 -45 q10 0 27.5 1t25.5 1q49 0 50 -27q0 -23 -14.5 -29t-61.5 -6q-37 0 -119 -11t-88 -11q-14 0 -23.5 52t-13.5 52q-2 0 -39 -32.5t-105.5 -65.5t-150.5 -33q-330 0 -329 356q0 199 1 282t1 87q0 41 -21.5 65.5t-40.5 24.5h-37q-37 0 -37 29z" />
<glyph unicode="&#xfc;" horiz-adv-x="1179" d="M336 1210.5q0 28.5 31.5 66.5t64.5 38q35 0 66.5 -36t31.5 -68.5t-35.5 -70.5t-52.5 -38q-41 0 -73.5 40t-32.5 68.5zM664 1210.5q0 28.5 31.5 66.5t64.5 38q35 0 66.5 -36t31.5 -68.5t-36 -70.5t-54 -38q-41 0 -72.5 40t-31.5 68.5zM59 807q0 14 9.5 23.5t40 15.5 t88.5 6q14 0 63 5t53 5q35 0 41 -14t6 -88q0 -41 -5 -140.5t-5 -220.5q0 -180 69.5 -254.5t158.5 -74.5q131 0 190 55t59 194l-4 283q0 102 -16 138t-78 42q-45 4 -45 27q0 47 180 47q16 0 41 5t33 5q31 0 40 -10t9 -47q0 -2 -1 -31.5t-2 -79t-3 -111t-3 -142t-1 -158.5 q0 -125 12 -170t45 -45q10 0 27.5 1t25.5 1q49 0 50 -27q0 -23 -14.5 -29t-61.5 -6q-37 0 -119 -11t-88 -11q-14 0 -23.5 52t-13.5 52q-2 0 -39 -32.5t-105.5 -65.5t-150.5 -33q-330 0 -329 356q0 199 1 282t1 87q0 41 -21.5 65.5t-40.5 24.5h-37q-37 0 -37 29z" />
<glyph unicode="&#xfd;" horiz-adv-x="1019" d="M453 1006q0 10 14 31.5t54 95t85 184.5q16 39 43 39q23 0 65 -13.5t42 -39.5q0 -47 -199 -256q-59 -63 -80 -64q-24 0 -24 23zM41 844q0 25 41 24q57 0 117.5 -2t101.5 -2q35 0 62.5 2t54.5 2q14 0 25.5 -7t11.5 -15q0 -37 -49 -37h-31q-33 0 -33 -57q0 -45 87 -240 l36 -80l41 -92q29 -66 44 -96.5t23 -30.5q12 0 95.5 235.5t83.5 284.5q0 41 -19.5 59.5t-44 17.5t-44 6t-19.5 30q0 25 39 24q31 0 81 -1t66 -1q20 0 70.5 1t56.5 1q43 0 43 -26q0 -20 -36 -29.5t-48 -26.5q-33 -47 -111 -258l-182 -485l-45 -121l-37 -102l-28 -78l-23 -60 q-8 -22 -17.5 -40.5t-16.5 -25.5t-13 -7h-7q-5 0 -25.5 -1t-61.5 -1q-39 0 -39 26q0 6 47 63.5t93 141.5t46 154q0 59 -116.5 313t-202.5 416q-23 41 -46.5 63.5t-38 24.5t-23.5 8.5t-9 24.5z" />
<glyph unicode="&#xfe;" horiz-adv-x="1114" d="M41 1419q0 12 3 18.5t13.5 11.5t23.5 8t42 12.5t57 21.5q16 6 51 22.5t60.5 25.5t44.5 9q25 0 24 -39q0 -8 -4 -48t-8 -110.5t-4 -152.5v-115q0 -51 -1 -156.5t-1 -123.5q0 -57 4 -58q2 0 39 36t109.5 72t162.5 36q182 0 279.5 -120t97.5 -292q0 -190 -119.5 -342.5 t-320.5 -152.5q-94 0 -152.5 19t-81 38.5t-30.5 19.5q-6 0 -6 -16v-225v-27q0 -41 32 -96q23 -37 69 -43t79 -8t33 -29q0 -25 -70 -25q-12 0 -65.5 4.5t-147.5 4.5q-37 0 -79 -3.5t-50 -3.5q-72 0 -72 21q0 18 20.5 26.5t44 14.5t44 50t20.5 128v41q0 242 3 401.5t3 163.5 v45q0 29 3.5 361t3.5 420q0 47 -15.5 84.5t-34 46t-82.5 8.5q-22 0 -22 16zM324 393q0 -20 1 -51t1 -51q0 -72 30.5 -123t78.5 -76.5t96.5 -37t95.5 -11.5q133 0 202.5 97.5t69.5 238.5q0 162 -86 284.5t-233 122.5q-106 0 -189 -65q-41 -33 -54 -88.5t-13 -239.5z" />
<glyph unicode="&#xff;" horiz-adv-x="1019" d="M293 1210.5q0 28.5 31.5 66.5t64.5 38q35 0 66.5 -36t31.5 -68.5t-35.5 -70.5t-52.5 -38q-41 0 -73.5 40t-32.5 68.5zM621 1210.5q0 28.5 31.5 66.5t64.5 38q35 0 66.5 -36t31.5 -68.5t-36 -70.5t-54 -38q-41 0 -72.5 40t-31.5 68.5zM41 844q0 25 41 24q57 0 117.5 -2 t101.5 -2q35 0 62.5 2t54.5 2q14 0 25.5 -7t11.5 -15q0 -37 -49 -37h-31q-33 0 -33 -57q0 -45 87 -240l36 -80l41 -92q29 -66 44 -96.5t23 -30.5q12 0 95.5 235.5t83.5 284.5q0 41 -19.5 59.5t-44 17.5t-44 6t-19.5 30q0 25 39 24q31 0 81 -1t66 -1q20 0 70.5 1t56.5 1 q43 0 43 -26q0 -20 -36 -29.5t-48 -26.5q-33 -47 -111 -258l-182 -485l-45 -121l-37 -102l-28 -78l-23 -60q-8 -22 -17.5 -40.5t-16.5 -25.5t-13 -7h-7q-5 0 -25.5 -1t-61.5 -1q-39 0 -39 26q0 6 47 63.5t93 141.5t46 154q0 59 -116.5 313t-202.5 416q-23 41 -46.5 63.5 t-38 24.5t-23.5 8.5t-9 24.5z" />
<glyph unicode="&#x100;" horiz-adv-x="1662" d="M612 1747q0 39 33 39q158 0 226.5 -2t144.5 -2q18 0 24.5 -10.5t6.5 -49.5q0 -16 -10.5 -22t-18.5 -6q-14 0 -179 1t-206 1q-21 0 -21 51zM41 16q0 29 31 39q66 25 115 110t243 508l354 763q14 31 25.5 39t36.5 8q18 0 24.5 -8.5t27.5 -66.5q44 -126 95 -255l227 -535 q160 -374 175 -405q35 -70 78 -105.5t74.5 -38.5t53 -10.5t21.5 -31.5q0 -31 -55 -31q-23 0 -88.5 6t-96.5 6q-39 0 -100 -4t-90 -4q-63 0 -80.5 5t-17.5 24q0 14 16 23t34.5 12.5t35 18.5t16.5 42q0 45 -51 184.5t-86 204.5q-18 35 -84 35q-10 0 -90 -2t-158 -2h-109 q-92 0 -115.5 -10.5t-41.5 -49.5q-12 -27 -41 -85t-39 -80l-25 -59q-16 -36 -21 -57.5t-5 -37.5q0 -47 23.5 -71.5t52 -28t52 -11.5t23.5 -28q0 -14 -6 -21.5t-29 -7.5q-12 0 -70.5 1t-99.5 1q-45 0 -101 -4t-75 -4q-59 -1 -59 24zM555 692q0 -27 18.5 -33t85.5 -6h64l195 2 q80 0 79 33q0 27 -100 253t-127 226q-18 0 -116.5 -226t-98.5 -249z" />
<glyph unicode="&#x101;" horiz-adv-x="944" d="M238 1206q0 39 32 39q158 0 226.5 -2t144.5 -2q18 0 24.5 -10t6.5 -49q0 -16 -10.5 -22.5t-18.5 -6.5q-14 0 -179 1t-206 1q-20 0 -20 51zM98 174q0 74 31 124t93.5 77.5t130 44t164.5 32.5q34 5 52 9q14 2 19.5 4t10.5 9t5 20q0 23 2 57.5t2 48.5q0 117 -67.5 169 t-130.5 52q-147 0 -148 -123q0 -16 4 -40.5t4 -32.5q0 -41 -37 -41q-12 0 -30.5 3t-42 10t-39 24.5t-15.5 42.5q0 80 108 152.5t237 72.5q88 0 149.5 -20.5t91 -46t46 -67.5t18.5 -65.5t2 -58.5q0 -147 -5 -232.5t-5 -148.5q0 -76 16 -120t38.5 -56.5t45 -14.5t39 -8 t16.5 -24q0 -43 -129 -43q-53 0 -91 28.5t-54.5 56t-18.5 27.5t-16 -13t-40 -31.5t-57.5 -37t-73.5 -32t-83 -13.5q-131 0 -190 62q-52 51 -52 143zM258 205q0 -70 41 -112t117 -42q53 0 91 16.5t56.5 37t28.5 54.5t11 52t1 49v148q0 18 -14 18q-4 0 -10.5 -2t-10.5 -2 l-59 -10q-12 -2 -57 -12.5t-62.5 -18.5t-49.5 -25.5t-45 -37t-25.5 -49t-12.5 -64.5z" />
<glyph unicode="&#x102;" horiz-adv-x="1662" d="M598 1825q0 6 23 6h10q9 -1 23 -23l32 -48q18 -26 62.5 -49t103.5 -23q74 0 117 35.5t59 71.5t25 36h8q23 0 22 -6q0 -82 -64.5 -170t-179 -88t-178 85t-63.5 173zM41 16q0 29 31 39q66 25 115 110t243 508l354 763q14 31 25.5 39t36.5 8q18 0 24.5 -8.5t27.5 -66.5 q44 -126 95 -255l227 -535q160 -374 175 -405q35 -70 78 -105.5t74.5 -38.5t53 -10.5t21.5 -31.5q0 -31 -55 -31q-23 0 -88.5 6t-96.5 6q-39 0 -100 -4t-90 -4q-63 0 -80.5 5t-17.5 24q0 14 16 23t34.5 12.5t35 18.5t16.5 42q0 45 -51 184.5t-86 204.5q-18 35 -84 35 q-10 0 -90 -2t-158 -2h-109q-92 0 -115.5 -10.5t-41.5 -49.5q-12 -27 -41 -85t-39 -80l-25 -59q-16 -36 -21 -57.5t-5 -37.5q0 -47 23.5 -71.5t52 -28t52 -11.5t23.5 -28q0 -14 -6 -21.5t-29 -7.5q-12 0 -70.5 1t-99.5 1q-45 0 -101 -4t-75 -4q-59 -1 -59 24zM555 692 q0 -27 18.5 -33t85.5 -6h64l195 2q80 0 79 33q0 27 -100 253t-127 226q-18 0 -116.5 -226t-98.5 -249z" />
<glyph unicode="&#x103;" horiz-adv-x="944" d="M223 1284q0 6 23 6h10q8 0 22 -22l34 -50q18 -26 62 -48.5t103 -22.5q74 0 117 36t59.5 71.5t24.5 35.5h8q23 0 23 -6q0 -82 -64.5 -170t-179.5 -88t-178.5 85t-63.5 173zM98 174q0 74 31 124t93.5 77.5t130 44t164.5 32.5q34 5 52 9q14 2 19.5 4t10.5 9t5 20 q0 23 2 57.5t2 48.5q0 117 -67.5 169t-130.5 52q-147 0 -148 -123q0 -16 4 -40.5t4 -32.5q0 -41 -37 -41q-12 0 -30.5 3t-42 10t-39 24.5t-15.5 42.5q0 80 108 152.5t237 72.5q88 0 149.5 -20.5t91 -46t46 -67.5t18.5 -65.5t2 -58.5q0 -147 -5 -232.5t-5 -148.5 q0 -76 16 -120t38.5 -56.5t45 -14.5t39 -8t16.5 -24q0 -43 -129 -43q-53 0 -91 28.5t-54.5 56t-18.5 27.5t-16 -13t-40 -31.5t-57.5 -37t-73.5 -32t-83 -13.5q-131 0 -190 62q-52 51 -52 143zM258 205q0 -70 41 -112t117 -42q53 0 91 16.5t56.5 37t28.5 54.5t11 52t1 49v148 q0 18 -14 18q-4 0 -10.5 -2t-10.5 -2l-59 -10q-12 -2 -57 -12.5t-62.5 -18.5t-49.5 -25.5t-45 -37t-25.5 -49t-12.5 -64.5z" />
<glyph unicode="&#x104;" horiz-adv-x="1662" d="M41 16q0 29 31 39q61 23 105 97.5t212 439.5l395 844q14 31 25.5 39t36.5 8q18 0 24.5 -8.5t27.5 -66.5q44 -126 95 -255l227 -535q160 -374 175 -405q35 -70 78 -105.5t74.5 -38.5t53 -10.5t21.5 -31.5q0 -31 -55 -31q-23 0 -88.5 6t-96.5 6q-66 0 -108.5 -7 t-85.5 -27.5t-64.5 -67.5t-21.5 -119q0 -35 30.5 -79t86.5 -44q31 0 61.5 25.5t38.5 25.5q16 0 16 -16q0 -27 -60.5 -72t-123.5 -45q-92 0 -135 60.5t-43 109.5q0 72 34.5 127t76.5 85t77 72t35 89q0 45 -52 185.5t-87 203.5q-16 27 -32 31q-12 3 -32 4q-14 0 -81.5 -2 t-110.5 -2q-266 -3 -290 -10q-29 -7 -47 -43q-1 -3 -3 -7q-12 -27 -41 -85t-39 -80l-25 -59q-16 -36 -21 -57.5t-5 -37.5q0 -47 23.5 -71.5t52 -28t52 -11.5t23.5 -28q0 -14 -6 -21.5t-29 -7.5q-12 0 -70.5 1t-99.5 1q-45 0 -101 -4t-75 -4q-59 -1 -59 24zM555 692 q0 -27 18.5 -33t85.5 -6h64l195 2q80 0 79 33q0 27 -100 253t-127 226q-18 0 -116.5 -226t-98.5 -249z" />
<glyph unicode="&#x105;" horiz-adv-x="944" d="M98 174q0 74 31 124t93.5 77.5t130 44t164.5 32.5q34 5 52 9q14 2 19.5 4t10.5 9t5 20q0 23 2 57.5t2 48.5q0 117 -67.5 169t-130.5 52q-147 0 -148 -123q0 -16 4 -40.5t4 -32.5q0 -41 -37 -41q-12 0 -30.5 3t-42 10t-39 24.5t-15.5 42.5q0 80 108 152.5t237 72.5 q88 0 149.5 -20.5t91 -46t46 -67.5t18.5 -65.5t2 -58.5q0 -147 -5 -232.5t-5 -148.5q0 -76 16 -120t38.5 -56.5t45 -14.5t39 -8t16.5 -24.5t-15.5 -26.5t-54 -17.5t-61.5 -17.5q-158 -61 -158 -174q0 -57 31 -94t72 -37q31 0 63.5 26.5t40.5 26.5t8 -14q0 -27 -58 -72 t-122 -45q-76 0 -116.5 51.5t-40.5 122.5q0 74 59 127.5t120 77.5l60 25q0 4 -16 10q-31 12 -55.5 37.5t-36 44t-13.5 18.5t-16 -13t-40 -31.5t-57.5 -37t-73.5 -32t-83 -13.5q-131 0 -190 62q-52 51 -52 143zM258 205q0 -70 41 -112t117 -42q53 0 91 16.5t56.5 37 t28.5 54.5t11 52t1 49v148q0 18 -14 18q-4 0 -10.5 -2t-10.5 -2l-59 -10q-12 -2 -57 -12.5t-62.5 -18.5t-49.5 -25.5t-45 -37t-25.5 -49t-12.5 -64.5z" />
<glyph unicode="&#x106;" horiz-adv-x="1652" d="M780 1546q0 10 14.5 31.5t54.5 95.5t85 185q16 39 43 38q23 0 64.5 -13t41.5 -40q0 -47 -198 -256q-59 -63 -80 -63q-25 -1 -25 22zM90 664q0 223 86 401t265.5 287.5t424.5 109.5q125 0 252 -36.5t203 -74.5l76 -38q6 0 20.5 10t22.5 10q10 0 20 -8t10 -25 q2 -59 9.5 -125.5t13.5 -109.5t6 -51q0 -37 -24 -37q-18 0 -35 29q-199 373 -574 372q-256 0 -419.5 -163.5t-163.5 -428.5q0 -145 37.5 -272t114.5 -232.5t212 -167t316 -61.5q295 0 495 307q8 14 31 15q18 0 18 -29q0 -23 -7 -60.5t-17 -83.5t-13 -57q-4 -23 -32 -36 q-111 -53 -173.5 -80t-158.5 -48.5t-197 -21.5q-178 0 -321.5 43t-234.5 112.5t-152.5 163t-86 189t-24.5 197.5z" />
<glyph unicode="&#x107;" horiz-adv-x="925" d="M436 1006q0 10 14.5 31.5t54.5 95t85 184.5q16 39 43 39q23 0 64.5 -13.5t41.5 -39.5q0 -47 -198 -256q-59 -63 -80 -64q-25 0 -25 23zM80 393q0 197 132 341.5t343 144.5q72 0 155 -20.5t85 -47.5q4 -49 4 -96q0 -90 -23 -90q-12 0 -21.5 9t-20.5 27.5t-25 28.5 q-45 39 -122 74t-151 35q-14 0 -36.5 -7.5t-52.5 -31t-54.5 -59t-42 -99t-17.5 -143.5q0 -160 101.5 -278t249.5 -118q72 0 133 27t95 53.5t42 26.5q23 0 23 -20q0 -6 -13.5 -27t-43 -49.5t-70.5 -54t-106.5 -44t-139.5 -18.5q-193 0 -308.5 116.5t-115.5 319.5z" />
<glyph unicode="&#x108;" horiz-adv-x="1652" d="M629 1563q0 2 8 18l65 97q30 46 46 74l30 52q14 24 18.5 34.5t10.5 18t10 9.5t12 2h52q23 0 34 -23q33 -57 78 -125l72 -108q27 -39 27 -47q0 -16 -23 -17q-14 0 -109.5 87t-101.5 87q-12 0 -103 -86t-106 -86q-20 1 -20 13zM90 664q0 223 86 401t265.5 287.5 t424.5 109.5q125 0 252 -36.5t203 -74.5l76 -38q6 0 20.5 10t22.5 10q10 0 20 -8t10 -25q2 -59 9.5 -125.5t13.5 -109.5t6 -51q0 -37 -24 -37q-18 0 -35 29q-199 373 -574 372q-256 0 -419.5 -163.5t-163.5 -428.5q0 -145 37.5 -272t114.5 -232.5t212 -167t316 -61.5 q295 0 495 307q8 14 31 15q18 0 18 -29q0 -23 -7 -60.5t-17 -83.5t-13 -57q-4 -23 -32 -36q-111 -53 -173.5 -80t-158.5 -48.5t-197 -21.5q-178 0 -321.5 43t-234.5 112.5t-152.5 163t-86 189t-24.5 197.5z" />
<glyph unicode="&#x109;" horiz-adv-x="925" d="M285 1022q0 2 8 18l65 98l46 74l29 50q13 24 18.5 35.5t11.5 18.5t10 9t12 2h52q23 0 34 -22q33 -57 78 -126l72 -108q27 -39 27 -47q0 -16 -23 -16q-14 0 -109.5 87t-101.5 87q-12 0 -103.5 -86t-105.5 -86q-20 0 -20 12zM80 393q0 197 132 341.5t343 144.5 q72 0 155 -20.5t85 -47.5q4 -49 4 -96q0 -90 -23 -90q-12 0 -21.5 9t-20.5 27.5t-25 28.5q-45 39 -122 74t-151 35q-14 0 -36.5 -7.5t-52.5 -31t-54.5 -59t-42 -99t-17.5 -143.5q0 -160 101.5 -278t249.5 -118q72 0 133 27t95 53.5t42 26.5q23 0 23 -20q0 -6 -13.5 -27 t-43 -49.5t-70.5 -54t-106.5 -44t-139.5 -18.5q-193 0 -308.5 116.5t-115.5 319.5z" />
<glyph unicode="&#x10a;" horiz-adv-x="1652" d="M764 1749q0 25 36 69t66 44q33 0 65 -42t32 -75t-40 -73t-59 -40q-41 0 -70.5 43t-29.5 74zM90 664q0 223 86 401t265.5 287.5t424.5 109.5q125 0 252 -36.5t203 -74.5l76 -38q6 0 20.5 10t22.5 10q10 0 20 -8t10 -25q2 -59 9.5 -125.5t13.5 -109.5t6 -51q0 -37 -24 -37 q-18 0 -35 29q-199 373 -574 372q-256 0 -419.5 -163.5t-163.5 -428.5q0 -145 37.5 -272t114.5 -232.5t212 -167t316 -61.5q295 0 495 307q8 14 31 15q18 0 18 -29q0 -23 -7 -60.5t-17 -83.5t-13 -57q-4 -23 -32 -36q-111 -53 -173.5 -80t-158.5 -48.5t-197 -21.5 q-178 0 -321.5 43t-234.5 112.5t-152.5 163t-86 189t-24.5 197.5z" />
<glyph unicode="&#x10b;" horiz-adv-x="925" d="M420 1208q0 25 36 69t66 44q33 0 64.5 -42t31.5 -75t-39.5 -72.5t-58.5 -39.5q-41 0 -70.5 42.5t-29.5 73.5zM80 393q0 197 132 341.5t343 144.5q72 0 155 -20.5t85 -47.5q4 -49 4 -96q0 -90 -23 -90q-12 0 -21.5 9t-20.5 27.5t-25 28.5q-45 39 -122 74t-151 35 q-14 0 -36.5 -7.5t-52.5 -31t-54.5 -59t-42 -99t-17.5 -143.5q0 -160 101.5 -278t249.5 -118q72 0 133 27t95 53.5t42 26.5q23 0 23 -20q0 -6 -13.5 -27t-43 -49.5t-70.5 -54t-106.5 -44t-139.5 -18.5q-193 0 -308.5 116.5t-115.5 319.5z" />
<glyph unicode="&#x10c;" horiz-adv-x="1652" d="M629 1851q0 16 22 17q14 0 108.5 -87t100.5 -87q12 0 104.5 86t106.5 86q20 0 21 -13q0 -2 -9 -18l-65 -97q-30 -46 -46 -74l-29 -52q-13 -24 -18 -34.5t-11.5 -18t-10.5 -9.5t-12 -2h-51q-25 0 -37 23q-33 57 -78 125l-71 108q-26 39 -25 47zM90 664q0 223 86 401 t265.5 287.5t424.5 109.5q125 0 252 -36.5t203 -74.5l76 -38q6 0 20.5 10t22.5 10q10 0 20 -8t10 -25q2 -59 9.5 -125.5t13.5 -109.5t6 -51q0 -37 -24 -37q-18 0 -35 29q-199 373 -574 372q-256 0 -419.5 -163.5t-163.5 -428.5q0 -145 37.5 -272t114.5 -232.5t212 -167 t316 -61.5q295 0 495 307q8 14 31 15q18 0 18 -29q0 -23 -7 -60.5t-17 -83.5t-13 -57q-4 -23 -32 -36q-111 -53 -173.5 -80t-158.5 -48.5t-197 -21.5q-178 0 -321.5 43t-234.5 112.5t-152.5 163t-86 189t-24.5 197.5z" />
<glyph unicode="&#x10d;" horiz-adv-x="925" d="M285 1311q0 16 22 16q14 0 108.5 -87t100.5 -87q12 0 104.5 86t106.5 86q20 0 21 -12q0 -2 -9 -19l-65 -97l-46 -73l-29 -52q-13 -24 -18.5 -35t-11.5 -18t-10 -9t-12 -2h-51q-25 0 -37 22q-33 57 -78 126l-71 108q-26 39 -25 47zM80 393q0 197 132 341.5t343 144.5 q72 0 155 -20.5t85 -47.5q4 -49 4 -96q0 -90 -23 -90q-12 0 -21.5 9t-20.5 27.5t-25 28.5q-45 39 -122 74t-151 35q-14 0 -36.5 -7.5t-52.5 -31t-54.5 -59t-42 -99t-17.5 -143.5q0 -160 101.5 -278t249.5 -118q72 0 133 27t95 53.5t42 26.5q23 0 23 -20q0 -6 -13.5 -27 t-43 -49.5t-70.5 -54t-106.5 -44t-139.5 -18.5q-193 0 -308.5 116.5t-115.5 319.5z" />
<glyph unicode="&#x10e;" horiz-adv-x="1622" d="M537 1851q0 16 22 17q14 0 108.5 -87t100.5 -87q12 0 104.5 86t106.5 86q20 0 20 -13q0 -2 -8 -18l-65 -97q-30 -46 -46 -74l-29 -52l-18.5 -34.5t-11.5 -18t-10 -9.5t-12 -2h-51q-25 0 -37 23q-33 57 -78 125l-71 108q-26 39 -25 47zM41 1434q0 18 17.5 21t86.5 3h179 q51 0 188 4t211 4q141 0 282.5 -43t260 -123.5t192.5 -211t74 -289.5q0 -143 -19.5 -249t-64.5 -182.5t-90 -124.5t-123 -114q-61 -49 -178 -92t-240 -43q-12 0 -208.5 5t-282.5 5q-72 0 -133.5 -5t-71.5 -5q-49 0 -49 26q0 16 7 23.5t30.5 13.5t33.5 11q33 14 60.5 54 t27.5 79q0 115 1 293t1 262q0 74 -1 230.5t-1 289.5q0 35 -33.5 70.5t-74.5 37.5q-29 2 -42 4.5t-26.5 14t-13.5 31.5zM403 289q0 -39 1.5 -63.5t8.5 -45t11 -29t24.5 -18.5t32 -13t48 -13.5t61.5 -16.5q72 -20 149 -20h41q139 0 237.5 40t188.5 126q152 145 152 471 q0 164 -64.5 297t-169 211.5t-225.5 120.5t-244 42h-81q-26 0 -59.5 -5t-44.5 -8t-27.5 -20.5t-19.5 -29.5t-8 -48q-5 -37 -5 -63v-86q0 -45 -2 -212t-2 -181q0 -123 -1.5 -266t-1.5 -170z" />
<glyph unicode="&#x10f;" horiz-adv-x="1157" d="M1081 1470q0 6 41 37q4 2 16.5 13.5t22.5 16.5t23 5q10 0 32.5 -11t48 -42t25.5 -72q0 -88 -65.5 -142t-104.5 -54q-18 0 -18 14q0 6 21.5 17.5t43 35t21.5 60.5q0 39 -26.5 60.5t-53.5 33.5t-27 28zM80 399q0 199 132 348.5t366 149.5q53 0 140 -29.5t93 -29.5 q10 0 10 73q0 156 2 204t2 61q0 66 -2 96.5t-11 67t-32.5 51t-62.5 14.5h-23q-31 0 -37 2t-6 14v2q0 14 20.5 21.5t83 27t128.5 50.5q6 2 24.5 11t31.5 14t24 5q25 0 24 -41q0 -6 -13 -174t-13 -270q0 -211 -2.5 -456.5t-2.5 -291.5q0 -139 13.5 -186t58.5 -61q6 -2 35 -7.5 t41 -12.5t12 -23q0 -25 -158 -37q-33 -2 -75.5 -11.5t-53.5 -9.5q-23 0 -22 23q0 6 -3 30.5t-3 45.5q0 35 -19 34q-6 0 -30 -20l-54 -46q-30 -26 -88.5 -46.5t-126.5 -20.5q-190 0 -296.5 126t-106.5 302zM227 496q0 -156 95.5 -287t244.5 -131q92 0 168 47t76 115v114 q0 52 1 84q1 30 1 56v40v22v14v8v12q0 125 -57 158q-152 90 -244 90q-133 0 -209 -97.5t-76 -244.5z" />
<glyph unicode="&#x110;" horiz-adv-x="1622" d="M41 1434q0 18 17.5 21t86.5 3h179q51 0 188 4t211 4q141 0 282.5 -43t260 -123.5t192.5 -211t74 -289.5q0 -143 -19.5 -249t-64.5 -182.5t-90 -124.5t-123 -114q-61 -49 -178 -92t-240 -43q-12 0 -208.5 5t-282.5 5q-72 0 -133.5 -5t-71.5 -5q-49 0 -49 26q0 16 7 23.5 t30.5 13.5t33.5 11q33 14 60.5 54t27.5 79q0 94 1 244.5t1 218.5q0 18 -5 25t-23 7h-133q-25 0 -25 47q0 41 25 41q12 0 42.5 1t90.5 1q20 0 24 6.5t4 28.5q0 55 -1 196.5t-1 258.5q0 35 -33.5 70.5t-74.5 37.5q-29 2 -42 4.5t-26.5 14t-13.5 31.5zM403 289q0 -39 1.5 -63.5 t8.5 -44t11 -29t24.5 -19.5t33 -13t48 -12.5t60.5 -17.5q72 -20 149 -20h41q139 0 237.5 40t188.5 126q152 145 152 471q0 164 -64.5 297t-169 211.5t-225.5 120.5t-244 42h-81q-26 0 -59.5 -5t-44.5 -8t-27.5 -20.5t-19.5 -29.5t-8 -48q-5 -37 -5 -63v-86q0 -20 -1 -125.5 t-1 -161.5q0 -29 6 -37t37 -8h309q29 0 36 -10t7 -37q0 -16 -2 -23t-12.5 -13.5t-32.5 -6.5q-43 0 -151.5 -1t-155.5 -1h-21q-16 0 -19 -4t-3 -20v-11q0 -82 -1.5 -212.5t-1.5 -157.5z" />
<glyph unicode="&#x111;" horiz-adv-x="1157" d="M80 399q0 199 132 348.5t366 149.5q53 0 140 -29.5t93 -29.5q10 0 10 73v148q0 37 -24 37h-285q-29 0 -36 9t-7 36q0 16 2 24.5t12.5 14.5t30.5 6q37 0 129 1t137 1h17q18 0 23 2t5 18q0 102 -20.5 149.5t-87.5 47.5h-23q-31 0 -37 2t-6 14v2q0 14 20.5 21.5t83 27 t128.5 50.5q6 2 24.5 11t31.5 14t24 5q25 0 24 -41q0 -14 -11 -154t-11 -159q0 -10 9 -12t50 -2h66q25 0 24 -45q0 -43 -24 -43h-93q-25 0 -30.5 -4.5t-5.5 -24.5q0 -211 -2.5 -456.5t-2.5 -291.5q0 -139 13.5 -186t58.5 -61q6 -2 35 -7.5t41 -12.5t12 -23q0 -25 -158 -37 q-33 -2 -75.5 -11.5t-53.5 -9.5q-23 0 -22 23q0 6 -3 30.5t-3 45.5q0 35 -19 34q-6 0 -30 -20l-54 -46q-30 -26 -88.5 -46.5t-126.5 -20.5q-190 0 -296.5 126t-106.5 302zM227 496q0 -156 95.5 -287t244.5 -131q92 0 168 47t76 115v114q0 52 1 84q1 30 1 56v40v22v14v8v12 q0 125 -57 158q-152 90 -244 90q-133 0 -209 -97.5t-76 -244.5z" />
<glyph unicode="&#x112;" horiz-adv-x="1236" d="M414 1747q0 39 32 39q158 0 226.5 -2t144.5 -2q18 0 24.5 -10.5t6.5 -49.5q0 -16 -10.5 -22t-18.5 -6q-14 0 -179 1t-206 1q-20 0 -20 51zM41 1432q0 29 57 28q8 0 26.5 -2t29.5 -2q6 0 192 -5t307 -5q43 0 212 4t198 4q39 0 39 -47q0 -12 -12.5 -81t-12.5 -128 q0 -18 -10 -31.5t-23 -13.5q-31 0 -30 43q0 55 -35 100t-86 47q-184 14 -283 15h-53q-106 0 -123.5 -15.5t-21.5 -109.5q-8 -147 -9 -342q0 -102 39 -105h52h86h63q123 0 164 8.5t74 30.5q39 27 47 76q6 35 28 35q18 0 22.5 -6t4.5 -27q0 -14 -8 -94t-8 -121q0 -39 3 -73.5 t3 -51.5q0 -51 -15 -51q-31 0 -45 49q-29 86 -51 101q-43 29 -196 28h-100q-38 0 -49 1t-18 1h-14q-84 0 -84 -39q0 -59 -2 -148t-2 -147v-82q0 -147 49 -161q51 -16 89 -17q154 0 269.5 14.5t173.5 36t97 47t50.5 47t22.5 36t23 14.5q25 0 25 -35q0 -88 -88 -178t-154 -90 q-147 0 -332.5 10t-230.5 10q-57 0 -143 -9t-135 -9q-43 0 -43 20v24q0 6 6 10.5t13 5.5t26.5 7.5t42.5 16.5q49 25 64.5 96.5t15.5 300.5v254q0 55 3 172t3 182q0 55 -4 187q-2 59 -51.5 92t-114.5 35q-33 0 -33 37z" />
<glyph unicode="&#x113;" horiz-adv-x="954" d="M258 1206q0 39 33 39q158 0 226.5 -2t144.5 -2q18 0 24 -10t6 -49q0 -16 -10 -22.5t-18 -6.5q-14 0 -179.5 1t-205.5 1q-21 0 -21 51zM80 397q0 205 115.5 346.5t300.5 141.5q86 0 156.5 -31t109.5 -75t65.5 -93t35.5 -81t9 -46q0 -37 -84 -37h-464h-62q-16 0 -19 -3 t-3 -19q0 -193 103 -303.5t243 -110.5q86 0 175 46t93 46q20 0 20 -18q0 -8 -14 -29.5t-45 -50.5t-72 -55.5t-102 -45t-129 -18.5q-180 0 -306 110.5t-126 325.5zM252 600q0 -29 27 -29q55 0 202.5 6.5t157.5 6.5q29 0 36 5t7 19q0 61 -57.5 143.5t-163.5 82.5 q-98 0 -153.5 -81t-55.5 -153z" />
<glyph unicode="&#x114;" horiz-adv-x="1236" d="M399 1825q0 6 23 6h10q8 -1 22 -23l34 -48q18 -26 62 -49t103 -23q74 0 117 35.5t59.5 71.5t24.5 36h8q23 0 23 -6q0 -82 -64.5 -170t-179.5 -88t-178.5 85t-63.5 173zM41 1432q0 29 57 28q8 0 26.5 -2t29.5 -2q6 0 192 -5t307 -5q43 0 212 4t198 4q39 0 39 -47 q0 -12 -12.5 -81t-12.5 -128q0 -18 -10 -31.5t-23 -13.5q-31 0 -30 43q0 55 -35 100t-86 47q-184 14 -283 15h-53q-106 0 -123.5 -15.5t-21.5 -109.5q-8 -147 -9 -342q0 -102 39 -105h52h86h63q123 0 164 8.5t74 30.5q39 27 47 76q6 35 28 35q18 0 22.5 -6t4.5 -27 q0 -14 -8 -94t-8 -121q0 -39 3 -73.5t3 -51.5q0 -51 -15 -51q-31 0 -45 49q-29 86 -51 101q-43 29 -196 28h-100q-38 0 -49 1t-18 1h-14q-84 0 -84 -39q0 -59 -2 -148t-2 -147v-82q0 -147 49 -161q51 -16 89 -17q154 0 269.5 14.5t173.5 36t97 47t50.5 47t22.5 36t23 14.5 q25 0 25 -35q0 -88 -88 -178t-154 -90q-147 0 -332.5 10t-230.5 10q-57 0 -143 -9t-135 -9q-43 0 -43 20v24q0 6 6 10.5t13 5.5t26.5 7.5t42.5 16.5q49 25 64.5 96.5t15.5 300.5v254q0 55 3 172t3 182q0 55 -4 187q-2 59 -51.5 92t-114.5 35q-33 0 -33 37z" />
<glyph unicode="&#x115;" horiz-adv-x="954" d="M244 1284q0 6 22 6h10q8 0 22 -22l34 -50q18 -26 62 -48.5t104 -22.5q74 0 116.5 36t59 71.5t24.5 35.5h9q23 0 22 -6q0 -82 -64.5 -170t-179 -88t-178 85t-63.5 173zM80 397q0 205 115.5 346.5t300.5 141.5q86 0 156.5 -31t109.5 -75t65.5 -93t35.5 -81t9 -46 q0 -37 -84 -37h-464h-62q-16 0 -19 -3t-3 -19q0 -193 103 -303.5t243 -110.5q86 0 175 46t93 46q20 0 20 -18q0 -8 -14 -29.5t-45 -50.5t-72 -55.5t-102 -45t-129 -18.5q-180 0 -306 110.5t-126 325.5zM252 600q0 -29 27 -29q55 0 202.5 6.5t157.5 6.5q29 0 36 5t7 19 q0 61 -57.5 143.5t-163.5 82.5q-98 0 -153.5 -81t-55.5 -153z" />
<glyph unicode="&#x116;" horiz-adv-x="1236" d="M537 1749q0 25 35.5 69t66.5 44q33 0 64.5 -42t31.5 -75t-40 -73t-58 -40q-41 0 -70.5 43t-29.5 74zM41 1432q0 29 57 28q8 0 26.5 -2t29.5 -2q6 0 192 -5t307 -5q43 0 212 4t198 4q39 0 39 -47q0 -12 -12.5 -81t-12.5 -128q0 -18 -10 -31.5t-23 -13.5q-31 0 -30 43 q0 55 -35 100t-86 47q-184 14 -283 15h-53q-106 0 -123.5 -15.5t-21.5 -109.5q-8 -147 -9 -342q0 -102 39 -105h52h86h63q123 0 164 8.5t74 30.5q39 27 47 76q6 35 28 35q18 0 22.5 -6t4.5 -27q0 -14 -8 -94t-8 -121q0 -39 3 -73.5t3 -51.5q0 -51 -15 -51q-31 0 -45 49 q-29 86 -51 101q-43 29 -196 28h-100q-38 0 -49 1t-18 1h-14q-84 0 -84 -39q0 -59 -2 -148t-2 -147v-82q0 -147 49 -161q51 -16 89 -17q154 0 269.5 14.5t173.5 36t97 47t50.5 47t22.5 36t23 14.5q25 0 25 -35q0 -88 -88 -178t-154 -90q-147 0 -332.5 10t-230.5 10 q-57 0 -143 -9t-135 -9q-43 0 -43 20v24q0 6 6 10.5t13 5.5t26.5 7.5t42.5 16.5q49 25 64.5 96.5t15.5 300.5v254q0 55 3 172t3 182q0 55 -4 187q-2 59 -51.5 92t-114.5 35q-33 0 -33 37z" />
<glyph unicode="&#x117;" horiz-adv-x="954" d="M381 1208q0 25 36 69t66 44q33 0 65 -42t32 -75t-40 -72.5t-59 -39.5q-41 0 -70.5 42.5t-29.5 73.5zM80 397q0 205 115.5 346.5t300.5 141.5q86 0 156.5 -31t109.5 -75t65.5 -93t35.5 -81t9 -46q0 -37 -84 -37h-464h-62q-16 0 -19 -3t-3 -19q0 -193 103 -303.5 t243 -110.5q86 0 175 46t93 46q20 0 20 -18q0 -8 -14 -29.5t-45 -50.5t-72 -55.5t-102 -45t-129 -18.5q-180 0 -306 110.5t-126 325.5zM252 600q0 -29 27 -29q55 0 202.5 6.5t157.5 6.5q29 0 36 5t7 19q0 61 -57.5 143.5t-163.5 82.5q-98 0 -153.5 -81t-55.5 -153z" />
<glyph unicode="&#x118;" horiz-adv-x="1236" d="M41 1432q0 29 57 28q8 0 26.5 -2t29.5 -2q6 0 192 -5t307 -5q43 0 212 4t198 4q39 0 39 -47q0 -12 -12.5 -81t-12.5 -128q0 -18 -10 -31.5t-23 -13.5q-31 0 -30 43q0 55 -35 99t-86 48q-184 14 -283 15h-53q-106 0 -123.5 -15.5t-21.5 -109.5q-8 -147 -9 -342 q0 -102 39 -105h52h86h63q123 0 164 8.5t74 30.5q23 14 34 36t12 37t8 26.5t21 11.5q18 0 22.5 -6t4.5 -27q0 -14 -8 -94t-8 -121q0 -39 3 -73.5t3 -51.5q0 -51 -15 -51q-29 0 -49 66.5t-47 83.5q-43 29 -196 28h-100q-38 0 -49 1t-18 1h-14q-84 0 -84 -39q0 -59 -2 -148 t-2 -147v-82q0 -147 49 -161q51 -16 89 -17q154 0 269.5 14.5t173.5 36t97 47t50.5 47t22.5 36t23 14.5q25 0 25 -35q0 -31 -12 -61q-18 -49 -53 -91.5t-57.5 -58.5t-67.5 -45l-5 -3q-4 -3 -10 -7t-15 -12l-18 -15q-10 -8 -19 -19.5t-17.5 -24.5t-14.5 -28.5t-10 -34 t-4 -36.5q0 -76 36 -116t85 -40q35 0 67.5 20.5t34.5 20.5q14 0 14 -12q0 -35 -51 -74t-127 -39q-90 0 -139 56.5t-49 128.5q0 35 13.5 69.5t33.5 60t39.5 46t33.5 31.5l13 12q0 4 -25 4q-115 2 -272.5 11t-208.5 9q-57 0 -143 -9t-135 -9q-43 0 -43 20v24q0 6 6 10.5 t13 5.5t26.5 7.5t42.5 16.5q49 25 64.5 96.5t15.5 300.5v254q0 55 3 172t3 182q0 55 -4 187q-2 59 -51.5 92t-114.5 35q-33 2 -33 37z" />
<glyph unicode="&#x119;" horiz-adv-x="954" d="M80 397q0 205 115.5 346.5t300.5 141.5q86 0 156.5 -31t109.5 -75t65.5 -93t35.5 -81t9 -46q0 -37 -84 -37h-464h-62q-16 0 -19 -3t-3 -19q0 -193 103 -303.5t243 -110.5q86 0 175 46t93 46q20 0 20 -18q0 -25 -93 -102.5t-113 -110.5q-39 -66 -39 -121q0 -94 55 -137 q31 -23 64 -23q35 0 65.5 20.5t32.5 20.5q14 0 14 -12q0 -35 -48 -74t-124 -39q-47 0 -88 23q-92 53 -92 166q0 53 26.5 99t52.5 72l25 25q0 4 -6 4l-5 -1q-5 -1 -13 -2t-18.5 -3t-26 -3t-31.5 -1q-180 0 -306 110.5t-126 325.5zM252 600q0 -29 27 -29q55 0 202.5 6.5 t157.5 6.5q29 0 36 5t7 19q0 61 -57.5 143.5t-163.5 82.5q-98 0 -153.5 -81t-55.5 -153z" />
<glyph unicode="&#x11a;" horiz-adv-x="1236" d="M401 1851q0 16 23 17q14 0 108.5 -87t100.5 -87q12 0 104 86t107 86q20 0 20 -13q0 -2 -8 -18l-64 -97q-30 -46 -46 -74l-30 -52q-14 -24 -19 -34.5t-11 -18t-10 -9.5t-12 -2h-52q-25 0 -37 23q-33 57 -77 125l-71 108q-26 39 -26 47zM41 1432q0 29 57 28q8 0 26.5 -2 t29.5 -2q6 0 192 -5t307 -5q43 0 212 4t198 4q39 0 39 -47q0 -12 -12.5 -81t-12.5 -128q0 -18 -10 -31.5t-23 -13.5q-31 0 -30 43q0 55 -35 100t-86 47q-184 14 -283 15h-53q-106 0 -123.5 -15.5t-21.5 -109.5q-8 -147 -9 -342q0 -102 39 -105h52h86h63q123 0 164 8.5 t74 30.5q39 27 47 76q6 35 28 35q18 0 22.5 -6t4.5 -27q0 -14 -8 -94t-8 -121q0 -39 3 -73.5t3 -51.5q0 -51 -15 -51q-31 0 -45 49q-29 86 -51 101q-43 29 -196 28h-100q-38 0 -49 1t-18 1h-14q-84 0 -84 -39q0 -59 -2 -148t-2 -147v-82q0 -147 49 -161q51 -16 89 -17 q154 0 269.5 14.5t173.5 36t97 47t50.5 47t22.5 36t23 14.5q25 0 25 -35q0 -88 -88 -178t-154 -90q-147 0 -332.5 10t-230.5 10q-57 0 -143 -9t-135 -9q-43 0 -43 20v24q0 6 6 10.5t13 5.5t26.5 7.5t42.5 16.5q49 25 64.5 96.5t15.5 300.5v254q0 55 3 172t3 182q0 55 -4 187 q-2 59 -51.5 92t-114.5 35q-33 0 -33 37z" />
<glyph unicode="&#x11b;" horiz-adv-x="954" d="M246 1311q0 16 22 16q14 0 108.5 -87t100.5 -87q12 0 104.5 86t106.5 86q20 0 21 -12q0 -2 -9 -19l-64 -97l-46 -73l-30 -52q-13 -24 -18 -35t-11.5 -18t-10.5 -9t-12 -2h-51q-25 0 -37 22q-33 57 -78 126l-70 108q-26 39 -26 47zM80 397q0 205 115.5 346.5t300.5 141.5 q86 0 156.5 -31t109.5 -75t65.5 -93t35.5 -81t9 -46q0 -37 -84 -37h-464h-62q-16 0 -19 -3t-3 -19q0 -193 103 -303.5t243 -110.5q86 0 175 46t93 46q20 0 20 -18q0 -8 -14 -29.5t-45 -50.5t-72 -55.5t-102 -45t-129 -18.5q-180 0 -306 110.5t-126 325.5zM252 600 q0 -29 27 -29q55 0 202.5 6.5t157.5 6.5q29 0 36 5t7 19q0 61 -57.5 143.5t-163.5 82.5q-98 0 -153.5 -81t-55.5 -153z" />
<glyph unicode="&#x11c;" horiz-adv-x="1675" d="M633 1563q0 2 8 18l65 97q30 46 46 74l30 52q14 24 18.5 34.5t10.5 18t10 9.5t13 2h51q23 0 35 -23l78 -125l71 -108q27 -39 27 -47q0 -16 -23 -17q-14 0 -109.5 87t-101.5 87q-12 0 -103 -86t-106 -86q-20 1 -20 13zM90 674q0 223 89 401t273.5 288t438.5 110 q98 0 184 -15.5t141.5 -36t96.5 -42t62.5 -37t25.5 -15.5q6 0 27.5 15.5t29.5 15.5q31 0 31 -41q2 -59 9 -125t13.5 -109t6.5 -51q0 -35 -25 -35t-35 25q-72 156 -239.5 263.5t-346.5 107.5q-256 0 -422.5 -161t-166.5 -446q0 -188 69.5 -354t212 -274.5t326.5 -108.5 q158 0 286 72t142 164q6 49 6 258q0 80 -35 114q-25 25 -90 33q-62 6 -71 24q-5 8 -5 21q0 23 37 23q27 0 115 -5t113 -5q41 0 88 1t76 1h30q33 0 33 -19q0 -14 -52.5 -36.5t-58.5 -57.5q-14 -88 -14 -229q0 -61 2 -108.5t3 -67t3 -34t2 -20.5q0 -10 -15.5 -15t-50 -14.5 t-63.5 -25.5l-14 -9l-28 -18q-14 -8 -38 -20l-48 -25q-24 -12 -55.5 -25.5t-64 -23.5t-67.5 -18.5t-73 -13.5t-75 -5q-223 0 -388 60.5t-255 164t-133 224.5t-43 260z" />
<glyph unicode="&#x11d;" horiz-adv-x="999" d="M254 1022q0 2 8 18l64 98l46 74l30 50q14 24 19 35.5t11 18.5t10 9t13 2h51q23 0 35 -22q33 -57 78 -126l71 -108q26 -39 27 -47q0 -16 -23 -16q-14 0 -109.5 87t-101.5 87q-12 0 -103 -86t-106 -86q-20 0 -20 12zM80 -199q0 55 37 93t73.5 56.5t36.5 24.5q0 4 -10 12.5 t-23.5 18.5t-23.5 35t-10 55q0 61 26.5 106.5t53 68t26.5 28.5q0 9 -22 27l-48 42q-26 24 -47.5 78t-21.5 127q0 47 15.5 95.5t51 100.5t110.5 85t177 33q80 0 137.5 -20.5t85 -41t35.5 -20.5q16 0 105 37q29 12 43 55t31 43q27 0 26 -16q0 -49 -14.5 -105.5t-30.5 -81.5 q-25 -39 -84 -63q23 -61 23 -103q0 -131 -98.5 -221t-239.5 -90q-53 0 -101.5 9.5t-56.5 9.5q-10 0 -26.5 -4.5t-41 -29t-24.5 -67.5q0 -70 63.5 -88t210.5 -18h94q297 0 297 -181q0 -63 -14 -96q-39 -100 -159.5 -159.5t-280.5 -59.5q-92 0 -172 17.5t-144.5 70.5 t-64.5 137zM199 -186q0 -90 75.5 -136.5t186.5 -46.5q127 0 228.5 52.5t101.5 134.5q0 37 -16.5 59.5t-55.5 31.5t-68.5 11t-87.5 2h-18q-66 0 -159 15l-93 14q-20 0 -57 -41t-37 -96zM283 594q0 -123 58 -205t146 -82q92 0 141.5 71t49.5 173q0 115 -57.5 203t-155.5 88 q-76 0 -129 -64.5t-53 -183.5z" />
<glyph unicode="&#x11e;" horiz-adv-x="1675" d="M631 1825q0 6 22 6h11q8 0 22 -22.5t32.5 -49t62.5 -49t104 -22.5q74 0 116.5 35.5t59 71.5t24.5 36h9q23 0 22 -6q0 -82 -64.5 -170t-179 -88t-178 85t-63.5 173zM90 674q0 223 89 401t273.5 288t438.5 110q98 0 184 -15.5t141.5 -36t96.5 -42t62.5 -37t25.5 -15.5 q6 0 27.5 15.5t29.5 15.5q31 0 31 -41q2 -59 9 -125t13.5 -109t6.5 -51q0 -35 -25 -35t-35 25q-72 156 -239.5 263.5t-346.5 107.5q-256 0 -422.5 -161t-166.5 -446q0 -188 69.5 -354t212 -274.5t326.5 -108.5q158 0 286 72t142 164q6 49 6 258q0 80 -35 114q-25 25 -90 33 q-62 6 -71 24q-5 8 -5 21q0 23 37 23q27 0 115 -5t113 -5q41 0 88 1t76 1h30q33 0 33 -19q0 -14 -52.5 -36.5t-58.5 -57.5q-14 -88 -14 -229q0 -61 2 -108.5t3 -67t3 -34t2 -20.5q0 -10 -15.5 -15t-50 -14.5t-63.5 -25.5l-14 -9l-28 -18q-14 -8 -38 -20l-48 -25 q-24 -12 -55.5 -25.5t-64 -23.5t-67.5 -18.5t-73 -13.5t-75 -5q-223 0 -388 60.5t-255 164t-133 224.5t-43 260z" />
<glyph unicode="&#x11f;" horiz-adv-x="999" d="M252 1284q0 6 22 6h11q9 0 23 -22l32 -50q18 -26 62 -48.5t104 -22.5q74 0 117 36t59 71.5t25 35.5h8q23 0 22 -6q0 -82 -64.5 -170t-179 -88t-178 85t-63.5 173zM80 -199q0 55 37 93t73.5 56.5t36.5 24.5q0 4 -10 12.5t-23.5 18.5t-23.5 35t-10 55q0 61 26.5 106.5 t53 68t26.5 28.5q0 9 -22 27l-48 42q-26 24 -47.5 78t-21.5 127q0 47 15.5 95.5t51 100.5t110.5 85t177 33q80 0 137.5 -20.5t85 -41t35.5 -20.5q16 0 105 37q29 12 43 55t31 43q27 0 26 -16q0 -49 -14.5 -105.5t-30.5 -81.5q-25 -39 -84 -63q23 -61 23 -103 q0 -131 -98.5 -221t-239.5 -90q-53 0 -101.5 9.5t-56.5 9.5q-10 0 -26.5 -4.5t-41 -29t-24.5 -67.5q0 -70 63.5 -88t210.5 -18h94q297 0 297 -181q0 -63 -14 -96q-39 -100 -159.5 -159.5t-280.5 -59.5q-92 0 -172 17.5t-144.5 70.5t-64.5 137zM199 -186q0 -90 75.5 -136.5 t186.5 -46.5q127 0 228.5 52.5t101.5 134.5q0 37 -16.5 59.5t-55.5 31.5t-68.5 11t-87.5 2h-18q-66 0 -159 15l-93 14q-20 0 -57 -41t-37 -96zM283 594q0 -123 58 -205t146 -82q92 0 141.5 71t49.5 173q0 115 -57.5 203t-155.5 88q-76 0 -129 -64.5t-53 -183.5z" />
<glyph unicode="&#x120;" horiz-adv-x="1675" d="M768 1749q0 25 36 69t66 44q33 0 65 -42t32 -75t-40 -73t-59 -40q-41 0 -70.5 43t-29.5 74zM90 674q0 223 89 401t273.5 288t438.5 110q98 0 184 -15.5t141.5 -36t96.5 -42t62.5 -37t25.5 -15.5q6 0 27.5 15.5t29.5 15.5q31 0 31 -41q2 -59 9 -125t13.5 -109t6.5 -51 q0 -35 -25 -35t-35 25q-72 156 -239.5 263.5t-346.5 107.5q-256 0 -422.5 -161t-166.5 -446q0 -188 69.5 -354t212 -274.5t326.5 -108.5q158 0 286 72t142 164q6 49 6 258q0 80 -35 114q-25 25 -90 33q-62 6 -71 24q-5 8 -5 21q0 23 37 23q27 0 115 -5t113 -5q41 0 88 1 t76 1h30q33 0 33 -19q0 -14 -52.5 -36.5t-58.5 -57.5q-14 -88 -14 -229q0 -61 2 -108.5t3 -67t3 -34t2 -20.5q0 -10 -15.5 -15t-50 -14.5t-63.5 -25.5l-14 -9l-28 -18q-14 -8 -38 -20l-48 -25q-24 -12 -55.5 -25.5t-64 -23.5t-67.5 -18.5t-73 -13.5t-75 -5q-223 0 -388 60.5 t-255 164t-133 224.5t-43 260z" />
<glyph unicode="&#x121;" horiz-adv-x="999" d="M389 1208q0 25 36 69t67 44q33 0 64.5 -42t31.5 -75t-40 -72.5t-59 -39.5q-41 0 -70.5 42.5t-29.5 73.5zM80 -199q0 55 37 93t73.5 56.5t36.5 24.5q0 4 -10 12.5t-23.5 18.5t-23.5 35t-10 55q0 61 26.5 106.5t53 68t26.5 28.5q0 9 -22 27l-48 42q-26 24 -47.5 78 t-21.5 127q0 47 15.5 95.5t51 100.5t110.5 85t177 33q80 0 137.5 -20.5t85 -41t35.5 -20.5q16 0 105 37q29 12 43 55t31 43q27 0 26 -16q0 -49 -14.5 -105.5t-30.5 -81.5q-25 -39 -84 -63q23 -61 23 -103q0 -131 -98.5 -221t-239.5 -90q-53 0 -101.5 9.5t-56.5 9.5 q-10 0 -26.5 -4.5t-41 -29t-24.5 -67.5q0 -70 63.5 -88t210.5 -18h94q297 0 297 -181q0 -63 -14 -96q-39 -100 -159.5 -159.5t-280.5 -59.5q-92 0 -172 17.5t-144.5 70.5t-64.5 137zM199 -186q0 -90 75.5 -136.5t186.5 -46.5q127 0 228.5 52.5t101.5 134.5q0 37 -16.5 59.5 t-55.5 31.5t-68.5 11t-87.5 2h-18q-66 0 -159 15l-93 14q-20 0 -57 -41t-37 -96zM283 594q0 -123 58 -205t146 -82q92 0 141.5 71t49.5 173q0 115 -57.5 203t-155.5 88q-76 0 -129 -64.5t-53 -183.5z" />
<glyph unicode="&#x122;" horiz-adv-x="1675" d="M799 -162q0 6 41 37q4 2 16 13.5t22.5 16.5t22.5 5q10 0 32.5 -11.5t48.5 -42t26 -71.5q0 -88 -65.5 -142.5t-104.5 -54.5q-18 0 -19 15q0 6 21.5 17t43 34.5t21.5 60.5q0 39 -26.5 60.5t-53 34t-26.5 28.5zM90 674q0 223 89 401t273.5 288t438.5 110q98 0 184 -15.5 t141.5 -36t96.5 -42t62.5 -37t25.5 -15.5q6 0 27.5 15.5t29.5 15.5q31 0 31 -41q2 -59 9 -125t13.5 -109t6.5 -51q0 -35 -25 -35t-35 25q-72 156 -239.5 263.5t-346.5 107.5q-256 0 -422.5 -161t-166.5 -446q0 -188 69.5 -354t212 -274.5t326.5 -108.5q158 0 286 72t142 164 q6 49 6 258q0 80 -35 114q-25 25 -90 33q-62 6 -71 24q-5 8 -5 21q0 23 37 23q27 0 115 -5t113 -5q41 0 88 1t76 1h30q33 0 33 -19q0 -14 -52.5 -36.5t-58.5 -57.5q-14 -88 -14 -229q0 -61 2 -108.5t3 -67t3 -34t2 -20.5q0 -10 -15.5 -15t-50 -14.5t-63.5 -25.5l-14 -9 l-28 -18q-14 -8 -38 -20l-48 -25q-24 -12 -55.5 -25.5t-64 -23.5t-67.5 -18.5t-73 -13.5t-75 -5q-223 0 -388 60.5t-255 164t-133 224.5t-43 260z" />
<glyph unicode="&#x123;" horiz-adv-x="999" d="M379 1149q0 88 64.5 141t105.5 53q18 0 18 -14q0 -6 -21.5 -17.5t-43 -35t-21.5 -59.5q0 -39 27 -60.5t53.5 -34t26.5 -28.5q0 -6 -41 -37q-4 -2 -16.5 -13.5t-22.5 -16.5t-23 -5q-10 0 -33.5 11t-48 43t-24.5 73zM80 -199q0 55 37 93t73.5 56.5t36.5 24.5q0 4 -10 12.5 t-23.5 18.5t-23.5 35t-10 55q0 61 26.5 106.5t53 68t26.5 28.5q0 9 -22 27l-48 42q-26 24 -47.5 78t-21.5 127q0 47 15.5 95.5t51 100.5t110.5 85t177 33q80 0 137.5 -20.5t85 -41t35.5 -20.5q16 0 105 37q29 12 43 55t31 43q27 0 26 -16q0 -49 -14.5 -105.5t-30.5 -81.5 q-25 -39 -84 -63q23 -61 23 -103q0 -131 -98.5 -221t-239.5 -90q-53 0 -101.5 9.5t-56.5 9.5q-10 0 -26.5 -4.5t-41 -29t-24.5 -67.5q0 -70 63.5 -88t210.5 -18h94q297 0 297 -181q0 -63 -14 -96q-39 -100 -159.5 -159.5t-280.5 -59.5q-92 0 -172 17.5t-144.5 70.5 t-64.5 137zM199 -186q0 -90 75.5 -136.5t186.5 -46.5q127 0 228.5 52.5t101.5 134.5q0 37 -16.5 59.5t-55.5 31.5t-68.5 11t-87.5 2h-18q-66 0 -159 15l-93 14q-20 0 -57 -41t-37 -96zM283 594q0 -123 58 -205t146 -82q92 0 141.5 71t49.5 173q0 115 -57.5 203t-155.5 88 q-76 0 -129 -64.5t-53 -183.5z" />
<glyph unicode="&#x124;" horiz-adv-x="1619" d="M571 1563q0 2 9 18l64 97q30 46 46 74l30 52q13 24 18 34.5t11.5 18t10.5 9.5t12 2h51q23 0 35 -23q33 -57 78 -125l72 -108q26 -39 26 -47q0 -16 -22 -17q-14 0 -109.5 87t-101.5 87q-12 0 -103.5 -86t-105.5 -86q-21 1 -21 13zM41 1432q0 23 57 22q20 0 94 -4t138 -4 q39 0 74.5 2t105.5 2q45 0 45 -29q0 -35 -72 -35q-41 0 -59 -83.5t-18 -172.5v-75q0 -49 -2.5 -111.5t-2.5 -77.5q0 -51 12.5 -65.5t57.5 -14.5q4 0 80 1t256 1q16 0 55 -1t128 -2t204 -1q23 0 23 285v111q0 80 -17.5 127t-43.5 61t-51.5 18.5t-43 11.5t-17.5 27.5t80 20.5 q20 0 88 -2t111 -2q20 0 69.5 2t90.5 2q47 0 47 -26.5t-29 -26.5q-57 0 -87 -35t-30 -92q0 -68 -3 -239t-3 -259q0 -47 -2 -148.5t-2 -158.5v-76q0 -61 4 -113.5t4 -74.5q0 -133 172 -152q25 0 25 -22q0 -14 -20.5 -18.5t-79.5 -4.5q-23 0 -75 5t-83 5q-37 0 -89 -5t-104 -5 h-35q-10 0 -21 3t-14 8t-3 16q0 12 20.5 22t45 16.5t48 23.5t27.5 44q14 74 14 150q0 20 1 57t1 53q0 37 2.5 121t2.5 131q0 31 -25 43t-105 12q-31 0 -141 -3l-110 -3q-90 0 -203 3t-174 3q-31 0 -41 -12t-10 -63.5t-4.5 -133t-4.5 -118.5v-88q0 -88 16.5 -131t80.5 -84 q16 -10 88 -11q14 0 26.5 -7t12.5 -15q0 -37 -66 -37q-61 0 -101 4t-69 4q-57 0 -122.5 -5t-98.5 -5q-96 0 -96 31q0 18 19.5 25t44 10.5t51 27t36.5 68.5q6 35 16.5 211t10.5 336v116q0 27 1 101.5t1 119.5q0 156 -12 244q-6 51 -54.5 80t-99.5 29q-20 0 -31.5 13.5 t-11.5 21.5z" />
<glyph unicode="&#x125;" horiz-adv-x="1202" d="M397 1563q0 2 9 18l64 97q30 46 46 74l30 52q14 24 18.5 34.5t11 18t10.5 9.5t12 2h51q23 0 35 -23q33 -57 78 -125l72 -108q26 -39 26 -47q0 -16 -22 -17q-14 0 -109.5 87t-101.5 87q-12 0 -103.5 -86t-105.5 -86q-21 1 -21 13zM41 1427q0 16 21.5 27.5t61.5 22t58 18.5 q129 57 148 57q27 0 26 -47q0 -10 -7 -49t-7 -78q-2 -184 -5 -312t-5 -172t-3 -72.5t-1 -45.5q0 -39 16 -39q4 0 42 38t104.5 76t142.5 38q166 0 258 -98.5t92 -305.5v-297q0 -20 4 -43.5t20.5 -48t43.5 -26.5q111 -10 110.5 -43t-63.5 -33q-10 0 -79 5t-93 5q-18 0 -85 -3 t-73 -3q-47 0 -47 20q0 23 17.5 30t38 7t37.5 22.5t17 69.5q0 8 1.5 20.5t1.5 34t1 95.5t1 190q0 125 -76 216.5t-178 91.5q-96 0 -199 -80q-37 -29 -47 -93.5t-10 -285.5v-47q0 -92 15 -148.5t67 -79.5q16 -6 44.5 -8t44 -7t15.5 -21q0 -25 -23 -25l-106 5q-106 5 -113 5 q-14 0 -71.5 -5t-73.5 -5q-27 0 -40 3t-14 6t-1 11q0 20 24 27q59 16 76.5 52t17.5 106l9 698v101q0 279 -12.5 340t-73.5 61q-18 0 -27 1l-8 1q-35 0 -35 20z" />
<glyph unicode="&#x126;" horiz-adv-x="1619" d="M41 1432q0 23 57 22q20 0 94 -4t138 -4q39 0 74.5 2t105.5 2q45 0 45 -29q0 -35 -72 -35q-43 0 -60 -80.5t-17 -172.5q0 -10 2 -11.5t14 -1.5q23 0 121 1t269 1h370q25 0 30 8.5t5 49.5q0 80 -17.5 127t-43.5 61t-51.5 18.5t-43 11.5t-17.5 27.5t80 20.5q20 0 88 -2 t111 -2q20 0 69.5 2t90.5 2q47 0 47 -26.5t-29 -26.5q-41 0 -66.5 -16.5t-35.5 -49.5t-13.5 -61.5t-3.5 -75.5v-41q0 -16 6.5 -21.5t28.5 -5.5h88q29 0 36 -10t7 -37q0 -16 -2 -24.5t-13 -14.5t-32 -6h-84q-25 0 -31 -6t-6 -31q0 -39 -1 -113.5t-1 -111.5q0 -47 -2 -148.5 t-2 -158.5v-76q0 -61 4 -113.5t4 -74.5q0 -133 172 -152q25 0 25 -22q0 -14 -20.5 -18.5t-79.5 -4.5q-23 0 -75 5t-83 5q-37 0 -89 -5t-104 -5h-35q-10 0 -21 3t-14 8t-3 16q0 12 20.5 22t45 16.5t48 23.5t27.5 44q14 74 14 150q0 20 1 57t1 53q0 37 2.5 121t2.5 131 q0 31 -13.5 43t-54.5 12q-31 0 -172 -2l-141 -2q-90 0 -203 2t-174 2q-31 0 -41 -12t-10 -63.5t-4.5 -133t-4.5 -118.5v-88q0 -88 16.5 -131t80.5 -84q16 -10 88 -11q14 0 26.5 -7t12.5 -15q0 -37 -66 -37q-61 0 -101 4t-69 4q-57 0 -122.5 -5t-98.5 -5q-96 0 -96 31 q0 18 19.5 25t44 10.5t51 27t36.5 68.5q6 35 16.5 211t10.5 336v116q0 23 1 88.5t1 104.5q0 16 -23 16h-121q-25 0 -24 45q0 43 22 43h123q23 0 23 27q-4 78 -12 141q-6 51 -54.5 80t-99.5 29q-20 0 -31.5 13.5t-11.5 21.5zM401 866q0 -51 12.5 -65.5t57.5 -14.5h336 q111 0 377 -2q14 0 21 10.5t9.5 30t1.5 52.5q0 11 1 18v98q0 25 -6.5 31t-28.5 6q-92 0 -201 -1t-133 -1q-119 0 -240 1t-133 1h-40q-13 0 -20 -2t-8 -4t-1 -8q0 -37 -2.5 -86.5t-2.5 -63.5z" />
<glyph unicode="&#x127;" horiz-adv-x="1202" d="M41 1141q0 16 2 24.5t12.5 14.5t30.5 6h88q23 0 23 24q0 125 -20.5 160t-65.5 35q-18 0 -27 1l-8 1q-35 0 -35 20q0 16 21.5 27.5t61.5 22t58 18.5q129 57 148 57q27 0 26 -47q0 -14 -2 -25.5t-6 -26.5t-6 -75.5t-2 -160.5q0 -20 5 -26.5t22 -6.5h295q25 0 24 -45 q0 -43 -24 -43h-293q-18 0 -24.5 -5.5t-6.5 -23.5q-2 -100 -4 -166.5t-4 -90.5t-2 -32q0 -41 16 -41q4 0 42 38t104.5 76t142.5 38q166 0 258 -98.5t92 -305.5v-297q0 -20 4 -43.5t20.5 -48t43.5 -26.5q111 -10 110.5 -43t-63.5 -33q-10 0 -79 5t-93 5q-18 0 -85 -3t-73 -3 q-47 0 -47 20q0 23 17.5 30t38 7t37.5 22.5t17 69.5q0 8 1.5 20.5t1.5 34t1 95.5t1 190q0 125 -76 216.5t-178 91.5q-96 0 -199 -80q-37 -29 -47 -93.5t-10 -285.5v-47q0 -92 15 -148.5t67 -79.5q16 -6 44.5 -8t44 -7t15.5 -21q0 -25 -23 -25l-106 5q-106 5 -113 5 q-14 0 -71.5 -5t-73.5 -5q-27 0 -40 3t-14 6t-1 11q0 20 24 27q59 16 76.5 52t17.5 106l9 698v164q0 18 -5.5 23.5t-23.5 5.5h-84q-29 0 -36 9t-7 36z" />
<glyph unicode="&#x128;" horiz-adv-x="671" d="M4 1626q0 35 68.5 126t130.5 91q51 0 129 -49t127 -49q41 0 82 57.5t45 57.5q20 0 20 -25q0 -37 -67.5 -123t-128.5 -86q-53 0 -134 49t-124 49q-31 0 -58.5 -28.5t-45 -57t-23.5 -28.5q-21 0 -21 16zM41 1423q0 31 57 31q20 0 94 -4t138 -4q39 0 74.5 2t105.5 2 q55 0 55 -29q0 -16 -94 -55q-66 -27 -65 -236q0 -276 -4 -488t-3 -269q0 -172 52 -248q45 -63 98 -64q4 0 20.5 -1t20.5 -1q14 0 28.5 -7t14.5 -15q0 -23 -11.5 -30t-39.5 -7q-61 0 -113.5 4t-81.5 4q-57 0 -124.5 -5t-100.5 -5q-92 0 -92 31q0 18 19.5 25t44 10.5t51 27 t36.5 68.5q4 14 13.5 232t9.5 315v116q0 27 1 101.5t1 119.5v95q0 90 -8 149q-6 49 -54.5 76t-99.5 29q-43 1 -43 30z" />
<glyph unicode="&#x129;" horiz-adv-x="581" d="M-47 1085q0 35 68.5 126.5t130.5 91.5q49 0 126.5 -49.5t129.5 -49.5q29 0 56.5 29t45.5 57.5t25 28.5q20 0 20 -25q0 -37 -67.5 -123t-129.5 -86q-53 0 -134 49.5t-124 49.5q-31 0 -58.5 -29t-44.5 -57.5t-24 -28.5q-20 0 -20 16zM74 780q0 10 5 16.5t20.5 13.5t31.5 12 t48 16.5t61 23.5l42 18q19 8 25 11.5t14.5 5.5t20.5 2q31 0 31 -39q0 -10 -6.5 -45t-6.5 -53v-561q0 -61 18.5 -96t44.5 -43.5t51.5 -9.5t44 -7t18.5 -25q0 -35 -35 -34q-4 0 -14.5 1t-16.5 1q-45 0 -75.5 2t-69.5 2q-49 0 -92.5 -2t-53.5 -2q-82 0 -82 26q0 29 31 39 q51 17 62 36q21 36 22 275v58v180q0 59 -14.5 94t-26.5 43.5t-42 13.5t-36 7q-20 8 -20 20z" />
<glyph unicode="&#x12a;" horiz-adv-x="671" d="M88 1747q0 39 33 39q158 0 226.5 -2t144.5 -2q18 0 24 -10.5t6 -49.5q0 -16 -10 -22t-18 -6q-14 0 -179 1t-206 1q-21 0 -21 51zM41 1423q0 31 57 31q20 0 94 -4t138 -4q39 0 74.5 2t105.5 2q55 0 55 -29q0 -16 -94 -55q-66 -27 -65 -236q0 -276 -4 -488t-3 -269 q0 -172 52 -248q45 -63 98 -64q4 0 20.5 -1t20.5 -1q14 0 28.5 -7t14.5 -15q0 -23 -11.5 -30t-39.5 -7q-61 0 -113.5 4t-81.5 4q-57 0 -124.5 -5t-100.5 -5q-92 0 -92 31q0 18 19.5 25t44 10.5t51 27t36.5 68.5q4 14 13.5 232t9.5 315v116q0 27 1 101.5t1 119.5v95 q0 90 -8 149q-6 49 -54.5 76t-99.5 29q-43 1 -43 30z" />
<glyph unicode="&#x12b;" horiz-adv-x="581" d="M37 1206q0 39 33 39q158 0 226.5 -2t143.5 -2q18 0 24.5 -10t6.5 -49q0 -16 -10 -22.5t-19 -6.5q-14 0 -179 1t-206 1q-20 0 -20 51zM74 780q0 10 5 16.5t20.5 13.5t31.5 12t48 16.5t61 23.5l42 18q19 8 25 11.5t14.5 5.5t20.5 2q31 0 31 -39q0 -10 -6.5 -45t-6.5 -53 v-561q0 -61 18.5 -96t44.5 -43.5t51.5 -9.5t44 -7t18.5 -25q0 -35 -35 -34q-4 0 -14.5 1t-16.5 1q-45 0 -75.5 2t-69.5 2q-49 0 -92.5 -2t-53.5 -2q-82 0 -82 26q0 29 31 39q51 17 62 36q21 36 22 275v58v180q0 59 -14.5 94t-26.5 43.5t-42 13.5t-36 7q-20 8 -20 20z" />
<glyph unicode="&#x12c;" horiz-adv-x="671" d="M74 1825q0 6 22 6h10q8 -1 22 -23l34 -48q18 -26 62 -49t104 -23q74 0 116.5 35.5t59 71.5t24.5 36h9q23 0 22 -6q0 -82 -64.5 -170t-179 -88t-178 85t-63.5 173zM41 1423q0 31 57 31q20 0 94 -4t138 -4q39 0 74.5 2t105.5 2q55 0 55 -29q0 -16 -94 -55q-66 -27 -65 -236 q0 -276 -4 -488t-3 -269q0 -172 52 -248q45 -63 98 -64q4 0 20.5 -1t20.5 -1q14 0 28.5 -7t14.5 -15q0 -23 -11.5 -30t-39.5 -7q-61 0 -113.5 4t-81.5 4q-57 0 -124.5 -5t-100.5 -5q-92 0 -92 31q0 18 19.5 25t44 10.5t51 27t36.5 68.5q4 14 13.5 232t9.5 315v116 q0 27 1 101.5t1 119.5v95q0 90 -8 149q-6 49 -54.5 76t-99.5 29q-43 1 -43 30z" />
<glyph unicode="&#x12d;" horiz-adv-x="581" d="M23 1284q0 6 22 6h10q9 0 23 -22l32 -50q18 -26 62.5 -48.5t103.5 -22.5q74 0 117 36t59.5 71.5t24.5 35.5h8q23 0 23 -6q0 -82 -64.5 -170t-179 -88t-178 85t-63.5 173zM74 780q0 10 5 16.5t20.5 13.5t31.5 12t48 16.5t61 23.5l42 18q19 8 25 11.5t14.5 5.5t20.5 2 q31 0 31 -39q0 -10 -6.5 -45t-6.5 -53v-561q0 -61 18.5 -96t44.5 -43.5t51.5 -9.5t44 -7t18.5 -25q0 -35 -35 -34q-4 0 -14.5 1t-16.5 1q-45 0 -75.5 2t-69.5 2q-49 0 -92.5 -2t-53.5 -2q-82 0 -82 26q0 29 31 39q51 17 62 36q21 36 22 275v58v180q0 59 -14.5 94t-26.5 43.5 t-42 13.5t-36 7q-20 8 -20 20z" />
<glyph unicode="&#x12e;" horiz-adv-x="671" d="M41 1423q0 31 57 31q20 0 94 -4t138 -4q39 0 74.5 2t105.5 2q55 0 55 -29q0 -16 -94 -55q-66 -27 -65 -236q0 -276 -4 -488t-3 -269q0 -172 52 -248q45 -63 98 -64q4 0 20.5 -1t20.5 -1q14 0 28.5 -7t14.5 -15q0 -23 -11.5 -30t-39.5 -7q-37 0 -68 2l-46 3q-15 1 -19 1 q-59 0 -91 -67.5t-32 -131.5q0 -57 30.5 -102t71.5 -45q31 0 54.5 11.5t27.5 11.5q12 0 12 -15q0 -25 -47 -55.5t-110 -30.5q-78 0 -125 55.5t-47 126.5q0 55 18 100q17 46 39 68l40 40q18 18 19 24q0 8 -18 8l-47 -3q-47 -3 -82 -3q-92 0 -92 31q0 18 19.5 25t44 10.5 t51 27t36.5 68.5q4 14 13.5 232t9.5 315v116q0 27 1 101.5t1 119.5v95q0 90 -8 149q-6 49 -54.5 76t-99.5 29q-43 1 -43 30z" />
<glyph unicode="&#x12f;" horiz-adv-x="581" d="M74 780q0 10 5 16.5t20.5 13.5t31.5 12t48 16.5t61 23.5l42 18q19 8 25 11.5t14.5 5.5t20.5 2q31 0 31 -39q0 -10 -6.5 -45t-6.5 -53v-561q0 -61 18.5 -96t44.5 -43.5t51.5 -9.5t44 -7t18.5 -25q0 -35 -35 -34q-39 0 -65.5 1t-37 2t-12.5 1q-12 0 -29.5 -7.5t-39 -23.5 t-36 -56t-14.5 -96q0 -57 34 -102t75 -45q31 0 53.5 11.5t26.5 11.5q14 0 14 -15q0 -25 -47 -55.5t-111 -30.5q-76 0 -122 59.5t-46 131.5q0 51 20.5 94t44 63.5t44 36t20.5 19.5q0 6 -16 6l-2 -1l-2 -1q-18 0 -41 -1t-33 -1q-82 0 -82 26q0 29 31 39q51 17 62 36 q21 36 22 275v58v180q0 59 -14.5 94t-26.5 43.5t-42 13.5t-36 7q-20 8 -20 20zM190 1208q0 25 36 69t67 44q33 0 63.5 -42t30.5 -75t-39 -72.5t-57 -39.5q-41 0 -71 42.5t-30 73.5z" />
<glyph unicode="&#x130;" horiz-adv-x="671" d="M211 1749q0 25 36 69t66 44q33 0 65 -42t32 -75t-40 -73t-59 -40q-41 0 -70.5 43t-29.5 74zM41 1423q0 31 57 31q20 0 94 -4t138 -4q39 0 74.5 2t105.5 2q55 0 55 -29q0 -16 -94 -55q-66 -27 -65 -236q0 -276 -4 -488t-3 -269q0 -172 52 -248q45 -63 98 -64q4 0 20.5 -1 t20.5 -1q14 0 28.5 -7t14.5 -15q0 -23 -11.5 -30t-39.5 -7q-61 0 -113.5 4t-81.5 4q-57 0 -124.5 -5t-100.5 -5q-92 0 -92 31q0 18 19.5 25t44 10.5t51 27t36.5 68.5q4 14 13.5 232t9.5 315v116q0 27 1 101.5t1 119.5v95q0 90 -8 149q-6 49 -54.5 76t-99.5 29q-43 1 -43 30z " />
<glyph unicode="&#x131;" horiz-adv-x="581" d="M74 780q0 10 5 16.5t20.5 13.5t31.5 12t48 16.5t61 23.5l42 18q19 8 25 11.5t14.5 5.5t20.5 2q31 0 31 -39q0 -10 -6.5 -45t-6.5 -53v-561q0 -61 18.5 -96t44.5 -43.5t51.5 -9.5t44 -7t18.5 -25q0 -35 -35 -34q-4 0 -14.5 1t-16.5 1q-45 0 -75.5 2t-69.5 2 q-49 0 -92.5 -2t-53.5 -2q-82 0 -82 26q0 29 31 39q51 17 62 36q21 36 22 275v58v180q0 59 -14.5 94t-26.5 43.5t-42 13.5t-36 7q-20 8 -20 20z" />
<glyph unicode="&#x132;" horiz-adv-x="1265" d="M580 -315q0 31 23.5 71.5t39.5 40.5q12 0 44 -34.5t75 -34.5q113 0 141 159q27 139 27 248v85q0 62 -1 114l-1 53q0 41 -1 71.5t-2 65.5t-2 178.5t-1 382.5q0 131 -9 203q-6 49 -54 73.5t-101 27.5q-45 2 -45 36.5t59 34.5q23 0 94.5 -6t137.5 -6q39 0 67.5 1t97.5 1 q57 0 58 -27q0 -18 -94 -57q-43 -16 -43 -139v-94q0 -340 -1.5 -556.5t-1.5 -277.5t-1 -98t-1 -60q0 -233 -125.5 -383.5t-297.5 -150.5q-82 0 -82 78zM41 1423q0 31 57 31q20 0 94 -4t138 -4q39 0 74.5 2t105.5 2q55 0 55 -29q0 -16 -94 -55q-66 -27 -65 -236 q0 -276 -4 -488t-3 -269q0 -172 52 -248q45 -63 98 -64q4 0 20.5 -1t20.5 -1q14 0 28.5 -7t14.5 -15q0 -23 -11.5 -30t-39.5 -7q-61 0 -113.5 4t-81.5 4q-57 0 -124.5 -5t-100.5 -5q-92 0 -92 31q0 18 19.5 25t44 10.5t51 27t36.5 68.5q4 14 13.5 232t9.5 315v116 q0 27 1 101.5t1 119.5v95q0 90 -8 149q-6 49 -54.5 76t-99.5 29q-43 1 -43 30z" />
<glyph unicode="&#x133;" horiz-adv-x="1146" d="M618 -281q0 59 46 60q23 0 63.5 -44t54.5 -44q27 0 37 68.5t10 260.5v623q0 25 -3 40t-12 36.5t-36.5 33t-68.5 11.5q-33 0 -33 20q0 12 18 18l65 20q48 14 97 36q90 43 96 43q25 0 25 -47v-23q0 -16 -2 -51t-2 -45v-663q0 -113 -20.5 -213.5t-85 -184.5t-165.5 -84 q-80 0 -79 56q0 10 -2.5 36.5t-2.5 36.5zM809 1210.5q0 28.5 31.5 66.5t64.5 38q35 0 67 -36t32 -68.5t-36 -70.5t-55 -38q-41 0 -72.5 40t-31.5 68.5zM74 780q0 10 5 16.5t20.5 13.5t31.5 12t48 16.5t61 23.5l42 18q19 8 25 11.5t14.5 5.5t20.5 2q31 0 31 -39 q0 -10 -6.5 -45t-6.5 -53v-561q0 -61 19.5 -96t41 -43.5t54.5 -10.5q25 -2 33 -3t18.5 -7t10.5 -21q0 -35 -35 -34q-4 0 -14.5 1t-16.5 1q-45 0 -75.5 2t-69.5 2q-49 0 -92.5 -2t-53.5 -2q-82 0 -82 26q0 29 31 39q51 17 62 36q21 36 22 275v58v180q0 59 -14.5 94 t-26.5 43.5t-42 13.5t-36 7q-20 8 -20 20zM190 1208q0 25 36 69t67 44q33 0 63.5 -42t30.5 -75t-39 -72.5t-57 -39.5q-41 0 -71 42.5t-30 73.5z" />
<glyph unicode="&#x134;" horiz-adv-x="593" d="M70 1563q0 2 8 18l64 97q30 46 46 74l30 52l18.5 34.5t11.5 18t10 9.5t12 2h52q23 0 34 -23q33 -57 78 -125l72 -108q26 -39 26 -47q0 -16 -22 -17q-14 0 -109.5 87t-101.5 87q-12 0 -103.5 -86t-105.5 -86q-20 1 -20 13zM-92 -315q0 31 23.5 71.5t39.5 40.5 q12 0 44 -34.5t75 -34.5q113 0 141 159q27 139 27 248v85q0 62 -1 114l-1 53q0 41 -1 71.5t-2 65.5t-2 178.5t-1 382.5q0 131 -8 203q-6 49 -54.5 73.5t-101.5 27.5q-45 2 -45 36.5t59 34.5q23 0 94.5 -6t137.5 -6q39 0 67.5 1t98.5 1q57 0 57 -27q0 -18 -94 -57 q-43 -16 -43 -139v-94q0 -340 -1 -556.5t-1 -277.5t-1 -98t-1 -60q0 -233 -126 -383.5t-298 -150.5q-82 0 -82 78z" />
<glyph unicode="&#x135;" horiz-adv-x="575" d="M55 1022q0 2 8 18l65 98q30 46 46 74l30 50q14 24 18.5 35.5t11 18.5t10.5 9t12 2h51q23 0 35 -22q33 -57 78 -126l72 -108q26 -39 26 -47q0 -16 -22 -16q-14 0 -109.5 87t-101.5 87q-12 0 -103.5 -86t-105.5 -86q-21 0 -21 12zM47 -281q0 59 45 60q23 0 64 -44t55 -44 q27 0 37 68.5t10 260.5v623q0 25 -3 40t-12.5 36.5t-37 33t-68.5 11.5q-33 0 -33 20q0 12 18 18l66 20q48 14 97 36q90 43 96 43q25 0 25 -47v-23q0 -16 -2.5 -51t-2.5 -45v-663q0 -113 -20.5 -213.5t-85 -184.5t-164.5 -84q-80 0 -80 56q0 10 -2 36.5t-2 36.5z" />
<glyph unicode="&#x136;" horiz-adv-x="1482" d="M653 -162q0 6 41 37q4 2 16.5 13.5t22.5 16.5t23 5q10 0 32.5 -11.5t48 -42t25.5 -71.5q0 -88 -65.5 -142.5t-104.5 -54.5q-18 0 -18 15q0 6 21.5 17t43 34.5t21.5 60.5q0 39 -26.5 60.5t-53.5 34t-27 28.5zM41 1423q0 27 57 27q20 0 94 -2t138 -2q37 0 67.5 2t108.5 2 q35 0 35 -27q0 -8 -10.5 -14t-30 -14.5t-31.5 -14.5q-63 -37 -63 -250q0 -111 -3.5 -213t-3.5 -106q0 -43 19 -43q14 0 163.5 122t297 264t147.5 187q0 12 -6 21.5t-20.5 15.5t-24.5 9.5t-28.5 6.5t-22.5 5q-23 4 -23 28q0 23 33 23q4 0 21.5 -1t29.5 -1q4 0 48 -2t75 -2 l254 6q41 0 41 -27q0 -14 -12.5 -21t-47 -17.5t-59.5 -20.5q-10 -4 -100 -61q-19 -11 -231 -191l-357 -301l-23 -29q0 -10 23 -32l251 -249q284 -282 367.5 -352.5t159.5 -82.5q60 -9 67 -24q2 -5 3 -13q0 -18 -17.5 -22.5t-101.5 -4.5h-199q-14 0 -21 2t-14.5 6t-18.5 18 l-26 30l-48 54q-32 36 -70 74q-434 440 -456 459t-40 19q-29 0 -29 -56v-6q0 -6 1.5 -18.5t1.5 -28.5v-44v-60q0 -268 30 -324q39 -66 137 -66q4 0 8.5 -1t8.5 -1q14 0 28.5 -7t14.5 -15q0 -23 -11.5 -30t-39.5 -7q-61 0 -113.5 4t-81.5 4q-57 0 -124.5 -5t-100.5 -5 q-74 0 -74 22v9q0 14 19.5 19t48 13.5t45.5 24.5q29 29 36 132.5t7 330.5v274q0 27 -2 101.5t-2 119.5v95q0 104 -7 149q-6 49 -52 76t-97 29q-43 1 -43 30z" />
<glyph unicode="&#x137;" horiz-adv-x="1116" d="M440 -162q0 6 41 37q4 2 16.5 13.5t22.5 16.5t23 5q10 0 32.5 -11.5t48 -42t25.5 -71.5q0 -88 -65.5 -142.5t-104.5 -54.5q-18 0 -18 15q0 6 21.5 17t43 34.5t21.5 60.5q0 39 -26.5 60.5t-53.5 34t-27 28.5zM0 1411.5q0 22.5 100 52.5q14 4 34 10.5t24 7.5t15 5t12 5 t10.5 5t13.5 7t16.5 10.5t24.5 15.5q43 27 67 26q29 0 29 -38q0 -4 -2 -23.5t-5 -57.5t-5 -92.5t-4 -145.5t-2 -200q0 -70 -3 -210t-3 -209v-43q0 -86 8 -86q12 0 21 6t22.5 20.5t21.5 20.5q287 229 287 260q0 27 -46 45t-46 35q0 20 24 20q4 0 16.5 -1t20.5 -1 q90 2 185.5 6t115.5 4q53 0 54 -18q0 -14 -12.5 -20.5t-33 -9.5t-59.5 -17.5t-80 -40.5l-12 -8q-6 -4 -13.5 -10.5t-26.5 -20.5l-44 -33q-29 -23 -76 -57q-96 -74 -112.5 -88.5t-16.5 -30.5t23 -47q186 -227 319 -344q55 -49 111.5 -63.5t81 -14.5t24.5 -18q0 -25 -17.5 -30 t-66.5 -5q-14 0 -108 1t-105 1q-16 0 -53 32t-89 90l-89 102l-90 110q-53 66 -55 69q-8 12 -23 13q-20 0 -42 -29t-22 -66q0 -4 1.5 -15t1.5 -19q1 -22 2 -58q4 -98 14 -111q2 -2 5 -7q9 -10 15 -19q16 -23 85 -35t69 -31q0 -33 -63 -32q-4 0 -82 6t-117 6q-27 0 -65 -4 t-85 -4q-49 0 -49 24q0 20 51 35q47 18 59.5 53t12.5 136q0 23 1 53.5t1 36.5l2 909q0 154 -96 154q-6 0 -19.5 -1t-21.5 -1q-41 0 -41 22.5z" />
<glyph unicode="&#x139;" horiz-adv-x="1234" d="M252 1546q0 10 14.5 31.5t54 95.5t85.5 185q16 39 43 38q23 0 64.5 -13t41.5 -40q0 -47 -199 -256q-59 -63 -80 -63q-24 -1 -24 22zM41 1423q0 37 55 37q8 0 26.5 -2t29.5 -2q20 0 76.5 -4t101.5 -4q63 0 135 4t80 4q35 0 35 -20q0 -29 -25 -38t-54.5 -12.5t-57 -45.5 t-31.5 -126q-4 -80 -10.5 -446.5t-6.5 -409.5v-82q0 -147 49 -161q51 -16 88 -17q154 0 270 14.5t174 36t97 47t50.5 47t22.5 36t23 14.5q25 0 25 -35q0 -88 -88 -178t-154 -90q-147 0 -332.5 10t-230.5 10q-57 0 -132 -8t-124 -8q-59 0 -59 24q0 14 11 23.5t21 9.5 q31 0 60 21q37 29 53.5 105.5t16.5 295.5v254q0 55 3 172t3 182q0 55 -4 187q-2 59 -51.5 92t-114.5 35q-20 0 -25.5 7t-5.5 21z" />
<glyph unicode="&#x13a;" horiz-adv-x="571" d="M186 1616q0 10 14.5 31.5t54.5 95.5t85 184q16 39 43 39q23 0 64.5 -13.5t41.5 -39.5q0 -47 -198 -256q-59 -63 -80 -64q-25 0 -25 23zM41 1419q0 12 3 18.5t13.5 11.5t23.5 8t42 12.5t57 21.5q16 6 51 22.5t60.5 25.5t44.5 9q25 0 24 -39q0 -8 -4 -48t-8 -110.5 t-4 -152.5v-115q0 -96 -2 -162.5t-2 -109.5v-610q0 -43 7 -71t47 -53.5t112 -25.5q10 0 18 -10t8 -21q0 -29 -63 -28q-18 0 -95 7t-112 7q-53 0 -101 -8t-65 -8q-14 0 -23.5 7t-9.5 13q0 16 9.5 23.5t31 12.5t29.5 9q35 16 45 45t10 88q0 8 -1 25.5t-1 28.5v151 q0 76 4.5 402.5t4.5 468.5q0 47 -15.5 84.5t-34 46t-82.5 8.5q-22 0 -22 16z" />
<glyph unicode="&#x13b;" horiz-adv-x="1234" d="M516 -162q0 6 41 37q4 2 16.5 13.5t22.5 16.5t22 5q10 0 33 -11.5t48.5 -42t25.5 -71.5q0 -88 -65.5 -142.5t-104.5 -54.5q-18 0 -18 15q0 6 21.5 17t43 34.5t21.5 60.5q0 39 -27 60.5t-53.5 34t-26.5 28.5zM41 1423q0 37 55 37q8 0 26.5 -2t29.5 -2q20 0 76.5 -4 t101.5 -4q63 0 135 4t80 4q35 0 35 -20q0 -29 -25 -38t-54.5 -12.5t-57 -45.5t-31.5 -126q-4 -80 -10.5 -446.5t-6.5 -409.5v-82q0 -147 49 -161q51 -16 88 -17q154 0 270 14.5t174 36t97 47t50.5 47t22.5 36t23 14.5q25 0 25 -35q0 -88 -88 -178t-154 -90q-147 0 -332.5 10 t-230.5 10q-57 0 -132 -8t-124 -8q-59 0 -59 24q0 14 11 23.5t21 9.5q31 0 60 21q37 29 53.5 105.5t16.5 295.5v254q0 55 3 172t3 182q0 55 -4 187q-2 59 -51.5 92t-114.5 35q-20 0 -25.5 7t-5.5 21z" />
<glyph unicode="&#x13c;" horiz-adv-x="571" d="M172 -162q0 6 41 37q4 2 16.5 13.5t22.5 16.5t22 5q10 0 33 -11.5t48.5 -42t25.5 -71.5q0 -88 -65.5 -142.5t-104.5 -54.5q-18 0 -18 15q0 6 21.5 17t43 34.5t21.5 60.5q0 39 -27 60.5t-53.5 34t-26.5 28.5zM41 1419q0 12 3 18.5t13.5 11.5t23.5 8t42 12.5t57 21.5 q16 6 51 22.5t60.5 25.5t44.5 9q25 0 24 -39q0 -8 -4 -48t-8 -110.5t-4 -152.5v-115q0 -96 -2 -162.5t-2 -109.5v-610q0 -43 7 -71t47 -53.5t112 -25.5q10 0 18 -10t8 -21q0 -29 -63 -28q-18 0 -95 7t-112 7q-53 0 -101 -8t-65 -8q-14 0 -23.5 7t-9.5 13q0 16 9.5 23.5 t31 12.5t29.5 9q35 16 45 45t10 88q0 8 -1 25.5t-1 28.5v151q0 76 4.5 402.5t4.5 468.5q0 47 -15.5 84.5t-34 46t-82.5 8.5q-22 0 -22 16z" />
<glyph unicode="&#x13d;" horiz-adv-x="1234" d="M727 1470q0 6 41 37q4 2 16.5 13.5t22.5 16.5t22 5q10 0 33 -11t48.5 -42t25.5 -72q0 -88 -65.5 -142t-104.5 -54q-18 0 -18 14q0 6 21.5 17.5t43 35t21.5 60.5q0 39 -27 60.5t-53.5 33.5t-26.5 28zM41 1423q0 37 55 37q8 0 26.5 -2t29.5 -2q20 0 76.5 -4t101.5 -4 q63 0 135 4t80 4q35 0 35 -20q0 -29 -25 -38t-54.5 -12.5t-57 -45.5t-31.5 -126q-4 -80 -10.5 -446.5t-6.5 -409.5v-82q0 -147 49 -161q51 -16 88 -17q154 0 270 14.5t174 36t97 47t50.5 47t22.5 36t23 14.5q25 0 25 -35q0 -88 -88 -178t-154 -90q-147 0 -332.5 10 t-230.5 10q-57 0 -132 -8t-124 -8q-59 0 -59 24q0 14 11 23.5t21 9.5q31 0 60 21q37 29 53.5 105.5t16.5 295.5v254q0 55 3 172t3 182q0 55 -4 187q-2 59 -51.5 92t-114.5 35q-20 0 -25.5 7t-5.5 21z" />
<glyph unicode="&#x13e;" horiz-adv-x="571" d="M453 1470q0 6 41 37q4 2 16 13.5t22.5 16.5t22.5 5q10 0 32.5 -11t48.5 -42t26 -72q0 -88 -66 -142t-104 -54q-18 0 -19 14q0 6 21.5 17.5t43 35t21.5 60.5q0 39 -26.5 60.5t-53 33.5t-26.5 28zM41 1419q0 12 3 18.5t13.5 11.5t23.5 8t42 12.5t57 21.5q16 6 51 22.5 t60.5 25.5t44.5 9q25 0 24 -39q0 -8 -4 -48t-8 -110.5t-4 -152.5v-115q0 -96 -2 -162.5t-2 -109.5v-610q0 -43 7 -71t47 -53.5t112 -25.5q10 0 18 -10t8 -21q0 -29 -63 -28q-18 0 -95 7t-112 7q-53 0 -101 -8t-65 -8q-14 0 -23.5 7t-9.5 13q0 16 9.5 23.5t31 12.5t29.5 9 q35 16 45 45t10 88q0 8 -1 25.5t-1 28.5v151q0 76 4.5 402.5t4.5 468.5q0 47 -15.5 84.5t-34 46t-82.5 8.5q-22 0 -22 16z" />
<glyph unicode="&#x13f;" horiz-adv-x="1234" d="M801 682q0 25 34.5 68t65.5 43q33 0 64.5 -42t31.5 -75t-38.5 -73t-57.5 -40q-41 0 -70.5 44t-29.5 75zM41 1423q0 37 55 37q8 0 26.5 -2t29.5 -2q20 0 76.5 -4t101.5 -4q63 0 135 4t80 4q35 0 35 -20q0 -29 -25 -38t-54.5 -12.5t-57 -45.5t-31.5 -126 q-4 -80 -10.5 -446.5t-6.5 -409.5v-82q0 -147 49 -161q51 -16 88 -17q154 0 270 14.5t174 36t97 47t50.5 47t22.5 36t23 14.5q25 0 25 -35q0 -88 -88 -178t-154 -90q-147 0 -332.5 10t-230.5 10q-57 0 -132 -8t-124 -8q-59 0 -59 24q0 14 11 23.5t21 9.5q31 0 60 21 q37 29 53.5 105.5t16.5 295.5v254q0 55 3 172t3 182q0 55 -4 187q-2 59 -51.5 92t-114.5 35q-20 0 -25.5 7t-5.5 21z" />
<glyph unicode="&#x140;" horiz-adv-x="1038" d="M680 682q0 25 35 68t65 43q33 0 65 -42t32 -75t-39 -73t-58 -40q-41 0 -70.5 44t-29.5 75zM41 1419q0 12 3 18.5t13.5 11.5t23.5 8t42 12.5t57 21.5q16 6 51 22.5t60.5 25.5t44.5 9q25 0 24 -39q0 -8 -4 -48t-8 -110.5t-4 -152.5v-115q0 -96 -2 -162.5t-2 -109.5v-610 q0 -43 7 -71t47 -53.5t112 -25.5q10 0 18 -10t8 -21q0 -29 -63 -28q-18 0 -95 7t-112 7q-53 0 -101 -8t-65 -8q-14 0 -23.5 7t-9.5 13q0 16 9.5 23.5t31 12.5t29.5 9q35 16 45 45t10 88q0 8 -1 25.5t-1 28.5v151q0 76 4.5 402.5t4.5 468.5q0 47 -15.5 84.5t-34 46t-82.5 8.5 q-22 0 -22 16z" />
<glyph unicode="&#x141;" horiz-adv-x="1234" d="M41 1423q0 37 55 37q8 0 26.5 -2t29.5 -2q20 0 76.5 -4t101.5 -4q63 0 135 4t80 4q35 0 35 -20q0 -29 -25 -38t-54.5 -12.5t-57 -45.5t-31.5 -126q-8 -168 -9 -417q0 -16 9 -17q2 0 7 2t12 5.5t15 5.5l447 178q31 12 43 12q14 0 23.5 -13.5t12.5 -24.5t3 -15 q0 -25 -53 -45l-492 -197q-31 -10 -31 -49q-4 -270 -4 -281v-82q0 -147 49 -161q51 -16 88 -17q154 0 270 14.5t174 36t97 47t50.5 47t22.5 36t23 14.5q25 0 25 -35q0 -88 -88 -178t-154 -90q-147 0 -332.5 10t-230.5 10q-57 0 -132 -8t-124 -8q-59 0 -59 24q0 14 11 23.5 t21 9.5q31 0 60 21q37 29 53.5 105.5t16.5 295.5v111q0 23 -7 22l-4 -1q-4 -1 -6 -1l-94 -37q-8 -4 -12 -4q-23 0 -34 21.5t-11 36.5q0 18 22 26l123 51q23 6 23 29q0 55 3 172t3 182q0 55 -4 187q-2 59 -51.5 92t-114.5 35q-20 0 -25.5 7t-5.5 21z" />
<glyph unicode="&#x142;" horiz-adv-x="571" d="M41 688q0 10 43 34q45 25 82 48q18 10 22.5 22.5t4.5 47.5q2 150 2 424q0 47 -15.5 84.5t-34 46t-82.5 8.5q-23 0 -22 16q0 12 3 18.5t13.5 11.5t23.5 8t42 12.5t57 21.5q16 6 51 22.5t60.5 25.5t44.5 9q25 0 24 -39q0 -8 -4 -48t-8 -110.5t-4 -152.5v-115 q0 -63 -1 -121.5t-1 -60.5q0 -20 8 -20q4 0 51.5 27.5t59.5 27.5q18 0 29.5 -20.5t11.5 -36.5q0 -12 -14.5 -22.5t-112.5 -70.5q-20 -12 -27.5 -22t-7.5 -39v-524q0 -43 7 -71t47 -53.5t112 -25.5q10 0 18 -10t8 -21q0 -29 -63 -28q-18 0 -95 7t-112 7q-53 0 -101 -8t-65 -8 q-14 0 -23.5 7t-9.5 13q0 16 9.5 23.5t31 12.5t29.5 9q35 16 45 45t10 88q0 8 -1 25.5t-1 28.5v151q0 25 2 106t2 134q0 41 -6 41t-50 -25.5t-48 -25.5q-16 0 -30.5 18t-14.5 47z" />
<glyph unicode="&#x143;" horiz-adv-x="1634" d="M735 1546q0 10 14.5 31.5t54.5 95.5t85 185q16 39 43 38q23 0 64.5 -13t41.5 -40q0 -47 -198 -256q-59 -63 -80 -63q-25 -1 -25 22zM41 1415q0 12 14.5 23.5t36.5 11.5q12 0 41 -1t37 -1q31 0 57.5 2t42.5 2q18 0 43 -11t29 -24l22 -27l50 -57q30 -35 55 -67 q279 -362 745 -875q12 -14 30 -32.5t25 -27.5t15 -17.5t13.5 -11.5t9.5 -3q20 0 20 127v240q0 137 -1 231t-2 136t-1 52v15q0 70 -9 119t-21.5 75.5t-36 45t-40 23.5t-47 11t-43.5 10q-41 12 -41 35q0 31 39 31q12 0 98.5 -1t96.5 -1q49 0 109.5 2t74.5 2q35 0 48.5 -7 t13.5 -28q0 -8 -11.5 -15t-23.5 -12.5t-25 -9.5l-12 -4q-68 -37 -68 -231v-78q0 -156 -11 -540t-11 -474v-41q0 -47 -29 -47q-18 0 -33 15l-812 936q-132 148 -146 149q-20 0 -21 -139q0 -195 -8 -419t-8 -245q0 -92 32 -140t68.5 -54.5t68.5 -13.5t32 -27q0 -23 -7.5 -29 t-25.5 -6q-14 0 -64.5 2t-154.5 2q-18 0 -75.5 -2t-98.5 -2q-45 0 -45 33q0 18 26.5 23t65.5 31.5t59 100.5q12 47 30.5 381t18.5 461q0 176 -49 263t-159 99q-27 2 -27 31z" />
<glyph unicode="&#x144;" horiz-adv-x="1210" d="M543 1006q0 10 14 31.5t54 95t85 184.5q16 39 43 39q23 0 65 -13.5t42 -39.5q0 -47 -199 -256q-59 -63 -80 -64q-24 0 -24 23zM63 799q0 12 13.5 18t44.5 10t43 9q39 10 81 27.5t67.5 29.5t33.5 12h4q18 0 19 -24q0 -4 -2 -37t-2 -51q0 -53 10 -54q6 0 14 11.5t29.5 33 t52.5 39.5q92 57 178 58q82 0 147.5 -26t102.5 -63.5t61.5 -87t32.5 -90.5t8 -77v-19q0 -12 1 -30q2 -16 2 -80v-164v-45q0 -78 21.5 -108t102.5 -42q41 -6 41 -31q0 -20 -41 -20q-47 0 -98 5t-69 5q-29 0 -89.5 -4t-68.5 -4q-41 0 -41 27q0 10 7 16t17 8l18 4l9 2 q45 14 45 138v276q0 158 -78 239t-186 81q-88 0 -153.5 -47.5t-75.5 -77.5q-18 -51 -19 -324v-78q0 -102 21.5 -151.5t95.5 -55.5q20 0 52 -7t32 -23q0 -27 -39 -27q-35 0 -67.5 4t-82.5 4q-53 0 -141 -4l-88 -4q-31 0 -31 20q0 16 10.5 20.5t26 6.5t30.5 12.5t27.5 50.5 t14.5 107q4 115 4 154v295q0 66 -23.5 88t-64.5 22h-21q-39 0 -39 23z" />
<glyph unicode="&#x145;" horiz-adv-x="1634" d="M741 -162q0 6 41 37q4 2 16.5 13.5t22.5 16.5t23 5q10 0 32.5 -11.5t48 -42t25.5 -71.5q0 -88 -65.5 -142.5t-104.5 -54.5q-18 0 -18 15q0 6 21.5 17t43 34.5t21.5 60.5q0 39 -26.5 60.5t-53.5 34t-27 28.5zM41 1415q0 12 14.5 23.5t36.5 11.5q12 0 41 -1t37 -1 q31 0 57.5 2t42.5 2q18 0 43 -11t29 -24l22 -27l50 -57q30 -35 55 -67q279 -362 745 -875q12 -14 30 -32.5t25 -27.5t15 -17.5t13.5 -11.5t9.5 -3q20 0 20 127v240q0 137 -1 231t-2 136t-1 52v15q0 70 -9 119t-21.5 75.5t-36 45t-40 23.5t-47 11t-43.5 10q-41 12 -41 35 q0 31 39 31q12 0 98.5 -1t96.5 -1q49 0 109.5 2t74.5 2q35 0 48.5 -7t13.5 -28q0 -8 -11.5 -15t-23.5 -12.5t-25 -9.5l-12 -4q-68 -37 -68 -231v-78q0 -156 -11 -540t-11 -474v-41q0 -47 -29 -47q-18 0 -33 15l-812 936q-132 148 -146 149q-20 0 -21 -139q0 -195 -8 -419 t-8 -245q0 -92 32 -140t68.5 -54.5t68.5 -13.5t32 -27q0 -23 -7.5 -29t-25.5 -6q-14 0 -64.5 2t-154.5 2q-18 0 -75.5 -2t-98.5 -2q-45 0 -45 33q0 18 26.5 23t65.5 31.5t59 100.5q12 47 30.5 381t18.5 461q0 176 -49 263t-159 99q-27 2 -27 31z" />
<glyph unicode="&#x146;" horiz-adv-x="1210" d="M545 -162q0 6 41 37q4 2 16 13.5t22.5 16.5t22.5 5q10 0 32.5 -11.5t48.5 -42t26 -71.5q0 -88 -65.5 -142.5t-104.5 -54.5q-18 0 -19 15q0 6 21.5 17t43 34.5t21.5 60.5q0 39 -26.5 60.5t-53 34t-26.5 28.5zM63 799q0 12 13.5 18t44.5 10t43 9q39 10 81 27.5t67.5 29.5 t33.5 12h4q18 0 19 -24q0 -4 -2 -37t-2 -51q0 -53 10 -54q6 0 14 11.5t29.5 33t52.5 39.5q92 57 178 58q82 0 147.5 -26t102.5 -63.5t61.5 -87t32.5 -90.5t8 -77v-19q0 -12 1 -30q2 -16 2 -80v-164v-45q0 -78 21.5 -108t102.5 -42q41 -6 41 -31q0 -20 -41 -20q-47 0 -98 5 t-69 5q-29 0 -89.5 -4t-68.5 -4q-41 0 -41 27q0 10 7 16t17 8l18 4l9 2q45 14 45 138v276q0 158 -78 239t-186 81q-88 0 -153.5 -47.5t-75.5 -77.5q-18 -51 -19 -324v-78q0 -102 21.5 -151.5t95.5 -55.5q20 0 52 -7t32 -23q0 -27 -39 -27q-35 0 -67.5 4t-82.5 4 q-53 0 -141 -4l-88 -4q-31 0 -31 20q0 16 10.5 20.5t26 6.5t30.5 12.5t27.5 50.5t14.5 107q4 115 4 154v295q0 66 -23.5 88t-64.5 22h-21q-39 0 -39 23z" />
<glyph unicode="&#x147;" horiz-adv-x="1634" d="M584 1851q0 16 22 17q14 0 108.5 -87t100.5 -87q12 0 104.5 86t106.5 86q20 0 21 -13q0 -2 -9 -18l-64 -97q-30 -46 -46 -74l-30 -52l-18.5 -34.5t-11.5 -18t-10 -9.5t-12 -2h-51q-25 0 -37 23q-33 57 -78 125l-70 108q-26 39 -26 47zM41 1415q0 12 14.5 23.5t36.5 11.5 q12 0 41 -1t37 -1q31 0 57.5 2t42.5 2q18 0 43 -11t29 -24l22 -27l50 -57q30 -35 55 -67q279 -362 745 -875q12 -14 30 -32.5t25 -27.5t15 -17.5t13.5 -11.5t9.5 -3q20 0 20 127v240q0 137 -1 231t-2 136t-1 52v15q0 70 -9 119t-21.5 75.5t-36 45t-40 23.5t-47 11t-43.5 10 q-41 12 -41 35q0 31 39 31q12 0 98.5 -1t96.5 -1q49 0 109.5 2t74.5 2q35 0 48.5 -7t13.5 -28q0 -8 -11.5 -15t-23.5 -12.5t-25 -9.5l-12 -4q-68 -37 -68 -231v-78q0 -156 -11 -540t-11 -474v-41q0 -47 -29 -47q-18 0 -33 15l-812 936q-132 148 -146 149q-20 0 -21 -139 q0 -195 -8 -419t-8 -245q0 -92 32 -140t68.5 -54.5t68.5 -13.5t32 -27q0 -23 -7.5 -29t-25.5 -6q-14 0 -64.5 2t-154.5 2q-18 0 -75.5 -2t-98.5 -2q-45 0 -45 33q0 18 26.5 23t65.5 31.5t59 100.5q12 47 30.5 381t18.5 461q0 176 -49 263t-159 99q-27 2 -27 31z" />
<glyph unicode="&#x148;" horiz-adv-x="1210" d="M391 1311q0 16 23 16q14 0 108 -87t101 -87q12 0 104 86t107 86q20 0 20 -12q0 -2 -8 -19l-64 -97l-46 -73l-30 -52q-14 -24 -19 -35t-11 -18t-10 -9t-13 -2h-51q-25 0 -37 22q-33 57 -78 126l-71 108q-26 39 -25 47zM63 799q0 12 13.5 18t44.5 10t43 9q39 10 81 27.5 t67.5 29.5t33.5 12h4q18 0 19 -24q0 -4 -2 -37t-2 -51q0 -53 10 -54q6 0 14 11.5t29.5 33t52.5 39.5q92 57 178 58q82 0 147.5 -26t102.5 -63.5t61.5 -87t32.5 -90.5t8 -77v-19q0 -12 1 -30q2 -16 2 -80v-164v-45q0 -78 21.5 -108t102.5 -42q41 -6 41 -31q0 -20 -41 -20 q-47 0 -98 5t-69 5q-29 0 -89.5 -4t-68.5 -4q-41 0 -41 27q0 10 7 16t17 8l18 4l9 2q45 14 45 138v276q0 158 -78 239t-186 81q-88 0 -153.5 -47.5t-75.5 -77.5q-18 -51 -19 -324v-78q0 -102 21.5 -151.5t95.5 -55.5q20 0 52 -7t32 -23q0 -27 -39 -27q-35 0 -67.5 4t-82.5 4 q-53 0 -141 -4l-88 -4q-31 0 -31 20q0 16 10.5 20.5t26 6.5t30.5 12.5t27.5 50.5t14.5 107q4 115 4 154v295q0 66 -23.5 88t-64.5 22h-21q-39 0 -39 23z" />
</font>
</defs>
</svg>
